<?xml version="1.0" encoding="utf-8"?>
<!-- Generator: Adobe Illustrator 23.0.1, SVG Export Plug-In . SVG Version: 6.00 Build 0)  -->
<svg version="1.1" id="Calque_1" xmlns="http://www.w3.org/2000/svg" xmlns:xlink="http://www.w3.org/1999/xlink" x="0px" y="0px"
	 viewBox="0 0 851 557.3" style="enable-background:new 0 0 851 557.3;" xml:space="preserve">
<style type="text/css">
	.st0{fill:#3F3D56;}
	.st1{fill:#E6E6E6;}
	.st2{fill:#FFB6B6;}
	.st3{fill:#2F2E41;}
	.st4{opacity:0.1;enable-background:new    ;}
	.st5{fill:#A0616A;}
	.st6{fill:#FFFFFF;}
	.st7{fill:#FF0000;}
</style>
<path class="st0" d="M785.2,269.1H95.1c-9.3,0-16.8-7.5-16.8-16.8V16.8C78.3,7.5,85.9,0,95.1,0h690.1c9.3,0,16.8,7.5,16.8,16.8
	v235.6C802,261.6,794.5,269.1,785.2,269.1z M95.1,2C87,2,80.3,8.6,80.3,16.8v235.6c0,8.1,6.6,14.8,14.8,14.8h690.1
	c8.1,0,14.8-6.6,14.8-14.8V16.8C800,8.6,793.4,2,785.2,2C785.2,2,95.1,2,95.1,2z"/>
<rect id="uuid-dac6dc9f-03bc-4283-a90c-97bcdcbf45dc" y="550.6" class="st1" width="851" height="1.7"/>
<rect id="uuid-2f9646f7-bb94-4523-8d2e-fd8f0877664c" y="464.6" class="st1" width="851" height="1.7"/>
<g>
	<path id="uuid-bb35f39c-94aa-41c4-b5d9-34ca9a9e88f1-297" class="st2" d="M387.8,277.8c0.6,7.7,5.1,13.6,10,13.2s8.4-6.9,7.7-14.6
		c-0.2-3.1-1.1-6.1-2.7-8.7l-3-32.5l-15.2,1.7l4.6,31.9C388,271.6,387.6,274.7,387.8,277.8z"/>
	<path class="st1" d="M369.7,126.1c0,0,14.2-7.5,21.4,3.7s12.2,133,12.2,133l-20,2.1l-3.8-85.8L369.7,126.1L369.7,126.1z"/>
	<g>
		<polygon class="st2" points="340.1,458.2 351.7,458.2 357.2,413.5 340.1,413.5 		"/>
		<path class="st3" d="M379.8,457.9L379.8,457.9c0.4,0.6,0.6,2.6,0.6,3.3l0,0c0,2.2-1.8,3.9-3.9,3.9h-35.9c-1.5,0-2.7-1.2-2.7-2.7
			V461c0,0-1.8-4.5,1.9-10c0,0,4.5,4.3,11.3-2.5l2-3.6l14.5,10.6l8,1C377.4,456.7,378.9,456.4,379.8,457.9L379.8,457.9L379.8,457.9z
			"/>
	</g>
	<g>
		<polygon class="st2" points="407.2,456.3 418.4,453.4 412.7,408.7 396.1,413 		"/>
		<path class="st3" d="M445.6,446.2L445.6,446.2c0.5,0.5,1.2,2.4,1.3,3l0,0c0.5,2.1-0.7,4.2-2.8,4.8l-34.8,8.9
			c-1.4,0.4-2.9-0.5-3.3-1.9l-0.4-1.4c0,0-2.8-3.9-0.7-10.2c0,0,5.5,3.1,10.4-5.2l1-4l16.7,6.7l8-1
			C442.9,445.6,444.3,445,445.6,446.2L445.6,446.2L445.6,446.2z"/>
	</g>
	<polygon class="st2" points="330.5,116.5 330,112.5 336.5,96.6 354.4,94.6 358.3,117.4 	"/>
	<polygon class="st4" points="330.5,116.5 330,112.5 336.5,96.6 354.4,94.6 358.3,117.4 	"/>
	<polygon class="st3" points="309.6,229.2 301.6,251.1 307.6,263 337.5,436.5 357.4,436.5 353.5,283 399.3,436.5 419,436.5 
		403.2,332.8 391.3,237.1 384.2,232.7 349.5,213.2 	"/>
	<polygon class="st1" points="360.4,244.1 348.5,246.1 332.5,208.2 368.4,208.2 	"/>
	<polygon class="st3" points="384.4,234.1 360.4,244.1 352.5,226.2 348.5,246.1 306.6,232.6 312.6,208.2 306.6,128.5 327.7,114.4 
		330.5,112.5 356.4,114.5 358.7,115.8 374.4,124.5 378.4,190.3 	"/>
	<polygon class="st1" points="358.7,115.8 347.5,163.4 327.7,114.4 330.5,112.5 356.4,114.5 	"/>
	<polygon class="st3" points="339.5,112.5 335.5,119.4 339.5,121.7 337.5,163.5 345.5,174.3 353.5,158.3 347.5,121.7 349.5,112.5 	
		"/>
	<circle class="st2" cx="345.5" cy="89.6" r="18.9"/>
	<path class="st3" d="M333.4,91.3l4.1,1.8l1.8-10.7c0,0,7.1-3.6,12.5-1.8s14.3,0,14.3,0s0-17.9-12.5-17.9s-25,1.8-25,7.1
		s-5.4,10.7-5.4,10.7s-7.1,10.7,0,17.9s10.7,7.1,10.7,7.1L333.4,91.3L333.4,91.3z"/>
	<path id="uuid-97233535-ec91-4408-928f-bf1e5273ca3e-298" class="st2" d="M296.6,277.2c-0.2,7.7,3.6,14.1,8.5,14.2s9-6,9.2-13.7
		c0.1-3.1-0.5-6.1-1.8-8.9l0.5-32.6l-15.3,0.1l1.2,32.2C297.4,271.1,296.7,274.2,296.6,277.2z"/>
	<path class="st1" d="M315.6,124.5c0,0-13-4-18.9,8c-6,12,2,133.6,2,133.6h20.1l-5.3-85.7L315.6,124.5L315.6,124.5z"/>
</g>
<g>
	<polygon class="st5" points="662.3,542.9 650.4,542.9 644.8,497.1 662.4,497.1 	"/>
	<path class="st3" d="M621.6,542.6L621.6,542.6c-0.4,0.6-0.6,2.6-0.6,3.4l0,0c0,2.2,1.8,4,4,4l36.8,0.1c1.5,0,2.8-1.2,2.8-2.7l0-1.5
		c0,0,1.8-4.6-1.9-10.3c0,0-4.7,4.4-11.6-2.5l-2-3.7l-14.9,10.8l-8.2,1C624.1,541.3,622.5,541,621.6,542.6L621.6,542.6L621.6,542.6z
		"/>
</g>
<g>
	<polygon class="st5" points="726,521.6 716.7,528.7 684.9,495.9 698.8,485.5 	"/>
	<path class="st3" d="M693.8,545.6L693.8,545.6c0.1,0.7,1.1,2.4,1.6,3l0,0c1.3,1.8,3.8,2.1,5.6,0.8l29-21.9c1.2-0.9,1.4-2.6,0.5-3.8
		l-0.9-1.2c0,0-1.3-4.7-7.6-7c0,0-1,6.3-10.7,4.9l-3.8-1.7l-5.3,17.4l-5.9,5.7C695,543.1,693.6,543.8,693.8,545.6L693.8,545.6
		L693.8,545.6z"/>
</g>
<g>
	<path class="st0" d="M812.7,351l-48.3-14.8c-1.1-0.3-2.2-0.4-3.3-0.4l-244.9,20.8c-3.5,0.3-4.4,5-1.2,6.5l7.8,3.8h-0.2v183h7.4
		V370.6l24.6,12c1.9,0.9,4,1.3,6.1,1.1l2.6-0.3V550h7.4V382.6L760,363.5V550h7.4V362.7l31.4-3.2V550h7.4V358.8l5.7-0.6
		C816,357.8,816.5,352.2,812.7,351L812.7,351z"/>
	<path class="st6" d="M587.2,356c4.6,0,73-8.3,73-8.3l10.2,13.9l-71.1,13.9L587.2,356L587.2,356z"/>
	<path class="st5" d="M701.2,284.7c0,11-8.9,19.8-19.8,19.8s-19.8-8.9-19.8-19.8s8.9-19.8,19.8-19.8S701.2,273.8,701.2,284.7z"/>
	<path class="st3" d="M699.3,399.1c0,0-73-4.1-77.2,4.1s22.3,121.8,22.3,121.8l23.6-5l-11.5-79.7c0,0,60.9,16.1,69.2-3.2
		s5.9-26.5,5.9-26.5L699.3,399.1L699.3,399.1z"/>
	<path class="st3" d="M718,385.2c0,0-71.5,15.3-73.3,24.4s53.8,111.6,53.8,111.6l21.5-11l-32.2-73.8c0,0,63-0.6,65.9-21.3
		s-1.3-27.1-1.3-27.1L718,385.2L718,385.2z"/>
	<path class="st7" d="M726.2,307.5h-34.4l-23.5,38.6c0,0-5.5,24.9,0,27.6c5.5,2.7,5.5,31.6,5.5,31.6l57.9,5.5c0,0,8.3-86.8,5.5-95.1
		S726.2,307.5,726.2,307.5z"/>
	<path class="st5" d="M671.8,333l-3.4,40.7l-38.7-16.4l-9.2-4.7c-1.8-2.4-4.2-4.3-6.9-5.5c-6.7-3.3-13.8-2.5-15.9,1.8
		c-2.1,4.3,1.7,10.4,8.4,13.6c2.7,1.3,5.6,2,8.6,2l27.1,15.4l0-0.1l0.1,0.2l42.4,17.7l9.8-53.4L671.8,333L671.8,333z"/>
	<path class="st3" d="M667.6,287.5c0,0-20.7,2.8-12.4-15.2c0,0-1.3-9.7,4.9-10.4s14.4-11.7,14.4-11.7s19-9.6,28.8,0
		c9.8,9.6,38.8,66.1,38.8,66.1l-19.3,20.7c0,0-11.6-30.5-25.1-27c-13.5,3.5-25.9,14.1-25.9,14.1s-13.7-6.9-7.5-12.8
		S667.6,287.5,667.6,287.5z"/>
	<path class="st7" d="M695.2,317.8c0,0-9.6-12.4-16.5-2.8c-6.9,9.6-12.4,22-12.4,22l27.6,9.6L695.2,317.8z"/>
	<path class="st1" d="M799.8,547.3l-32-101.8l0,0h0.1l-0.1-0.2l0,0l-2.3-7.2l0,0c3.5-3,5.8-7.3,6.3-12.2l-14.6-80.5
		c1-10.6-7.1-19.8-17.7-20.2l-33-0.1c-9.4-0.3-17.5,6.4-18.9,15.7l-0.7,4.9l-10.1,68.8c-0.4,2.5-0.2,4.9,0.4,7.2l-7.3,1l-2.2,0.3
		l-8.7,1.1l0,0l-1.1,0.1h-1.2v29.6h0.1v94.5c0,0.6,0.5,1.1,1.1,1.1c0.6,0,1.1-0.5,1.1-1.1v-94.5h13l12.9,94.4c0.1,0.6,0.6,1,1.1,1
		c0,0,0.1,0,0.1,0c0.6-0.1,1-0.6,1-1.3L674,453.9h62.2c6.2,0,11.9-2,16.5-5.3l24.6,99.5c0.1,0.5,0.6,0.8,1.1,0.8c0.1,0,0.2,0,0.3,0
		c0.6-0.2,1-0.8,0.8-1.4l-24.9-100.5c0.3-0.3,0.7-0.6,1-0.9l9.9-0.6l32.2,102.3c0.1,0.5,0.6,0.8,1.1,0.8c0.1,0,0.2,0,0.3-0.1
		C799.7,548.5,800,547.9,799.8,547.3L799.8,547.3z M763.4,439.7c0.1,0,0.2-0.1,0.2-0.1l0,0l0.2,0.8L763.4,439.7z"/>
</g>
<rect x="254.3" y="393" class="st0" width="8" height="158"/>
<g>
	<g>
		<polygon class="st2" points="171.6,374.8 193.1,361.1 201.9,366.4 171.6,401.2 		"/>
		<path class="st1" d="M142.1,321.7c0,0-14.3,3.4-7.6,22.7c6.7,19.4,28.6,59.8,35.4,57.3s7.6-27.8,7.6-27.8s-0.8,0.8-4.2-2.5
			s-3.4-1.8-3.4-5.5s-2.8-6.5-2.8-6.5l-3.1-6.5c0,0,0-30.3-12.6-32C138.7,319.2,142.1,321.7,142.1,321.7z"/>
		
			<ellipse transform="matrix(0.7071 -0.7071 0.7071 0.7071 -194.6175 248.5495)" class="st2" cx="202.7" cy="359.2" rx="14.3" ry="8.8"/>
	</g>
	<g>
		<polygon class="st1" points="86.3,433.3 101.1,457.6 186.7,452.6 163.9,423.1 		"/>
		<path class="st1" d="M112,547.1c-0.5,0-0.9-0.4-1-0.9l-25.6-187c-0.1-0.6,0.3-1.1,0.9-1.1c0.6-0.1,1.1,0.3,1.1,0.9L113,546
			c0.1,0.6-0.3,1.1-0.9,1.1C112,547.1,112,547.1,112,547.1z"/>
		<path class="st1" d="M86.3,547.4c-0.6,0-1-0.5-1-1V359.1c0-0.6,0.5-1,1-1c0.6,0,1,0.5,1,1v187.2C87.4,546.9,86.9,547.4,86.3,547.4
			z"/>
		<path class="st1" d="M214.9,546.6c-0.4,0-0.8-0.3-1-0.7l-60.6-192.6c-0.2-0.5,0.1-1.1,0.7-1.3c0.5-0.2,1.1,0.1,1.3,0.7l60.6,192.6
			c0.2,0.5-0.1,1.1-0.7,1.3C215.1,546.6,215,546.6,214.9,546.6L214.9,546.6z"/>
		<path class="st1" d="M196.4,546.9c-0.5,0-0.9-0.3-1-0.8l-42.1-170c-0.1-0.5,0.2-1.1,0.7-1.2c0.5-0.1,1.1,0.2,1.2,0.7l42.1,170
			c0.1,0.5-0.2,1.1-0.7,1.2C196.5,546.8,196.5,546.9,196.4,546.9L196.4,546.9z"/>
		<polygon class="st1" points="86.3,362.1 156.6,361 169.5,434.8 87.4,434.8 		"/>
	</g>
	<g>
		<polygon class="st2" points="194.3,470.6 176.6,501.8 197.1,506.3 205.7,484.1 		"/>
		<path class="st3" d="M182.9,495.9c0,0-0.7-5.1-4.7-3.5s-15.7,7.6-15.7,7.6s30.4,49.5,36.2,47.1c5.8-2.3-1.1-16.3-1.1-16.3
			l1.5-24.7L182.9,495.9L182.9,495.9z"/>
		<path class="st3" d="M116,410.1c0,0-6.3,29,13.1,39.2s85.5-14.7,85.5-14.7L184.2,480l21,8.5c0,0,48-63.1,44.6-73.2
			c-3.4-10.1-26.1-10.9-26.1-10.9l-51.4,2.5l-13.5-4.2C158.9,402.6,116,410.1,116,410.1z"/>
	</g>
	<g>
		<polygon class="st2" points="168.1,484.4 140.3,507 157.8,518.7 173.8,501.2 		"/>
		<path class="st3" d="M148.3,503.8c0,0,1.2-5-3.1-5s-17.4,1.4-17.4,1.4s10.4,57.1,16.6,57.1c6.2,0,4.9-15.6,4.9-15.6l10.4-22.5
			L148.3,503.8L148.3,503.8z"/>
		<path class="st3" d="M117.2,399.6c0,0-16.5,24.8-2.1,41.2s85,17.4,85,17.4l-44.8,31.3l16.5,15.5c0,0,67.7-41.4,68.2-52
			c0.5-10.6-20.3-19.7-20.3-19.7L170.9,417l-11-8.8C159.9,408.2,117.2,399.6,117.2,399.6z"/>
	</g>
	<path class="st3" d="M159.4,342.3c0,0-16-5.9-23.6-5.9c-0.7,0-1.4,0.1-2.2,0.2c-4.8,1-9.3,5.2-11.5,7.5c-0.8,0.9-1.3,1.5-1.3,1.5
		s0.1-0.6,0.2-1.6c0.5-5.4,2.3-22.9,5.6-34.2c1.2-4,2.5-7.2,4.1-8.8c3.6-3.6,5.3-8,6.1-11.2c0.7-2.8,0.7-4.7,0.7-4.7l-6.1-2.6
		l-1.1-7.4c-0.2,0.9-1.1,2.6-4.3,5.9c-0.3,0.3-0.6,0.5-0.9,0.7c-4.5,2.8-13.8-2.1-18.7-5.2c2.1-7.2,5.8-13.8,12.6-14.9
		c16-2.5,16-11.8,26.1-1.7c0.8,0.8,1.7,1.6,2.5,2.4c3.2,6.2,4.4,14.5,4.8,20.2c0.3,4,0.2,6.8,0.2,6.8s4.2,25.3,10.9,30.3
		S159.4,342.3,159.4,342.3L159.4,342.3z"/>
	<polygon class="st2" points="128.3,301.9 116.9,318.6 142.6,325.4 142.6,301.9 	"/>
	<polygon class="st4" points="128.3,301.9 116.9,318.6 142.6,325.4 142.6,301.9 	"/>
	<path class="st1" d="M144.2,317.9l-24.4-10.1c0,0-32.8,14.3-30.3,42.1s26.1,75.8,26.1,75.8l47.1-20.2l-5.1-53.9L144.2,317.9
		L144.2,317.9z"/>
	<circle class="st2" cx="133.7" cy="287.8" r="21.5"/>
	<path class="st3" d="M162.8,280c-4.2,4.2-7.6,8.4-7.6,8.4l-1.7-6.7c0,0-0.4,0.3-1.1,0.7c-2.7,1.8-9.8,6.4-15.6,7.4
		c-2.6,0.4-4.8,0.2-6.3-1.4c-3.1-3.3-4.1-5-4.3-5.9l-1.1,7.4l-6.1,2.6c0,0,0,9.2,6.7,16c0.3,0.3,0.6,0.7,1,1.2
		c3.2,4.8,5.5,16.7,7,26.8c1.3,9,1.9,16.5,1.9,16.5s-6.4-8-13.4-9.1c-0.4-0.1-0.8-0.1-1.2-0.1c-0.1,0-0.3,0-0.4,0
		c-7.6,0-23.6,5.9-23.6,5.9s-10.9-17.7-4.2-22.7c6.7-5.1,10.9-30.3,10.9-30.3s-0.3-10.8,2.5-20.5c2.1-7.2,5.8-13.8,12.6-14.9
		c16-2.5,16-11.8,26.1-1.7c0.8,0.8,1.7,1.6,2.5,2.4C157.1,270.8,166.7,276.1,162.8,280L162.8,280z"/>
	<rect x="60.3" y="393" class="st0" width="8" height="158"/>
	<rect x="158.3" y="326" class="st7" width="53" height="53"/>
	<g>
		<polygon class="st2" points="127.8,382.4 149.3,368.6 158.1,373.9 127.8,408.8 		"/>
		<path class="st1" d="M98.3,329.3c0,0-14.3,3.4-7.6,22.7s28.6,59.8,35.4,57.3s7.6-27.8,7.6-27.8s-0.8,0.8-4.2-2.5
			c-3.4-3.4-3.4-1.8-3.4-5.5s-2.8-6.5-2.8-6.5l-3.1-6.5c0,0,0-30.3-12.6-32C94.9,326.8,98.3,329.3,98.3,329.3z"/>
		
			<ellipse transform="matrix(0.7071 -0.7071 0.7071 0.7071 -212.7987 219.8111)" class="st2" cx="158.9" cy="366.8" rx="14.3" ry="8.8"/>
	</g>
	<rect x="36.3" y="387" class="st0" width="242" height="18"/>
</g>
<path class="st0" d="M488.5,243h35.7c2.8,0,5.1,2.3,5.1,5.1v14.7c0,2.8-2.3,5.1-5.1,5.1h-35.7c-2.8,0-5.1-2.3-5.1-5.1v-14.7
	C483.3,245.3,485.6,243,488.5,243z"/>
<path class="st7" d="M563.5,257.7h35.7c2.8,0,5.1,2.3,5.1,5.1v0c0,2.8-2.3,5.1-5.1,5.1h-35.7c-2.8,0-5.1-2.3-5.1-5.1v0
	C558.3,260,560.6,257.7,563.5,257.7z"/>
</svg>
