<?xml version="1.0" encoding="utf-8"?>
<!-- Generator: Adobe Illustrator 23.0.1, SVG Export Plug-In . SVG Version: 6.00 Build 0)  -->
<svg version="1.1" id="Calque_1" xmlns="http://www.w3.org/2000/svg" xmlns:xlink="http://www.w3.org/1999/xlink" x="0px" y="0px"
	 viewBox="0 0 524.7 627.6" style="enable-background:new 0 0 524.7 627.6;" xml:space="preserve">
<style type="text/css">
	.st0{fill:#2F2E41;}
	.st1{fill:#A0616A;}
	.st2{opacity:0.1;enable-background:new    ;}
	.st3{fill:#FF0000;}
	.st4{fill:#6C63FF;}
	.st5{fill:#3F3D56;}
	.st6{fill:#FFFFFF;}
	.st7{fill:#E6E6E6;}
</style>
<path class="st0" d="M420.8,216.8H369v-17c0-28.6,23.2-51.8,51.8-51.8h0L420.8,216.8L420.8,216.8L420.8,216.8z"/>
<polygon class="st1" points="409.3,185 418.2,225.1 366.1,216.4 387.3,178.5 "/>
<polygon class="st2" points="409.3,185 418.2,225.1 366.1,216.4 387.3,178.5 "/>
<rect x="359.3" y="270.5" class="st1" width="50" height="74"/>
<path class="st0" d="M441.8,405l-11,59c0,0,7,41-14,83l-14,43l-21-3c0,0,13-32,13-46s3-68,3-68l-1.5-61.6L441.8,405z"/>
<path class="st0" d="M378.8,586c0,0,24-9,26,4l-1,6c0,0,9,27-4,29s-25,5-26-1s-1-13.5,1.5-18.7C377.8,600,378.8,586,378.8,586z"/>
<g>
	<path class="st0" d="M366.1,395.9l-5.8,59.7c0,0-18.1,37.4-9.6,83.6l1.5,45.2l21,3c0,0-3.6-34.4,0.3-47.8s16-66.2,16-66.2
		l18.6-58.8L366.1,395.9L366.1,395.9z"/>
	<path class="st0" d="M376.3,587.3c0,0-20.6-15.3-26.1-3.4l-0.7,6c0,0-16.2,23.4-4.2,29c11.9,5.5,22.6,11.8,25.3,6.3
		c2.6-5.5,4.7-12.7,3.8-18.4C373.4,601,376.3,587.3,376.3,587.3z"/>
</g>
<path class="st0" d="M429.8,310.5c23.5,21.9,25.3,56.7,11.5,98c0,0-44,30-76-8l-16-77L429.8,310.5z"/>
<path class="st3" d="M390.3,203.5l25,4l-2,63l28,56l-36,18c0,0-28-53-33-86s-2-57-2-57L390.3,203.5z"/>
<path class="st3" d="M371.3,205.5l-25,4l2,63l-6,58l14,16c0,0,28-53,33-86s2-57,2-57L371.3,205.5z"/>
<path class="st3" d="M401.3,207l5.5-1.5c0,0,19.5-2.5,22.5,5.5s2,55,2,55s5.2,57.7-14.9,58.3c-20.1,0.7-16.1-47.3-16.1-47.3
	L401.3,207z"/>
<circle class="st1" cx="400.6" cy="170.1" r="25.9"/>
<path class="st4" d="M368.3,209l-5.5-1.5c0,0-19.5-2.5-22.5,5.5s-2,55-2,55s-5.2,57.7,14.9,58.3s16.1-47.3,16.1-47.3L368.3,209z"/>
<path class="st1" d="M385.7,205.8c-5.6-1.4-11.8,4.5-14.1,13.2c-0.9,3.5-1,7.1-0.3,10.6l-2.4,9.9l-0.2,0L350,283.9
	c-4.4,10.3-3.9,22.1,1.7,31.9c3.3,5.8,7.7,9.7,12.8,5.7c8.5-6.6,14-44.2,16.6-65.9l5.9-22c2.4-2.7,4-6,4.9-9.5
	C393.9,215.4,391.2,207.2,385.7,205.8L385.7,205.8z"/>
<path class="st0" d="M351.1,191.1c1.3-4,3.9-7.5,5.1-11.6c1.5-5.4,4.8,6.6,5.2,1c0.6-10.6,16.8-37.9,26.1-43.2
	c9.3-5.2,14.6-3.7,24,1.3c0,0,4.6,0.3,10.3,3.1c5.7,2.8,10.8,7.3,13,13.3c1.8,4.7,1.6,9.9,2.1,14.9c1.6,13.9,9.4,27.2,7.8,41.1
	c-0.5,4.3-2.2,8.8-5.7,11.4c-3.6,2.6-9.3,2.3-11.6-1.4c-0.8-1.3-1.1-2.8-1.8-4.1c-0.7-1.3-1.9-2.6-3.4-2.5c-2.2,0.1-3.4,3.1-2.5,5.1
	s3,3.3,4.9,4.4c-4.6,2.1-10.4,1.4-14.5-1.6c-4.1-3.1-6.3-8.4-5.5-13.5c1.1-7.1,11.4-5.6,12.6-12.7c0.9-5.2,4-13.8,3.2-18.9
	c-0.8-5.2-4.9,1.1-0.6-1.9c-4.7,2.3-14.8-13.3-19.8-15.1c-4.9-1.7-9.1-5.5-11.4-10.3c-5.2,7.6-9.9,5.5-11.7,14.6s-0.1,29.6,7.6,34.7
	c-3.1,2.1-5.6,5.1-7,8.6c-0.8,2-1.4,4.1-2.7,5.7c-2.6,3.1-7.4,3.3-11.3,2c-4.8-1.6-8.8-5.2-11.1-9.7
	C349.9,201.2,349.5,195.8,351.1,191.1L351.1,191.1z"/>
<path class="st5" d="M0,626.1c0,0.7,0.5,1.2,1.2,1.2h522.3c0.7,0,1.2-0.5,1.2-1.2c0-0.7-0.5-1.2-1.2-1.2H1.2
	C0.5,624.9,0,625.5,0,626.1z"/>
<path class="st6" d="M340,1H134.4C111,1,92.1,19.9,92.1,43.2v540.4c0,23.3,18.9,42.2,42.2,42.2H340c23.3,0,42.2-18.9,42.2-42.2V43.2
	C382.3,19.9,363.4,1,340,1z"/>
<path class="st5" d="M340,626.9H134.4c-23.8,0-43.2-19.4-43.2-43.2V43.2C91.1,19.4,110.5,0,134.4,0H340c23.8,0,43.2,19.4,43.2,43.2
	v540.4C383.3,607.5,363.9,626.9,340,626.9L340,626.9z M134.4,2c-22.7,0-41.2,18.5-41.2,41.2v540.4c0,22.7,18.5,41.2,41.2,41.2H340
	c22.7,0,41.2-18.5,41.2-41.2V43.2C381.3,20.5,362.8,2,340,2H134.4z"/>
<path class="st5" d="M75.1,94.6c-1.8,0-3.3,1.5-3.3,3.3V124c0,1.8,1.5,3.3,3.3,3.3s3.3-1.5,3.3-3.3V97.8
	C78.4,96,76.9,94.6,75.1,94.6z"/>
<path class="st7" d="M354.9,87.5h-82.7c-3.5,0-6.4-2.9-6.4-6.4s2.9-6.4,6.4-6.4h82.7c3.5,0,6.4,2.9,6.4,6.4S358.4,87.5,354.9,87.5
	L354.9,87.5z"/>
<path class="st3" d="M277.4,137.5H197c-2,0-3.7-1.6-3.7-3.7s1.6-3.7,3.7-3.7h80.4c2,0,3.7,1.6,3.7,3.7S279.4,137.5,277.4,137.5
	L277.4,137.5z"/>
<ellipse class="st3" cx="78.3" cy="92.1" rx="64.9" ry="63.5"/>
<path class="st6" d="M100.3,60c-8.6,15.7-17.3,31.5-25.9,47.2c-5.5-9.7-11-19.5-16.5-29.2c-1.9-3.4-7.1-0.3-5.2,3
	c6.4,11.3,12.7,22.6,19.1,33.8c1.1,1.9,4.1,2,5.2,0c9.5-17.3,19-34.6,28.5-51.8C107.4,59.7,102.2,56.6,100.3,60z"/>
<path class="st7" d="M117.9,14.7h45.9c0.2,0,0.3,0.1,0.3,0.3v5.3c0,0.2-0.1,0.3-0.3,0.3h-45.9c-0.2,0-0.3-0.1-0.3-0.3V15
	C117.6,14.8,117.8,14.7,117.9,14.7z"/>
<circle class="st7" cx="318.3" cy="15.9" r="4.8"/>
<circle class="st7" cx="331.5" cy="15.9" r="4.8"/>
<circle class="st7" cx="344.6" cy="15.9" r="4.8"/>
<path class="st5" d="M133.9,157.1c0,0.7,0.5,1.2,1.2,1.2h204.3c0.7,0,1.2-0.5,1.2-1.2c0-0.7-0.5-1.2-1.2-1.2H135.1
	C134.4,155.9,133.9,156.5,133.9,157.1z"/>
<g>
	<path class="st3" d="M319.8,250.7H197.2c-2,0-3.7-1.6-3.7-3.7s1.6-3.7,3.7-3.7h122.6c2,0,3.7,1.6,3.7,3.7S321.8,250.7,319.8,250.7z
		"/>
	<path class="st3" d="M319.8,303.7H197.2c-2,0-3.7-1.6-3.7-3.7s1.6-3.7,3.7-3.7h122.6c2,0,3.7,1.6,3.7,3.7S321.8,303.7,319.8,303.7
		L319.8,303.7z"/>
	<path class="st3" d="M319.8,356.7H197.2c-2,0-3.7-1.6-3.7-3.7s1.6-3.7,3.7-3.7h122.6c2,0,3.7,1.6,3.7,3.7S321.8,356.7,319.8,356.7
		L319.8,356.7z"/>
	<circle class="st3" cx="160" cy="246.5" r="9"/>
	<path class="st3" d="M159,261.5v-2c7.4,0,13.5-6.1,13.5-13.5s-6.1-13.5-13.5-13.5v-2c8.5,0,15.5,7,15.5,15.5S167.5,261.5,159,261.5
		z"/>
	<circle class="st3" cx="160" cy="299.5" r="9"/>
	<path class="st3" d="M159,314.5v-2c7.4,0,13.5-6.1,13.5-13.5c0-7.4-6.1-13.5-13.5-13.5v-2c8.5,0,15.5,7,15.5,15.5
		S167.5,314.5,159,314.5z"/>
	<circle class="st3" cx="160" cy="352.5" r="9"/>
	<path class="st3" d="M159,367.5v-2c7.4,0,13.5-6.1,13.5-13.5s-6.1-13.5-13.5-13.5v-2c8.5,0,15.5,7,15.5,15.5S167.5,367.5,159,367.5
		z"/>
</g>
<path class="st1" d="M384,203.8c5.6-1.4,11.8,4.5,14.1,13.2c0.9,3.5,1,7.1,0.3,10.6l2.4,9.9l0.2,0l18.8,44.3
	c4.4,10.3,3.9,22.1-1.7,31.9c-3.3,5.8-7.7,9.7-12.8,5.7c-8.5-6.6-14-44.2-16.6-65.9l-5.9-22c-2.4-2.7-4-6-4.9-9.5
	C375.8,213.4,378.5,205.2,384,203.8L384,203.8z"/>
<polygon class="st3" points="405.4,228.1 384.3,243 394.9,309.3 408.1,326.4 423.4,321.1 427.9,289.7 422.6,259.4 "/>
</svg>
