<?xml version="1.0" encoding="utf-8"?>
<!-- Generator: Adobe Illustrator 23.0.1, SVG Export Plug-In . SVG Version: 6.00 Build 0)  -->
<svg version="1.1" id="Calque_1" xmlns="http://www.w3.org/2000/svg" xmlns:xlink="http://www.w3.org/1999/xlink" x="0px" y="0px"
	 viewBox="0 0 500 500" style="enable-background:new 0 0 500 500;" xml:space="preserve">
<style type="text/css">
	.st0{fill:#E0E0E0;}
	.st1{fill:#FAFAFA;}
	.st2{fill:#F5F5F5;}
	.st3{fill:#FFFFFF;}
	.st4{fill:#EBEBEB;}
	.st5{fill:#263238;}
	.st6{fill:#455A64;}
	.st7{fill:#FF0000;}
	.st8{opacity:0.5;}
	.st9{fill:#FFBF9D;}
	.st10{fill:#FF9A6C;}
	.st11{opacity:0.3;}
	.st12{opacity:0.2;}
</style>
<g id="freepik--background-complete--inject-4">
	<path class="st0" d="M47.3,354.1c-5.3-3.3-11.2-5.4-17.4-6c-2.8-0.3-5.9-0.2-8.2,1.5c-0.5,0.3-0.9,0.9-0.8,1.5
		c0.1,0.4,0.4,0.8,0.8,1C28.8,357.5,39.5,358.2,47.3,354.1"/>
	<path class="st0" d="M46.9,353.6c-4-3-7.8-6.3-11.2-9.9c-3.4-3.6-5.9-8.1-7-13c-0.3-1.5-0.4-3.2,0.5-4.4
		C38.2,333.4,45.2,342.4,46.9,353.6"/>
	<path class="st0" d="M47.3,354c-0.8-4.9-0.8-9.9,0.2-14.7c1.1-4.8,3.7-9.4,7.8-12.2c1.5,3.6,0.9,7.8-0.2,11.5
		c-1.7,5.9-4.3,11.4-7.8,16.4"/>
	<path class="st0" d="M56,369.8c-5.3,0.6-10,3.5-13.9,7c-4,3.6-6.8,8.4-8,13.7c5.2-0.3,9.6-4,12.9-8.1S52.4,373.7,56,369.8"/>
	<path class="st0" d="M57.9,372.3c-4.3-10.8-2.7-23.1,4-32.5C64.9,350.5,63.9,362.7,57.9,372.3"/>
	<path class="st0" d="M69.5,386.1c-9.9-0.6-19.3,4.8-23.8,13.7c-0.3,0.6-0.6,1.3-0.2,1.9c0.4,0.4,1,0.6,1.6,0.5
		c4.7-0.3,8.8-3.1,12.3-6.3s6.4-6.9,10.2-9.7"/>
	<path class="st0" d="M69.2,385.3c-2.5-8-2.6-16.6-0.4-24.7c0.9-3.2,2.3-6.5,5.3-8c0.2-0.2,0.5-0.2,0.8-0.1c0.2,0.1,0.4,0.3,0.5,0.6
		c1,2.2,1.4,4.7,1.2,7.1c-0.2,2.4-0.5,4.8-1.1,7.2c-0.9,4.4-1.4,9.1-3.8,12.9c-0.6,0.9-1.1,1.8-1.5,2.8c-0.4,1-0.5,1.3-0.9,2.1"/>
	<path class="st0" d="M99.8,389.9c-2.3-8.6,0.1-19.1,5.6-26.2c0.4-0.5,0.9-1.1,1.6-1c1,0.1,1.3,1.4,1.2,2.4
		C107.8,374,104.9,382.6,99.8,389.9"/>
	<path class="st0" d="M102.6,391.8c10.5,2.7,22.6,0.1,31.3-6.4c-5.2-2.6-11.2-3.4-16.9-2.1C111.3,384.6,106.2,387.2,102.6,391.8"/>
	<path class="st0" d="M105,386c5.9-9.6,17.2-15.9,28.4-16.4c-1.3,4.6-5.1,8.1-9.3,10.3s-9,3.1-13.6,4
		C108.7,384.2,106.2,384.6,105,386"/>
	<path class="st0" d="M100.4,358.1c1.6-5.5,3.2-11,3.6-16.6s-0.4-11.6-3.3-16.5c-5.5,10.6-6.1,23.1-0.5,33.7"/>
	<path class="st0" d="M119,348.7c6.4-11.7,19.5-21,32.8-22.3C146.7,339.1,132.7,349,119,348.7"/>
	<path class="st0" d="M114.9,351c9.6,1.5,17.8,7.6,26.7,11.3c1.9,0.9,3.9,1.3,6,1.1c2.6,0,4.7-2.2,4.7-4.8c0-1.4-0.6-2.7-1.7-3.6
		c-1.3-1.2-2.8-2.1-4.4-2.7c-9.8-4.1-20.2-4.2-30.5-1.7"/>
	<path class="st0" d="M109.3,357.7c2.2,0.6,2.9,1.7,4.6,3.2c5.9,5,12.8,8.5,20.3,10.4c0.8,0.2,1.8,0.3,2.2-0.4s-0.1-1.4-0.5-1.9
		c-3.3-3.8-7.5-6.7-12.2-8.3c-4.7-1.7-8.7-3.8-14.3-3.4"/>
	<path class="st0" d="M103.1,317.1c8,7.3,18.6,11,29.4,10c0.5,0,1-0.2,1.3-0.5c0.7-0.8-0.1-2-1-2.7
		C124.2,317.2,113.7,314.4,103.1,317.1"/>
	<path class="st0" d="M110.5,314.4c10.6-7.8,24.2-10,36.7-6c-4.6,4.5-11,7-17.5,7.7C123.3,316.6,116.8,316.1,110.5,314.4"/>
	<path class="st0" d="M107.6,295.8c-0.8-8.6-0.3-15.4-0.9-24.1c0-0.7-0.2-1.5-0.8-1.8c-0.9-0.4-1.7,0.8-1.9,1.7
		c-2.5,8.1-1.2,17,3.7,24"/>
	<path class="st0" d="M107,296.7c5.8-3.6,10.2-8.3,14.3-13.9c2.8-3.9,5.2-8.5,4.6-13.2c-4-0.1-7.7,2.1-10.3,5.1
		c-2.5,3.1-4.3,6.7-5.3,10.6C109.1,289.1,108.3,293,107,296.7"/>
	<path class="st0" d="M121,292.8c12.9-4.8,24.8-11.8,35.2-20.7c-4.2-1.7-9-0.7-13.2,1c-9.6,3.9-17.4,10.4-22.1,19.6"/>
	<path class="st0" d="M110.9,301.4c6.5,0.7,13.1,1.2,19.5,0.1s12.3-3.6,18.2-6c0.5-0.1,1-0.5,1.2-0.9c0.2-0.6,0-1.2-0.4-1.6
		c-0.5-0.4-1-0.6-1.6-0.7c-6.4-1.8-13.4-1-19.7,1.2C122.2,295.5,116.4,298.1,110.9,301.4"/>
	<path class="st0" d="M73.8,317.4c-4.4-8.9-4.1-19.4-0.3-28.6c2.7,4.1,3,9.3,2.5,14.2s-2,9.9-2.1,14.8"/>
	<path class="st0" d="M56.1,308.5c-11.2-0.1-22,4.4-29.6,12.6c5.5,0.9,11.2-0.6,16.2-3s9.5-5.9,13.9-9.3"/>
	<path class="st0" d="M44.2,304.5c-5.4-0.4-10.6-1.1-15.8,0.5s-9.9,5.2-12.1,10.2c5.1,0.4,10.2-0.5,14.8-2.8
		C35.8,310.2,40.1,307.5,44.2,304.5"/>
	<path class="st0" d="M61.8,304.7c-4.9-3.2-9.9-6.4-15.5-7.8s-12.2-0.3-16.2,3.9c4.6,2.7,10.2,3,15.5,3s11.8-0.1,16.8,1.7"/>
	<path class="st0" d="M61.9,305c-8.3-8.2-11.5-22.9-8.1-34C60.3,281.1,63.2,293.1,61.9,305"/>
	<path class="st0" d="M84.8,281.8c1.6-3.6,2.7-7.5,4.1-11.2c1.3-3.8,3.2-7.3,5.8-10.3c2.6-3.1,6.3-5,10.3-5.3
		c-2.6,11.4-9.9,21.1-20,26.9"/>
	<path class="st0" d="M80.6,286.6c-2.6-3.6-5.6-8.4-9.1-11.1s-8.1-4.3-12.4-3.3C63.6,280.2,71.6,285.5,80.6,286.6"/>
	<path class="st0" d="M81.4,282.1c-1.9-4.3-3.2-8.7-4.1-13.3c-0.7-4.6-0.3-9.5,2.1-13.5c4.6,8.6,6,17.9,2.3,26.9"/>
	<path class="st0" d="M84.8,255.3c2.6-8.6,10.4-14.9,18.9-17.8c1-0.4,2.2-0.6,3.3-0.5c1.1,0.1,2.1,0.9,2.4,2c0.3,1.4-0.9,2.8-2,3.7
		C100.8,248.4,93.1,252.7,84.8,255.3"/>
	<path class="st0" d="M84.9,248.3c0.3-5.5,0.7-11.1,2.5-16.4s5.3-10.1,10.3-12.4c0.9,5.6-1.6,11.1-4.6,15.9s-6.5,9.3-8.3,14.7"/>
	<path class="st0" d="M84.8,252.1c-2.1-6.2-2.4-14.1-6.1-19.6c-2.6-3.8-6.8-6.4-9-10.4c-1.4,3.9-1.2,8.1,0.5,11.8
		c1.7,3.7,4,7,6.9,9.9C79.9,246.8,82.2,249,84.8,252.1"/>
	<path class="st0" d="M84.8,435.8c-0.2,0-0.3-41.6-0.3-92.9s0.1-92.9,0.3-92.9s0.3,41.6,0.3,92.9S85,435.8,84.8,435.8z"/>
	<path class="st0" d="M121.2,311.1c-0.5,0.2-1,0.4-1.6,0.6l-4.3,1.5c-3.6,1.2-8.6,3-14,5.3s-10.4,4.2-13.3,6.6
		c-1.1,1-2.1,2.2-2.7,3.5c-0.4,1-0.5,1.6-0.5,1.6s0-0.1,0-0.4c0.1-0.4,0.2-0.8,0.3-1.2c0.5-1.5,1.4-2.7,2.6-3.8
		c1.7-1.5,3.7-2.7,5.8-3.6c2.3-1.1,4.9-2.2,7.6-3.3c5.4-2.2,10.4-4,14.1-5.1c1.8-0.6,3.3-1,4.4-1.3
		C120.1,311.3,120.6,311.2,121.2,311.1z"/>
	<path class="st0" d="M133.1,281.9c0,0-0.1,0.2-0.4,0.5l-1.3,1.3l-5,4.5l-16.6,14.8c-6.5,5.8-12.1,11.3-16,15.4
		c-1.9,2.1-3.5,3.8-4.5,5l-1.2,1.4c-0.3,0.3-0.4,0.5-0.4,0.5c0.1-0.2,0.2-0.4,0.3-0.5c0.3-0.3,0.6-0.8,1.1-1.5c1-1.3,2.5-3,4.4-5.1
		c5-5.5,10.3-10.7,15.9-15.6c6.5-5.8,12.4-10.9,16.7-14.6l5.1-4.4l1.4-1.2C132.7,282.1,132.9,282,133.1,281.9z"/>
	<path class="st0" d="M102.7,308.8c-0.2-0.1,1.2-3.2,2.5-7.1s2-7.3,2.2-7.3s-0.2,3.4-1.6,7.4c-0.6,1.7-1.2,3.4-2,5
		C103.6,307.5,103.2,308.2,102.7,308.8z"/>
	<path class="st0" d="M84.8,333.9c-0.4-0.3-0.7-0.7-1-1.2l-2.6-3.3c-2.1-2.8-5.1-6.6-8.4-10.8s-6.4-8-8.6-10.7l-2.6-3.2
		c-0.3-0.4-0.6-0.8-0.9-1.2c0.4,0.3,0.8,0.7,1.1,1.1c0.7,0.7,1.6,1.8,2.8,3.1c2.3,2.6,5.4,6.4,8.8,10.6s6.3,8.1,8.3,10.9
		c1,1.4,1.9,2.6,2.4,3.4C84.3,333,84.6,333.5,84.8,333.9z"/>
	<path class="st0" d="M76.9,323.7c-1.6-1.8-2.8-3.9-3.3-6.3c-0.6-2-0.9-4.2-0.8-6.3H73c-0.1,0.5-0.2,0.7-0.3,0.7s0-0.3,0-0.8h0.3
		c0.1,2.1,0.5,4.1,1.1,6.1C75.2,321,77,323.6,76.9,323.7z"/>
	<path class="st0" d="M66.6,310.8c-0.7-0.6-1.5-1-2.3-1.4c-2.1-0.6-4.3-0.8-6.5-0.5c-2.2,0.2-4.4,0.5-6.5,1
		c-0.9,0.3-1.8,0.5-2.7,0.6c0.8-0.5,1.7-0.8,2.6-1.1c2.1-0.7,4.3-1.1,6.6-1.2c2.3-0.3,4.5,0,6.7,0.7
		C65.3,309.3,66.1,309.9,66.6,310.8z"/>
	<path class="st0" d="M64.1,307.6c0,0.1-1.3-0.5-3.6-1.3c-2.9-1-5.9-1.6-8.9-1.8c-3-0.2-6.1-0.1-9.1,0.5c-2.3,0.4-3.7,0.8-3.7,0.8
		c0.3-0.2,0.6-0.3,1-0.4c0.9-0.3,1.8-0.6,2.7-0.8c6.1-1.3,12.4-0.8,18.2,1.4c0.9,0.3,1.7,0.7,2.5,1.2
		C63.6,307.2,63.9,307.4,64.1,307.6z"/>
	<path class="st0" d="M84.8,294.4c-0.2,0-1.3-4-2.6-9s-2.2-9.2-2-9.2s1.3,4,2.6,9S84.9,294.3,84.8,294.4z"/>
	<path class="st0" d="M84.9,294.4c-0.2,0.1-0.9-2.6-2.9-5.4c-1.2-1.6-2.7-3.1-4.3-4.4c0.6,0.2,1.2,0.4,1.6,0.9
		c1.2,0.9,2.3,2,3.1,3.2C84.6,291.5,85.1,294.3,84.9,294.4z"/>
	<path class="st0" d="M84.8,413.6c-0.1,0-0.2-1-0.7-2.8c-0.7-2.5-1.6-4.9-2.8-7.2c-2.9-5.9-8.1-13.3-14.8-20.8
		c-3.3-3.8-6.5-7.3-9.2-10.7c-2.4-3-4.6-6.2-6.6-9.5c-1.3-2.3-2.4-4.6-3.3-7c-0.3-0.9-0.5-1.5-0.7-2c-0.1-0.2-0.1-0.5-0.2-0.7
		c0,0,0.4,1,1,2.6c1,2.4,2.1,4.7,3.5,6.9c2,3.3,4.2,6.4,6.6,9.4c2.7,3.4,5.9,6.9,9.2,10.7c6.7,7.5,11.9,15,14.7,21
		c1.1,2.3,2,4.8,2.6,7.3c0.2,0.9,0.3,1.6,0.4,2.1C84.8,413.1,84.8,413.3,84.8,413.6z"/>
	<path class="st0" d="M117.7,376.5c-0.6,0.4-1.1,0.7-1.7,1c-1.6,0.9-3.1,1.9-4.5,3c-2.1,1.6-4,3.4-5.9,5.4c-2.1,2.2-4.2,4.7-6.3,7.4
		c-4.3,5.4-8.4,10.2-10.8,14.1c-1.2,1.9-2.1,3.5-2.7,4.6c-0.3,0.6-0.6,1.2-1,1.7c0-0.2,0.1-0.3,0.2-0.5c0.1-0.3,0.3-0.8,0.6-1.4
		c0.8-1.7,1.6-3.3,2.6-4.8c2.3-3.9,6.4-8.8,10.7-14.2c2.2-2.7,4.3-5.3,6.4-7.4c1.8-1.9,3.9-3.7,6-5.3c1.5-1.1,3-2,4.6-2.8
		c0.6-0.3,1-0.5,1.3-0.6C117.3,376.6,117.5,376.5,117.7,376.5z"/>
	<path class="st0" d="M118.3,388.5c-1.2,0.3-2.4,0.4-3.6,0.5c-2.9,0.3-5.8,0.9-8.6,1.7c-2.8,0.9-5.4,2.3-7.7,4.1
		c-1.8,1.4-2.6,2.5-2.7,2.5c0.1-0.3,0.3-0.6,0.5-0.8c0.6-0.7,1.2-1.4,1.9-1.9c2.3-1.9,5-3.4,7.8-4.3c2.9-0.9,5.8-1.4,8.8-1.5
		C115.8,388.5,117.1,388.4,118.3,388.5z"/>
	<path class="st0" d="M96.7,395.9c-0.2-0.1,1.4-2.6,2.7-6s1.5-6.4,1.7-6.3c0.1,0.6,0.1,1.3-0.1,2c-0.2,1.6-0.5,3.1-1.1,4.6
		c-0.6,1.5-1.3,2.9-2.1,4.2C97.5,394.9,97.1,395.5,96.7,395.9z"/>
	<path class="st0" d="M128.3,344.2c-0.2,0.1-0.4,0.2-0.6,0.3l-1.7,0.8c-0.8,0.3-1.7,0.7-2.7,1.3s-2.2,1.1-3.5,1.8l-2,1.1
		c-0.7,0.4-1.4,0.9-2.1,1.3c-1.5,0.9-2.9,2-4.5,3.1c-3.3,2.5-6.5,5.3-9.4,8.3c-2.9,3-5.5,6.3-7.9,9.7c-1.1,1.6-2.1,3.1-2.9,4.6
		c-0.4,0.7-0.9,1.4-1.3,2.1s-0.7,1.4-1.1,2c-0.7,1.3-1.2,2.5-1.7,3.5s-0.9,2-1.2,2.7l-0.7,1.7c-0.1,0.2-0.2,0.4-0.3,0.6
		c0-0.2,0.1-0.4,0.2-0.6l0.6-1.8c0.3-0.8,0.6-1.7,1.1-2.8s1-2.3,1.6-3.6l1-2c0.4-0.7,0.8-1.4,1.2-2.2c0.8-1.5,1.9-3,2.9-4.7
		c4.7-7,10.6-13.1,17.4-18c1.6-1.1,3.1-2.2,4.6-3.1c0.7-0.5,1.4-0.9,2.1-1.3l2-1.1c1.3-0.7,2.5-1.3,3.5-1.8s2-0.9,2.7-1.2l1.8-0.7
		C127.9,344.3,128.1,344.2,128.3,344.2z"/>
	<path class="st0" d="M102.3,361.6c0.2-0.8,0.7-1.6,1.4-2.1c1.6-1.4,3.6-2.2,5.8-2.2c2.1,0,4.1,0.4,6.1,1.2c0.8,0.3,1.6,0.6,2.3,1.1
		c-0.8-0.2-1.6-0.4-2.4-0.7c-1.9-0.7-3.9-1-5.9-1c-2,0-3.9,0.7-5.5,1.9C103.4,360.3,102.8,360.9,102.3,361.6z"/>
	<path class="st0" d="M98.4,365.6c-0.2-0.1,1.3-2.2,1.6-5.3s-0.6-5.5-0.4-5.6c0.4,0.5,0.6,1,0.7,1.5c0.3,1.3,0.4,2.7,0.3,4.1
		c-0.2,1.4-0.6,2.7-1.2,3.9C98.9,365.2,98.5,365.6,98.4,365.6z"/>
	<path class="st0" d="M56.1,419.5c0.9,15.9,5.7,32.1,13.1,48.5h32c7-16.2,11.5-32.3,12.3-48.4L56.1,419.5z"/>
	<path class="st1" d="M108.3,445.3c0,0.2-10.6,0.3-23.6,0.3s-23.6-0.1-23.6-0.3s10.5-0.3,23.6-0.3S108.3,445.1,108.3,445.3z"/>
	<path class="st1" d="M107.5,451c0,0.2-9.9,0.3-22.1,0.3s-22.1-0.1-22.1-0.3s9.9-0.3,22.1-0.3S107.5,450.9,107.5,451z"/>
	<path class="st1" d="M69.6,430c0.2,0,0.3,3.3,0.3,7.4s-0.1,7.4-0.3,7.4s-0.3-3.3-0.3-7.4S69.5,430,69.6,430z"/>
	<path class="st1" d="M86.8,430c0.2,0,0.3,3.4,0.3,7.6s-0.1,7.6-0.3,7.6s-0.3-3.4-0.3-7.6S86.6,430,86.8,430z"/>
	<path class="st1" d="M102.9,429.9c0.4,5.2,0.4,10.4,0,15.6c-0.2,0-0.3-3.5-0.3-7.8S102.8,429.9,102.9,429.9z"/>
	<path class="st1" d="M112.4,430c0,0.2-12.4,0.3-27.6,0.3s-27.6-0.1-27.6-0.3s12.4-0.3,27.6-0.3S112.4,429.8,112.4,430z"/>
	<rect x="47.9" y="38.8" class="st0" width="79.8" height="83.1"/>
	<rect x="42.5" y="38.8" class="st2" width="79.8" height="83.1"/>
	<path class="st0" d="M122.3,122H42.5V38.8h79.8L122.3,122z M42.5,122h79.7V38.9H42.5V122z"/>
	<rect x="53.2" y="50" class="st3" width="58.3" height="60.8"/>
	<path class="st0" d="M53.2,111.2c-0.4,0.6-0.9,1.2-1.4,1.7c-0.9,1-2.2,2.3-3.7,3.8s-2.8,2.7-3.8,3.7c-0.5,0.5-1.1,1-1.7,1.4
		c0.4-0.6,0.9-1.2,1.4-1.7c0.9-1,2.2-2.3,3.7-3.8s2.8-2.7,3.8-3.7C52,112.1,52.6,111.6,53.2,111.2z"/>
	<path class="st0" d="M111.6,111c0.6,0.4,1.2,0.9,1.7,1.4c1,0.9,2.3,2.2,3.8,3.7s2.7,2.8,3.6,3.8c0.5,0.5,1,1.1,1.4,1.7
		c-0.6-0.4-1.2-0.9-1.7-1.4c-1-0.9-2.3-2.2-3.8-3.7s-2.7-2.8-3.7-3.8C112.4,112.2,111.9,111.6,111.6,111z"/>
	<path class="st0" d="M111.4,50.2c0.4-0.6,0.9-1.2,1.4-1.7c0.9-1,2.2-2.3,3.7-3.8s2.8-2.7,3.8-3.7c0.5-0.5,1.1-1,1.7-1.4
		c-0.4,0.6-0.9,1.2-1.4,1.7c-0.9,1-2.2,2.3-3.7,3.8s-2.8,2.7-3.8,3.7C112.6,49.3,112,49.8,111.4,50.2z"/>
	<path class="st0" d="M53.1,50.3c-0.6-0.4-1.2-0.9-1.7-1.4c-1-0.9-2.3-2.2-3.8-3.7s-2.7-2.8-3.7-3.8c-0.5-0.5-1-1.1-1.4-1.7
		c0.6,0.4,1.2,0.9,1.7,1.4c1,0.9,2.3,2.2,3.8,3.7s2.7,2.8,3.7,3.8C52.2,49.1,52.7,49.7,53.1,50.3z"/>
	<path class="st0" d="M111.4,110.8c0-0.1,0-0.2,0-0.3c0-0.2,0-0.5,0-0.8c0-0.8,0-1.9,0-3.3c0-2.9,0-7.1-0.1-12.4
		c0-10.6-0.1-25.8-0.1-44l0.2,0.2H53.3l0,0l0.2-0.2c0,22.3,0,43.2,0,60.8l-0.2-0.2l42.1,0.1h11.8h3.1h0.8h0.3h-1h-3.1H95.6L53.2,111
		H53v-0.2c0-17.6,0-38.5,0-60.8v-0.3h0.3h58.2h0.2V50c0,18.2-0.1,33.4-0.1,44.1c0,5.3,0,9.5-0.1,12.3c0,1.4,0,2.5,0,3.2
		c0,0.3,0,0.6,0,0.8S111.4,110.8,111.4,110.8z"/>
	<rect x="72.7" y="70.7" class="st4" width="19.5" height="19.5"/>
	<rect x="396.2" y="38.8" class="st0" width="79.8" height="83.1"/>
	<rect x="390.8" y="38.8" class="st2" width="79.8" height="83.1"/>
	<path class="st0" d="M470.6,122h-79.8V38.8h79.8V122z M390.8,122h79.7V38.8h-79.7V122z"/>
	<rect x="401.5" y="50" class="st3" width="58.3" height="60.8"/>
	<path class="st0" d="M401.5,111.2c-0.4,0.6-0.9,1.2-1.4,1.7c-0.9,1-2.2,2.3-3.7,3.8s-2.8,2.7-3.8,3.7c-0.5,0.5-1.1,1-1.7,1.4
		c0.4-0.6,0.9-1.2,1.4-1.7c0.9-1,2.2-2.3,3.7-3.8s2.8-2.7,3.8-3.7C400.3,112,400.9,111.6,401.5,111.2z"/>
	<path class="st0" d="M459.8,111c0.6,0.4,1.2,0.9,1.7,1.4c1,0.9,2.3,2.2,3.8,3.7s2.7,2.8,3.6,3.8c0.5,0.5,1,1.1,1.4,1.7
		c-0.6-0.4-1.2-0.9-1.7-1.4c-1-0.9-2.3-2.2-3.8-3.7s-2.7-2.8-3.6-3.8C460.7,112.2,460.2,111.6,459.8,111z"/>
	<path class="st0" d="M459.7,50.1c0.4-0.6,0.9-1.2,1.4-1.7c0.9-1,2.2-2.3,3.7-3.8s2.8-2.7,3.8-3.7c0.5-0.5,1.1-1,1.7-1.4
		c-0.4,0.6-0.9,1.2-1.4,1.7c-0.9,1-2.2,2.3-3.7,3.8s-2.8,2.7-3.8,3.7C460.8,49.3,460.3,49.8,459.7,50.1z"/>
	<path class="st0" d="M401.4,50.3c-0.6-0.4-1.2-0.9-1.7-1.4c-1-0.9-2.3-2.2-3.8-3.7s-2.7-2.8-3.6-3.8c-0.5-0.5-1-1.1-1.4-1.7
		c0.6,0.4,1.2,0.9,1.7,1.4c1,0.9,2.3,2.2,3.8,3.7s2.7,2.8,3.7,3.8C400.5,49.1,401,49.7,401.4,50.3z"/>
	<path class="st0" d="M459.7,110.8c0,0,0-0.1,0-0.3s0-0.5,0-0.8c0-0.8,0-1.8,0-3.3c0-2.9,0-7.1-0.1-12.4c0-10.7-0.1-25.8-0.1-44
		l0.2,0.2h-58.1l0,0l0.3-0.3c0,22.3,0,43.2,0,60.8l-0.2-0.2l42.1,0.1l11.8,0.1h3.1h0.8h-0.8h-3.1l-11.8,0.1l-42.3,0.1h-0.2v-0.2
		c0-17.6,0-38.5,0-60.8v-0.3h0.3h58.1h0.2V50c0,18.2-0.1,33.4-0.1,44.1c0,5.3,0,9.5-0.1,12.3c0,1.4,0,2.5,0,3.2c0,0.4,0,0.6,0,0.8
		C459.8,110.6,459.7,110.7,459.7,110.8z"/>
	<rect x="420.9" y="70.6" class="st4" width="19.5" height="19.5"/>
</g>
<g id="freepik--Floor--inject-4">
	<path class="st5" d="M477.9,468c0,0.1-100.7,0.3-224.9,0.3S28.1,468.1,28.1,468s100.7-0.3,224.9-0.3S477.9,467.8,477.9,468z"/>
</g>
<g id="freepik--screen-2--inject-4">
	<path class="st1" d="M195.3,27.7h140.6c11,0,20,8.9,20,20v343.1c0,11-8.9,20-20,20H195.3c-11,0-20-8.9-20-20V47.6
		C175.3,36.6,184.2,27.7,195.3,27.7z"/>
	<path class="st5" d="M335.9,410.6l0.7,0c0.7,0,1.4-0.1,2.1-0.2c2.7-0.4,5.4-1.3,7.7-2.8c3.8-2.4,6.7-6,8.2-10.3
		c0.2-0.6,0.4-1.3,0.6-1.9c0.2-0.7,0.3-1.4,0.4-2.1c0.2-1.5,0.2-3,0.2-4.4c0-3.1,0-6.3,0-9.8c0-27.6,0-67.7-0.1-117.1
		s0-108.3,0-173.7c0-8.2,0-16.4,0-24.8V50.9c0.1-2.1,0-4.2-0.3-6.3c-0.3-2.1-1-4.1-1.9-6c-2-3.8-5.1-6.9-9-8.7c-1.9-1-4-1.6-6.1-1.8
		c-2.2-0.2-4.3-0.2-6.5-0.2H195.3c-4.7,0-9.2,1.7-12.8,4.7c-3.6,3-5.9,7.2-6.7,11.8c-0.3,2.3-0.4,4.6-0.3,6.9v75
		c0,35.6,0,69.9,0,102.6s0,63.7,0,92.8c0,14.5,0,28.6,0,42.1c0,6.8,0,13.4,0,19.8v4.8c0,1.6,0,3.2,0.2,4.7c0.4,3.1,1.5,6,3.3,8.6
		c1.7,2.5,4,4.6,6.6,6.1c2.6,1.5,5.5,2.3,8.4,2.5c1.4,0.1,2.9,0,4.4,0.1h12.8h31.4H293l31.8,0h8.3c1.9,0,2.8,0,2.8,0h-2.8h-8.3H293
		h-50.4h-31.4h-12.9c-1.5,0-2.9,0-4.4-0.1c-3-0.2-5.9-1-8.6-2.5c-2.7-1.5-5-3.6-6.8-6.2c-1.8-2.6-2.9-5.6-3.3-8.8
		c-0.2-1.6-0.2-3.2-0.2-4.8v-4.8c0-6.5,0-13.1,0-19.8c0-13.5,0-27.5,0-42.1c0-29.1,0-60.1,0-92.8s0-67,0-102.6c0-17.8,0-35.9,0-54.3
		V51.3c-0.1-2.3,0-4.7,0.3-7c0.8-4.7,3.2-9,6.8-12.1c3.7-3.1,8.3-4.8,13.1-4.8h136.4c2.2-0.1,4.4,0,6.6,0.2c2.2,0.3,4.3,0.9,6.3,1.9
		c4,1.9,7.2,5,9.2,8.9c1,1.9,1.7,4,2,6.1c0.3,2.1,0.3,4.3,0.3,6.4v37.4c0,65.4,0,124.2-0.1,173.7s-0.1,89.4-0.1,117.1
		c0,3.5,0,6.7,0,9.8c0,1.5,0,3-0.2,4.5c-0.1,0.7-0.2,1.4-0.4,2.1c-0.2,0.7-0.3,1.3-0.6,2c-1.5,4.3-4.4,7.9-8.3,10.3
		c-2.4,1.5-5,2.4-7.8,2.8c-0.7,0.1-1.4,0.2-2.1,0.2L335.9,410.6z"/>
	<path class="st4" d="M332.9,157.2H196.4c-11,0-20,9-20,20v212.1c0,11.5,9.3,20.8,20.8,20.8c0,0,0,0,0,0h135.6
		c11.5,0,20.8-9.3,20.8-20.8c0,0,0,0,0,0l-0.6-212.1C352.9,166.1,343.9,157.2,332.9,157.2z"/>
	<path class="st5" d="M196.8,55.4h-6c-0.4,0-0.7-0.3-0.7-0.7l0,0c0-0.4,0.3-0.7,0.7-0.7l0,0h6c0.4,0,0.7,0.3,0.7,0.7l0,0
		C197.6,55.1,197.2,55.4,196.8,55.4z"/>
	<path class="st5" d="M196.8,62.7h-6c-0.4,0-0.7-0.3-0.7-0.7c0,0,0,0,0,0l0,0c0-0.4,0.3-0.7,0.7-0.7h6c0.4,0,0.7,0.3,0.7,0.7l0,0
		C197.6,62.4,197.2,62.7,196.8,62.7z"/>
	<path class="st5" d="M199,59.2h-8.2c-0.4,0-0.7-0.3-0.7-0.7c0,0,0,0,0,0l0,0c0-0.4,0.3-0.7,0.7-0.7h8.2c0.4,0,0.7,0.3,0.7,0.7l0,0
		C199.7,58.9,199.4,59.2,199,59.2L199,59.2z"/>
	<path class="st5" d="M330,60.5c-2.6,0-4.8-2.1-4.8-4.8c0-2.6,2.1-4.8,4.8-4.8c2.6,0,4.8,2.1,4.8,4.8c0,1.4-0.6,2.8-1.8,3.7
		C332.2,60.1,331.1,60.5,330,60.5z M330,51.9c-2.1,0-3.8,1.7-3.8,3.8s1.7,3.8,3.8,3.8c2.1,0,3.8-1.7,3.8-3.8c0,0,0,0,0,0
		C333.8,53.6,332.1,51.9,330,51.9z"/>
	<path class="st5" d="M336,62.5c-0.1,0-0.2,0-0.3-0.1l-3.3-3c-0.2-0.2-0.2-0.5-0.1-0.7s0.5-0.2,0.7-0.1c0,0,0,0,0,0l3.3,3
		c0.2,0.2,0.2,0.5,0,0.7c0,0,0,0,0,0C336.2,62.4,336.1,62.5,336,62.5z"/>
	<path class="st5" d="M199.7,85.1v5.7h-1.3v-2.3h-2.6v2.3h-1.3v-5.7h1.3v2.3h2.6v-2.3H199.7z"/>
	<path class="st5" d="M205.3,89H202c0.1,0.6,0.7,0.9,1.3,0.9c0.4,0,0.8-0.1,1.1-0.4l0.7,0.7c-0.5,0.5-1.1,0.7-1.8,0.7
		c-1.3,0.1-2.4-0.8-2.5-2c0-0.1,0-0.1,0-0.2c0-1.2,0.9-2.3,2.2-2.3c0,0,0.1,0,0.1,0c1.2-0.1,2.2,0.9,2.3,2.1c0,0.1,0,0.2,0,0.2
		C205.3,88.7,205.3,88.8,205.3,89z M201.9,88.3h2.2c-0.1-0.6-0.6-1-1.2-0.9C202.4,87.4,202,87.8,201.9,88.3z"/>
	<path class="st5" d="M206.1,84.7h1.3v6h-1.3V84.7z"/>
	<path class="st5" d="M208.6,84.7h1.3v6h-1.3V84.7z"/>
	<path class="st5" d="M210.7,88.6c-0.1-1.3,0.9-2.5,2.3-2.6c1.3-0.1,2.5,0.9,2.6,2.3c0.1,1.3-0.9,2.5-2.3,2.6c0,0-0.1,0-0.1,0
		c-1.2,0.1-2.3-0.8-2.4-2.1C210.7,88.7,210.7,88.7,210.7,88.6z M214.3,88.6c0-0.6-0.6-1.1-1.2-1s-1.1,0.6-1,1.2c0,0.6,0.5,1,1.1,1
		c0.6,0,1.1-0.5,1.1-1.1C214.3,88.7,214.3,88.6,214.3,88.6z"/>
	<path class="st5" d="M216.2,90.1c0-0.4,0.4-0.7,0.9-0.7c0.4,0,0.7,0.3,0.7,0.7c0,0.4-0.4,0.7-0.9,0.7
		C216.5,90.8,216.3,90.5,216.2,90.1z M216.2,85.1h1.5l-0.3,3.7h-1L216.2,85.1z"/>
	<path class="st4" d="M304.8,66.1h-89.7c-5.2,0-9.4-4.2-9.4-9.4l0,0c0-5.2,4.2-9.4,9.4-9.4h89.7c5.2,0,9.4,4.2,9.4,9.4c0,0,0,0,0,0
		l0,0C314.2,61.9,310,66.1,304.8,66.1z"/>
	<path class="st2" d="M202.9,183.5h125.3c8,0,14.4,6.5,14.4,14.4v33.8c0,8-6.5,14.4-14.4,14.4H202.9c-8,0-14.4-6.5-14.4-14.4v-33.8
		C188.5,190,195,183.5,202.9,183.5z"/>
	<path class="st6" d="M211.3,194.4h19c6,0,10.9,4.9,10.9,10.9v19c0,6-4.9,10.9-10.9,10.9h-19c-6,0-10.9-4.9-10.9-10.9v-19
		C200.4,199.3,205.3,194.4,211.3,194.4z"/>
	<path class="st5" d="M259.3,207.1h1.2v2.3c-0.7,0.5-1.5,0.7-2.3,0.7c-1.6,0.3-3.2-0.8-3.5-2.4c-0.3-1.6,0.8-3.2,2.4-3.5
		c0.4-0.1,0.7-0.1,1.1,0c0.9,0,1.8,0.3,2.4,1l-0.9,0.8c-0.4-0.4-0.9-0.7-1.5-0.6c-1-0.1-1.9,0.7-2,1.7c-0.1,1,0.7,1.9,1.7,2
		c0.1,0,0.2,0,0.3,0c0.3,0,0.7-0.1,1-0.3L259.3,207.1z"/>
	<path class="st5" d="M264.4,205.6v1.2h-0.3c-0.6,0-1.1,0.4-1.2,1c0,0.1,0,0.2,0,0.2v2.1h-1.3v-4.4h1.2v0.6
		C263.2,205.8,263.8,205.6,264.4,205.6z"/>
	<path class="st5" d="M269,207.6v2.5h-1.2v-0.6c-0.3,0.4-0.8,0.7-1.3,0.6c-1,0-1.6-0.6-1.6-1.3s0.5-1.3,1.9-1.3h1
		c0-0.5-0.3-0.9-1-0.9c-0.5,0-0.9,0.1-1.3,0.4l-0.5-0.9c0.6-0.4,1.2-0.5,1.9-0.5C268.2,205.6,269,206.3,269,207.6z M267.7,208.7
		v-0.4h-0.9c-0.6,0-0.8,0.2-0.8,0.5s0.3,0.5,0.7,0.5C267.2,209.3,267.6,209.1,267.7,208.7L267.7,208.7z"/>
	<path class="st5" d="M274.9,207.9c0.1,1.2-0.8,2.2-2,2.3c-0.1,0-0.1,0-0.2,0c-0.5,0-1-0.2-1.3-0.5v2h-1.3v-6h1.2v0.5
		c0.3-0.4,0.8-0.6,1.4-0.6c1.2,0,2.2,0.9,2.2,2.1C274.9,207.7,274.9,207.8,274.9,207.9z M273.6,207.9c-0.1-0.6-0.6-1.1-1.2-1
		s-1.1,0.6-1,1.2c0.1,0.6,0.5,1,1.1,1c0.6,0,1.1-0.5,1.1-1.1C273.6,208,273.6,207.9,273.6,207.9z"/>
	<path class="st5" d="M280.2,207.6v2.5H279v-2.3c0-0.7-0.3-1-0.9-1s-1,0.4-1,1.2v2.2h-1.3V204h1.2v2.1c0.4-0.4,0.9-0.5,1.4-0.5
		c0.9-0.1,1.8,0.6,1.9,1.6C280.3,207.3,280.3,207.4,280.2,207.6z"/>
	<path class="st5" d="M281.2,204.4c0-0.4,0.3-0.7,0.7-0.7c0,0,0,0,0,0c0.4,0,0.7,0.3,0.8,0.6c0,0,0,0,0,0c0,0.4-0.4,0.8-0.8,0.8
		C281.6,205.1,281.2,204.8,281.2,204.4L281.2,204.4z M281.4,205.7h1.3v4.4h-1.3V205.7z"/>
	<path class="st5" d="M283.5,207.9c0-1.2,1-2.3,2.3-2.3c0.1,0,0.1,0,0.2,0c0.8-0.1,1.6,0.4,2,1.1l-1,0.5c-0.2-0.4-0.6-0.6-1-0.6
		c-0.7,0.1-1.2,0.7-1.1,1.3c0.1,0.6,0.5,1.1,1.1,1.1c0.4,0,0.8-0.2,1-0.6l1,0.5c-0.4,0.8-1.2,1.2-2,1.1c-1.2,0.1-2.3-0.8-2.4-2.1
		C283.5,208,283.5,207.9,283.5,207.9z"/>
	<path class="st5" d="M291.1,204.4h2.6c1.6-0.2,3,1,3.1,2.6c0.2,1.6-1,3-2.6,3.1c-0.2,0-0.4,0-0.6,0h-2.6V204.4z M293.6,209
		c1,0.1,1.8-0.7,1.9-1.6c0.1-1-0.7-1.8-1.6-1.9c-0.1,0-0.2,0-0.3,0h-1.2v3.5H293.6z"/>
	<path class="st5" d="M302,208.2h-3.3c0.1,0.6,0.7,0.9,1.3,0.9c0.4,0,0.8-0.1,1.1-0.4l0.7,0.7c-0.5,0.5-1.1,0.8-1.8,0.7
		c-1.3,0.1-2.4-0.8-2.5-2c0-0.1,0-0.1,0-0.2c0-1.2,1-2.2,2.2-2.3c0,0,0.1,0,0.1,0c1.2-0.1,2.2,0.8,2.3,2c0,0.1,0,0.2,0,0.2
		C302,208,302,208.1,302,208.2z M298.7,207.5h2.2c0-0.5-0.5-1-1.1-0.9C299.2,206.5,298.7,206.9,298.7,207.5
		C298.7,207.5,298.7,207.5,298.7,207.5L298.7,207.5z"/>
	<path class="st5" d="M302.4,209.7l0.4-0.9c0.5,0.3,1,0.4,1.5,0.4c0.6,0,0.8-0.2,0.8-0.4c0-0.7-2.6,0-2.6-1.7c0-0.8,0.8-1.4,2-1.4
		c0.6,0,1.2,0.1,1.7,0.4l-0.4,0.9c-0.4-0.2-0.8-0.3-1.3-0.3c-0.6,0-0.8,0.2-0.8,0.4c0,0.8,2.6,0,2.6,1.8c0,0.8-0.8,1.4-2.1,1.4
		C303.6,210.2,303,210,302.4,209.7z"/>
	<path class="st5" d="M307,204.4c0-0.4,0.3-0.7,0.7-0.7c0,0,0,0,0,0c0.4,0,0.7,0.3,0.8,0.6c0,0,0,0,0,0c0,0.4-0.4,0.8-0.8,0.8
		C307.4,205.1,307,204.8,307,204.4L307,204.4z M307.2,205.7h1.3v4.4h-1.3V205.7z"/>
	<path class="st5" d="M314.2,205.7v3.6c0.1,1.2-0.7,2.2-1.9,2.4c-0.2,0-0.4,0-0.6,0c-0.8,0-1.5-0.2-2.1-0.6l0.5-0.9
		c0.5,0.3,1,0.5,1.5,0.5c0.9,0,1.3-0.4,1.3-1.2v-0.2c-0.4,0.4-0.9,0.6-1.4,0.5c-1.2,0.1-2.2-0.8-2.3-2c-0.1-1.2,0.8-2.2,2-2.3
		c0.1,0,0.2,0,0.3,0c0.6,0,1.1,0.2,1.5,0.6v-0.6L314.2,205.7z M312.9,207.8c0-0.6-0.4-1.2-1.1-1.2c-0.6,0-1.2,0.4-1.2,1.1
		c0,0.6,0.4,1.2,1.1,1.2c0,0,0.1,0,0.1,0c0.6,0,1.1-0.4,1.1-1C312.9,207.8,312.9,207.8,312.9,207.8z"/>
	<path class="st5" d="M319.8,207.6v2.5h-1.3v-2.3c0-0.7-0.3-1-0.9-1s-1,0.4-1,1.2v2.2h-1.3v-4.4h1.2v0.5c0.4-0.4,0.9-0.6,1.5-0.6
		c0.9-0.1,1.8,0.7,1.8,1.6C319.8,207.4,319.8,207.5,319.8,207.6z"/>
	<path class="st5" d="M331.2,216.7c0,0.1-16.9,0.3-37.8,0.3s-37.8-0.1-37.8-0.3s16.9-0.3,37.8-0.3S331.2,216.6,331.2,216.7z"/>
	<path class="st5" d="M331.6,223.1c0,0.1-17.2,0.3-38.4,0.3s-38.4-0.1-38.4-0.3s17.2-0.3,38.4-0.3S331.6,222.9,331.6,223.1z"/>
	<path class="st5" d="M272.2,230.1c-2.9,0.3-5.8,0.3-8.7,0.3c-2.9,0.1-5.8,0-8.7-0.3c2.9-0.3,5.8-0.4,8.7-0.3
		C266.4,229.7,269.3,229.8,272.2,230.1z"/>
	<polygon class="st1" points="221.2,202.8 214.2,218.9 217.5,222.3 217.5,225 225.9,224.9 225.8,222.2 228.9,218.4 	"/>
	<path class="st5" d="M221.2,202.8c0.2,0.4,3.2,6.4,7.7,15.6l0,0l0,0l-3.1,3.8l0,0c0,0.9,0.1,1.8,0.1,2.7v0.1h-0.1l-4.3,0.1
		l-4.1,0.1h-0.1v0c0-0.9,0-1.8,0-2.7l0,0l-3.3-3.3l0,0l0,0C218.3,209.5,221,203.3,221.2,202.8l-6.9,16.2v-0.1l3.3,3.4l0,0l0,0
		c0,0.9,0,1.8,0,2.7l-0.1-0.1l4.1-0.1l4.3-0.1l-0.1,0.1c0-0.9-0.1-1.9-0.1-2.7l0,0l0,0l3.1-3.8v0.1L221.2,202.8z"/>
	<path class="st5" d="M224.4,215.7c0,1.4-1.1,2.5-2.4,2.6c0,0,0,0-0.1,0c-1.4,0-2.6-1.1-2.6-2.5c0-1.4,1-2.5,2.4-2.6c0,0,0,0,0.1,0
		C223.2,213.2,224.3,214.3,224.4,215.7z"/>
	<path class="st5" d="M221.2,202.8c0,0,0.2,2.9,0.4,6.5s0.3,6.5,0.3,6.5s-0.2-2.9-0.4-6.5S221.2,202.8,221.2,202.8z"/>
	<polygon class="st7" points="226.6,227.7 217,227.9 216.9,224.5 226.6,224.4 	"/>
	<polygon class="st7" points="221.8,202.8 220.7,202.8 220.7,201.7 221.7,201.6 	"/>
	<path class="st7" d="M229.7,202.3c0,0.1-3.7,0.2-8.2,0.2s-8.2,0-8.2-0.1s3.7-0.2,8.2-0.2S229.7,202.2,229.7,202.3z"/>
	<path class="st7" d="M229.9,202.2c0,0.2-0.1,0.4-0.4,0.4c0,0,0,0,0,0c-0.2,0-0.4-0.2-0.4-0.4c0-0.2,0.2-0.4,0.5-0.3
		C229.8,201.9,229.9,202,229.9,202.2L229.9,202.2z"/>
	<path class="st7" d="M213.4,202.3c0,0.2-0.2,0.4-0.4,0.4c0,0,0,0,0,0c-0.2,0-0.4-0.2-0.4-0.4c0-0.2,0.2-0.4,0.4-0.4
		C213.2,202,213.4,202.1,213.4,202.3z"/>
	<g class="st8">
		<polygon class="st3" points="219.6,224.5 222.6,227.7 223.9,227.8 220.8,224.5 		"/>
	</g>
	<path class="st2" d="M202.6,257.6h125.9c7.8,0,14.1,6.3,14.1,14.1v34.4c0,7.8-6.3,14.1-14.1,14.1H202.6c-7.8,0-14.1-6.3-14.1-14.1
		v-34.4C188.5,263.9,194.8,257.6,202.6,257.6z"/>
	<path class="st5" d="M260.7,278.5v5.7h-1.3v-2.3h-2.6v2.3h-1.3v-5.7h1.3v2.3h2.6v-2.3H260.7z"/>
	<path class="st5" d="M264.8,284c-0.3,0.2-0.6,0.3-1,0.3c-0.8,0.1-1.5-0.4-1.6-1.2c0-0.1,0-0.2,0-0.4v-1.8h-0.7v-1h0.7v-1.1h1.3v1.1
		h1.1v1h-1.1v1.8c0,0.3,0.2,0.5,0.4,0.6c0,0,0.1,0,0.1,0c0.2,0,0.4-0.1,0.5-0.2L264.8,284z"/>
	<path class="st5" d="M272.9,281.7v2.5h-1.3v-2.3c0-0.7-0.3-1-0.8-1s-1,0.4-1,1.1v2.2h-1.3v-2.3c0-0.7-0.3-1-0.8-1s-1,0.4-1,1.1v2.2
		h-1.3v-4.4h1.2v0.5c0.4-0.4,0.9-0.6,1.4-0.6c0.6,0,1.1,0.2,1.5,0.7c0.4-0.5,1-0.7,1.6-0.7c0.9-0.1,1.8,0.6,1.9,1.5
		C272.9,281.4,272.9,281.6,272.9,281.7z"/>
	<path class="st5" d="M274,278.1h1.3v6H274V278.1z"/>
	<path class="st5" d="M282.7,281.7v2.5h-1.2v-0.5c-0.3,0.4-0.8,0.7-1.3,0.6c-1,0-1.6-0.6-1.6-1.3s0.5-1.3,1.9-1.3h1
		c0-0.5-0.3-0.9-1-0.9c-0.5,0-0.9,0.1-1.3,0.4l-0.5-0.9c0.6-0.4,1.2-0.5,1.9-0.5C281.9,279.7,282.7,280.4,282.7,281.7z M281.4,282.8
		v-0.4h-0.9c-0.6,0-0.8,0.2-0.8,0.5s0.3,0.5,0.7,0.5C280.9,283.4,281.3,283.2,281.4,282.8z"/>
	<path class="st5" d="M288.3,281.7v2.5h-1.3v-2.3c0-0.7-0.3-1-0.9-1s-1,0.4-1,1.2v2.2h-1.3v-4.4h1.2v0.5c0.4-0.4,0.9-0.6,1.5-0.6
		c0.9-0.1,1.8,0.7,1.8,1.6C288.3,281.5,288.3,281.6,288.3,281.7z"/>
	<path class="st5" d="M294,278.1v6h-1.2v-0.5c-0.3,0.4-0.8,0.6-1.4,0.6c-1.2-0.1-2.2-1.2-2.1-2.4c0.1-1.1,1-2,2.1-2.1
		c0.5,0,1,0.2,1.3,0.5v-2.1L294,278.1z M292.7,282c0-0.6-0.6-1.1-1.2-1s-1.1,0.6-1,1.2c0,0.6,0.5,1,1.1,1c0.6,0,1.1-0.5,1.1-1.1
		C292.7,282.1,292.7,282,292.7,282z"/>
	<path class="st5" d="M297.2,281.3c0.1-1.7,1.6-3.1,3.3-2.9c0.8,0.1,1.6,0.4,2.1,1l-0.9,0.8c-0.3-0.4-0.9-0.7-1.4-0.7
		c-1-0.1-1.9,0.7-2,1.7c-0.1,1,0.7,1.9,1.7,2c0.1,0,0.2,0,0.3,0c0.6,0,1.1-0.2,1.4-0.7l0.9,0.8c-1.2,1.3-3.2,1.4-4.4,0.2
		C297.6,282.9,297.2,282.2,297.2,281.3L297.2,281.3z"/>
	<path class="st5" d="M303,283.6l0.5-1c0.6,0.4,1.2,0.6,1.9,0.6c0.8,0,1.1-0.3,1.1-0.6c0-1.1-3.3-0.3-3.3-2.5c0-1,0.8-1.8,2.4-1.8
		c0.7,0,1.4,0.2,2,0.5l-0.4,1c-0.5-0.3-1-0.4-1.6-0.4c-0.8,0-1.1,0.3-1.1,0.6c0,1,3.3,0.3,3.3,2.4c0,1-0.8,1.8-2.4,1.8
		C304.5,284.3,303.7,284.1,303,283.6z"/>
	<path class="st5" d="M308.3,283.6l0.4-1c0.6,0.4,1.2,0.6,1.9,0.6c0.8,0,1.1-0.3,1.1-0.6c0-1.1-3.3-0.3-3.3-2.5c0-1,0.8-1.8,2.4-1.8
		c0.7,0,1.4,0.2,2,0.5l-0.4,1c-0.5-0.3-1-0.4-1.6-0.4c-0.8,0-1.1,0.3-1.1,0.6c0,1,3.3,0.3,3.3,2.4c0,1-0.8,1.8-2.4,1.8
		C309.8,284.3,308.9,284.1,308.3,283.6z"/>
	<path class="st5" d="M331.2,290.9c0,0.1-16.9,0.3-37.8,0.3s-37.8-0.1-37.8-0.3s16.9-0.3,37.8-0.3S331.2,290.7,331.2,290.9z"/>
	<path class="st5" d="M331.6,297.2c0,0.1-17.2,0.3-38.4,0.3s-38.4-0.1-38.4-0.3s17.2-0.3,38.4-0.3S331.6,297,331.6,297.2z"/>
	<path class="st5" d="M272.2,304.2c-2.9,0.3-5.8,0.3-8.7,0.3c-2.9,0.1-5.8,0-8.7-0.3c2.9-0.3,5.8-0.4,8.7-0.3
		C266.4,303.8,269.3,303.9,272.2,304.2z"/>
	<path class="st2" d="M205.4,331.7h120.4c9.3,0,16.9,7.5,16.9,16.9v28.9c0,9.3-7.5,16.9-16.9,16.9H205.4c-9.3,0-16.9-7.5-16.9-16.9
		v-28.9C188.5,339.2,196,331.7,205.4,331.7z"/>
	<path class="st5" d="M255.4,352.6h1.3v5.7h-1.3L255.4,352.6z"/>
	<path class="st5" d="M258,352.2h1.3v6H258V352.2z"/>
	<path class="st5" d="M260.5,352.2h1.3v6h-1.3V352.2z"/>
	<path class="st5" d="M267.4,353.9v4.4h-1.2v-0.5c-0.3,0.4-0.8,0.6-1.4,0.6c-1,0.1-1.8-0.6-1.9-1.6c0-0.1,0-0.3,0-0.4v-2.5h1.3v2.3
		c0,0.7,0.3,1.1,0.9,1.1s1-0.4,1-1.2v-2.2H267.4z"/>
	<path class="st5" d="M268.1,357.9l0.4-0.9c0.5,0.3,1,0.4,1.5,0.4c0.6,0,0.8-0.1,0.8-0.4c0-0.7-2.6,0-2.6-1.7c0-0.8,0.8-1.4,2-1.4
		c0.6,0,1.2,0.1,1.7,0.4l-0.4,0.9c-0.4-0.2-0.8-0.3-1.3-0.3c-0.6,0-0.8,0.2-0.8,0.4c0,0.8,2.6,0,2.6,1.8c0,0.8-0.8,1.4-2.1,1.4
		C269.3,358.4,268.7,358.2,268.1,357.9z"/>
	<path class="st5" d="M275.7,358.1c-0.3,0.2-0.6,0.3-1,0.3c-0.8,0.1-1.5-0.4-1.6-1.2c0-0.1,0-0.2,0-0.3V355h-0.7v-1h0.6v-1.1h1.3
		v1.1h1.1v1h-1.1v1.8c0,0.3,0.2,0.5,0.4,0.6c0,0,0.1,0,0.1,0c0.2,0,0.4-0.1,0.5-0.2L275.7,358.1z"/>
	<path class="st5" d="M279.1,353.8v1.2h-0.3c-0.6-0.1-1.1,0.4-1.2,1c0,0.1,0,0.2,0,0.3v2.1h-1.3v-4.4h1.2v0.6
		C278,354,278.6,353.8,279.1,353.8z"/>
	<path class="st5" d="M283.8,355.8v2.5h-1.2v-0.5c-0.3,0.4-0.8,0.7-1.3,0.6c-1,0-1.6-0.6-1.6-1.3s0.5-1.3,1.9-1.3h1
		c0-0.5-0.3-0.9-1-0.9c-0.5,0-0.9,0.1-1.3,0.4l-0.5-0.9c0.6-0.4,1.2-0.5,1.9-0.5C283,353.8,283.8,354.5,283.8,355.8z M282.5,356.9
		v-0.4h-0.9c-0.6,0-0.8,0.2-0.8,0.5s0.3,0.5,0.7,0.5C282,357.5,282.3,357.3,282.5,356.9z"/>
	<path class="st5" d="M287.7,358.1c-0.3,0.2-0.6,0.3-1,0.3c-0.8,0.1-1.5-0.4-1.6-1.2c0-0.1,0-0.2,0-0.3V355h-0.7v-1h0.7v-1.1h1.3
		v1.1h1.1v1h-1.1v1.8c0,0.3,0.2,0.5,0.4,0.6c0,0,0.1,0,0.1,0c0.2,0,0.4-0.1,0.5-0.2L287.7,358.1z"/>
	<path class="st5" d="M288.3,352.6c0-0.4,0.4-0.7,0.8-0.7c0,0,0,0,0,0c0.4,0,0.7,0.2,0.8,0.6c0,0,0,0,0,0.1c0,0.4-0.4,0.8-0.8,0.8
		C288.7,353.3,288.3,353,288.3,352.6L288.3,352.6z M288.5,353.9h1.3v4.4h-1.3V353.9z"/>
	<path class="st5" d="M290.6,356.1c-0.1-1.3,0.9-2.5,2.2-2.6c1.3-0.1,2.5,0.9,2.6,2.2c0.1,1.3-0.9,2.5-2.2,2.6c-0.1,0-0.1,0-0.2,0
		c-1.2,0.1-2.3-0.8-2.4-2.1C290.6,356.2,290.6,356.2,290.6,356.1z M294.1,356.1c0-0.6-0.6-1.1-1.2-1s-1.1,0.6-1,1.2
		c0,0.6,0.5,1,1.1,1c0.6,0,1.1-0.5,1.1-1.1C294.1,356.2,294.1,356.1,294.1,356.1z"/>
	<path class="st5" d="M300.7,355.8v2.5h-1.3V356c0-0.7-0.3-1-0.9-1s-1,0.4-1,1.2v2.2h-1.3v-4.5h1.2v0.5c0.4-0.4,0.9-0.6,1.5-0.6
		c0.9-0.1,1.8,0.6,1.8,1.6C300.8,355.5,300.7,355.7,300.7,355.8z"/>
	<path class="st5" d="M331.2,365c0,0.1-16.9,0.3-37.8,0.3s-37.8-0.1-37.8-0.3s16.9-0.3,37.8-0.3S331.2,364.8,331.2,365z"/>
	<path class="st5" d="M331.6,371.3c0,0.1-17.2,0.3-38.4,0.3s-38.4-0.1-38.4-0.3s17.2-0.3,38.4-0.3S331.6,371.1,331.6,371.3z"/>
	<path class="st5" d="M272.2,378.3c-2.9,0.3-5.8,0.3-8.7,0.3c-2.9,0.1-5.8,0-8.7-0.3c2.9-0.3,5.8-0.4,8.7-0.3
		C266.4,377.9,269.3,378,272.2,378.3z"/>
	<path class="st7" d="M203.7,108.7v-5.2l-2.5,4.3H200l-2.5-4.1v5.1h-2.6v-9.9h2.3l3.5,5.7l3.4-5.7h2.3v9.9H203.7z"/>
	<path class="st7" d="M216.2,101l-3.3,8c-0.8,2-1.9,2.6-3.4,2.6c-0.8,0-1.6-0.2-2.2-0.7l0.9-1.9c0.3,0.3,0.8,0.4,1.2,0.4
		c0.4,0,0.8-0.2,1-0.7l-3.2-7.8h2.8l1.9,4.7l1.9-4.7H216.2z"/>
	<path class="st7" d="M220.6,103.7c0-2.8,2.3-5.1,5.1-5.1c0.1,0,0.2,0,0.4,0c1.6-0.1,3.2,0.6,4.3,1.9l-1.8,1.6
		c-0.6-0.7-1.4-1.2-2.3-1.2c-1.6,0.1-2.7,1.4-2.7,3c0.1,1.4,1.2,2.6,2.7,2.7c0.9,0,1.8-0.4,2.3-1.2l1.8,1.6c-1,1.2-2.6,1.9-4.3,1.9
		c-2.8,0.2-5.2-2-5.4-4.8C220.6,104,220.6,103.9,220.6,103.7z"/>
	<path class="st7" d="M230.7,104.8c0-2.2,1.9-4,4.1-3.9c0.1,0,0.1,0,0.2,0c2.5,0,4.3,1.6,4.3,3.9c-0.2,2.4-2.3,4.2-4.7,4
		C232.5,108.6,230.9,106.9,230.7,104.8L230.7,104.8z M236.6,104.8c0.1-0.9-0.5-1.7-1.4-1.8s-1.7,0.5-1.8,1.4c0,0.1,0,0.3,0,0.4
		c-0.1,0.9,0.5,1.7,1.4,1.8s1.7-0.5,1.8-1.4C236.7,105.1,236.7,105,236.6,104.8z"/>
	<path class="st7" d="M248.6,101v7.7h-2.5v-0.8c-0.6,0.6-1.4,1-2.3,1c-1.9,0-3.3-1.1-3.3-3.5V101h2.7v3.8c0,1.2,0.5,1.7,1.3,1.7
		s1.4-0.5,1.4-1.8V101H248.6z"/>
	<path class="st7" d="M255.5,100.9v2.4c-0.2,0-0.4,0-0.6,0c-0.9-0.1-1.7,0.6-1.8,1.5c0,0.1,0,0.3,0,0.4v3.5h-2.7V101h2.6v0.9
		C253.6,101.2,254.5,100.8,255.5,100.9z"/>
	<path class="st7" d="M256,108l0.8-1.8c0.8,0.5,1.7,0.7,2.7,0.7c0.9,0,1.2-0.2,1.2-0.5c0-1-4.5,0.1-4.5-2.9c0-1.4,1.3-2.5,3.7-2.5
		c1,0,2.1,0.2,3,0.7l-0.8,1.8c-0.7-0.4-1.4-0.6-2.2-0.6c-0.9,0-1.2,0.3-1.2,0.5c0,1.1,4.5-0.1,4.5,3c0,1.4-1.3,2.5-3.8,2.5
		C258.2,108.8,257,108.6,256,108z"/>
	<path class="st7" d="M272.1,105.5h-5.6c0.3,0.8,1,1.3,1.9,1.2c0.7,0,1.3-0.2,1.8-0.7l1.4,1.5c-0.8,0.9-2,1.3-3.3,1.2
		c-2.7,0-4.5-1.7-4.5-4c0-2.2,1.9-4,4.1-3.9c0,0,0.1,0,0.1,0c2.1-0.1,3.9,1.4,4.1,3.6c0,0.1,0,0.3,0,0.4
		C272.2,105.1,272.1,105.3,272.1,105.5z M266.5,104.1h3.1c-0.2-0.9-1-1.4-1.8-1.3C267.1,102.9,266.6,103.5,266.5,104.1z"/>
	<path class="st7" d="M272.8,108l0.8-1.8c0.8,0.5,1.7,0.7,2.7,0.7c0.9,0,1.2-0.2,1.2-0.5c0-1-4.5,0.1-4.5-2.9c0-1.4,1.3-2.5,3.7-2.5
		c1,0,2.1,0.2,3,0.7l-0.8,1.8c-0.7-0.4-1.4-0.6-2.2-0.6c-0.9,0-1.2,0.3-1.2,0.5c0,1.1,4.5-0.1,4.5,3c0,1.4-1.3,2.5-3.8,2.5
		C275,108.8,273.8,108.6,272.8,108z"/>
	<path class="st5" d="M336,118.1c0,0.1-31.8,0.3-71.1,0.3s-71.1-0.1-71.1-0.3s31.8-0.3,71.1-0.3S336,118,336,118.1z"/>
	<path class="st5" d="M335.6,126.3c0,0.1-31.8,0.3-71.1,0.3s-71.1-0.1-71.1-0.3s31.8-0.3,71.1-0.3S335.6,126.1,335.6,126.3z"/>
	<path class="st5" d="M271.9,134.5c0,0.1-17.6,0.3-39.2,0.3s-39.2-0.1-39.2-0.3s17.6-0.3,39.2-0.3S271.9,134.4,271.9,134.5z"/>
	<path class="st6" d="M212.3,341.1h19c6,0,10.9,4.9,10.9,10.9v19c0,6-4.9,10.9-10.9,10.9h-19c-6,0-10.9-4.9-10.9-10.9v-19
		C201.4,346,206.3,341.1,212.3,341.1z"/>
	<polygon class="st1" points="222.2,349.4 215.2,365.6 218.6,369 218.5,371.7 226.9,371.5 226.8,368.8 229.9,365.1 	"/>
	<path class="st5" d="M222.2,349.4l7.7,15.6l0,0l0,0l-3.1,3.8l0,0c0,0.9,0.1,1.8,0.1,2.7v0.1h-0.1l-4.3,0.1l-4.1,0.1h-0.1v-0.1
		c0-0.9,0-1.8,0-2.7l0,0c-1.1-1.2-2.3-2.3-3.3-3.4l0,0l0,0C219.3,356.1,222,349.9,222.2,349.4c-0.3,0.5-3,6.7-7,16.2v-0.1l3.3,3.4
		l0,0l0,0c0,0.9,0,1.8,0,2.7l-0.1-0.1l4.1-0.1l4.3-0.1v0.1c0-0.9-0.1-1.9-0.1-2.7l0,0l0,0l3.1-3.8v0.1L222.2,349.4z"/>
	<path class="st5" d="M225.4,362.4c0,1.4-1.1,2.5-2.5,2.6c0,0,0,0,0,0c-1.4,0-2.6-1.1-2.6-2.5c0-1.4,1-2.5,2.4-2.6c0,0,0,0,0.1,0
		C224.2,359.8,225.3,361,225.4,362.4z"/>
	<path class="st5" d="M222.2,349.4c0,0,0.2,2.9,0.4,6.5s0.3,6.5,0.2,6.5s-0.2-2.9-0.4-6.5S222.2,349.4,222.2,349.4z"/>
	<polygon class="st7" points="227.7,374.4 218.1,374.5 218,371.2 227.6,371.1 	"/>
	<polygon class="st7" points="222.8,349.4 221.7,349.4 221.7,348.3 222.7,348.3 	"/>
	<path class="st7" d="M230.7,348.9c0,0.1-3.7,0.2-8.2,0.2s-8.2,0-8.2,0s3.7-0.2,8.2-0.2S230.7,348.9,230.7,348.9z"/>
	<path class="st7" d="M230.9,348.9c0,0.2-0.2,0.4-0.4,0.4c0,0,0,0,0,0c-0.2,0-0.4-0.2-0.4-0.4c0-0.2,0.2-0.4,0.4-0.4c0,0,0,0,0,0
		C230.7,348.5,230.9,348.6,230.9,348.9z"/>
	<path class="st7" d="M214.4,349c0,0.2-0.2,0.4-0.5,0.3c-0.2,0-0.3-0.2-0.3-0.3c0-0.2,0.2-0.4,0.4-0.4c0,0,0,0,0,0
		C214.3,348.6,214.4,348.8,214.4,349z"/>
	<g class="st8">
		<polygon class="st3" points="220.6,371.2 223.6,374.4 224.9,374.4 221.8,371.1 		"/>
	</g>
	<path class="st5" d="M212.3,266.9h19c6,0,10.9,4.9,10.9,10.9v19c0,6-4.9,10.9-10.9,10.9h-19c-6,0-10.9-4.9-10.9-10.9v-19
		C201.4,271.7,206.3,266.9,212.3,266.9z"/>
	<polygon class="st1" points="222.2,275.2 215.2,291.4 218.6,294.8 218.5,297.5 226.9,297.3 226.8,294.6 229.9,290.8 	"/>
	<path class="st5" d="M222.2,275.2c0.2,0.4,3.2,6.4,7.7,15.6l0,0l0,0l-3.1,3.8l0,0c0,0.9,0.1,1.8,0.1,2.7v0.1h-0.1l-4.3,0.1
		l-4.1,0.1h-0.1v-0.1c0-0.9,0-1.8,0-2.7l0,0l-3.3-3.4l0,0l0,0L222.2,275.2c-0.3,0.4-3,6.7-7,16.2v-0.1l3.3,3.4l0,0l0,0
		c0,0.9,0,1.8,0,2.7l-0.1-0.1l4.1-0.1l4.3-0.1v0.1c0-0.9-0.1-1.9-0.1-2.7l0,0l3.1-3.8v0L222.2,275.2z"/>
	<path class="st5" d="M225.4,288.1c0,1.4-1.1,2.5-2.4,2.6c0,0,0,0-0.1,0c-1.4,0-2.6-1.1-2.6-2.5c0-1.4,1.1-2.5,2.4-2.6
		c0,0,0,0,0.1,0C224.2,285.6,225.3,286.7,225.4,288.1z"/>
	<path class="st5" d="M222.2,275.2c0,0,0.2,2.9,0.4,6.5s0.3,6.5,0.2,6.5s-0.2-2.9-0.4-6.5S222.2,275.2,222.2,275.2z"/>
	<polygon class="st7" points="227.7,300.2 218.1,300.3 218,297 227.6,296.8 	"/>
	<polygon class="st7" points="222.8,275.2 221.7,275.2 221.7,274.1 222.7,274.1 	"/>
	<path class="st7" d="M230.7,274.7c0,0.1-3.7,0.2-8.2,0.2s-8.2,0-8.2,0s3.7-0.2,8.2-0.2S230.7,274.6,230.7,274.7z"/>
	<path class="st7" d="M230.9,274.6c0,0.2-0.2,0.4-0.4,0.4c0,0,0,0,0,0c-0.2,0-0.4-0.2-0.4-0.4c0-0.2,0.2-0.4,0.4-0.4c0,0,0,0,0,0
		C230.7,274.2,230.9,274.4,230.9,274.6z"/>
	<path class="st7" d="M214.4,274.8c0,0.2-0.2,0.4-0.4,0.4c0,0,0,0,0,0c-0.2,0-0.4-0.2-0.4-0.4c0,0,0,0,0,0c0-0.2,0.1-0.4,0.4-0.4
		c0,0,0,0,0,0C214.3,274.4,214.4,274.6,214.4,274.8z"/>
	<g class="st8">
		<polygon class="st3" points="220.6,296.9 223.6,300.1 224.9,300.2 221.8,296.9 		"/>
	</g>
</g>
<path class="st2" d="M294.6,84.6h140.6c11,0,20,8.9,20,20v343.1c0,11-8.9,20-20,20H294.6c-11,0-20-8.9-20-20V104.6
	C274.7,93.6,283.6,84.6,294.6,84.6z"/>
<path class="st3" d="M294.1,84.6h141.7c10.6,0,19.2,8.6,19.2,19.2v171l0,0H274.9l0,0v-171C274.9,93.2,283.5,84.6,294.1,84.6
	C294.1,84.6,294.1,84.6,294.1,84.6z"/>
<path class="st5" d="M293.5,111.6c-0.1,0-0.2,0-0.3-0.1l-4.3-3.2c-0.1-0.1-0.2-0.2-0.2-0.4c0-0.2,0.1-0.3,0.2-0.4l4.3-3.5
	c0.2-0.2,0.5-0.1,0.7,0.1c0.2,0.2,0.1,0.5-0.1,0.7l0,0l-3.9,3.1l3.8,2.8c0.2,0.2,0.3,0.5,0.1,0.7
	C293.8,111.5,293.7,111.6,293.5,111.6z"/>
<path class="st5" d="M323.9,356.4c0-0.8,0.6-1.4,1.3-1.4c0,0,0.1,0,0.1,0c0.4,0,0.7,0.2,1,0.4l-0.3,0.2c-0.2-0.2-0.5-0.3-0.8-0.3
	c-0.6,0-1,0.5-1,1c0,0.6,0.5,1,1,1c0.3,0,0.6-0.1,0.8-0.3l0.3,0.3c-0.6,0.6-1.5,0.6-2.1,0C324,357.1,323.8,356.8,323.9,356.4
	L323.9,356.4z"/>
<path class="st5" d="M329.2,355.1v2.7h-0.4v-1.2h-1.6v1.2h-0.4v-2.7h0.4v1.2h1.6v-1.2H329.2z"/>
<path class="st5" d="M331.8,357.1h-1.5l-0.3,0.7h-0.4l1.2-2.7h0.4l1.2,2.7h-0.4L331.8,357.1z M331.7,356.8l-0.6-1.3l-0.6,1.3H331.7z
	"/>
<path class="st5" d="M335.1,356c0,0.6-0.4,1-1.1,1h-0.7v0.8h-0.4v-2.7h1.1C334.7,355.1,335.1,355.4,335.1,356z M334.7,356
	c0-0.4-0.3-0.6-0.8-0.6h-0.7v1.2h0.7C334.5,356.6,334.7,356.4,334.7,356z"/>
<path class="st5" d="M336.1,355.4h-0.9v-0.3h2.3v0.3h-0.9v2.4h-0.4V355.4z"/>
<path class="st5" d="M339.8,357.5v0.3h-2v-2.7h1.9v0.3h-1.5v0.8h1.4v0.3h-1.4v0.9L339.8,357.5z"/>
<path class="st5" d="M342.3,357.8l-0.6-0.8h-0.9v0.8h-0.4v-2.7h1.1c0.7,0,1.1,0.4,1.1,1c0,0.4-0.2,0.7-0.6,0.9l0.6,0.9L342.3,357.8z
	 M342.3,356c0-0.4-0.3-0.6-0.8-0.6h-0.7v1.2h0.7C342,356.6,342.3,356.4,342.3,356L342.3,356z"/>
<path class="st5" d="M346,357.5v0.3h-2v-0.3l1.1-1.1c0.3-0.3,0.3-0.5,0.3-0.6s-0.2-0.5-0.6-0.5c-0.3,0-0.5,0.1-0.7,0.3l-0.3-0.2
	c0.3-0.3,0.6-0.4,1-0.4c0.6,0,0.9,0.3,0.9,0.8c0,0.3-0.2,0.7-0.5,0.9l-0.8,0.8L346,357.5z"/>
<path class="st5" d="M333.1,362.2l-1.9,5.8h-1.4l-1.3-3.9l-1.3,3.9h-1.4l-1.9-5.8h1.4l1.3,4.1l1.4-4.1h1.2l1.3,4.1l1.3-4.1
	L333.1,362.2z"/>
<path class="st5" d="M338.4,365.5v2.5h-1.3v-2.4c0-0.7-0.3-1-0.9-1s-1.1,0.4-1.1,1.2v2.2h-1.3v-6.1h1.3v2.1c0.4-0.4,0.9-0.6,1.4-0.5
	c1-0.1,1.8,0.6,1.9,1.6C338.5,365.2,338.5,365.3,338.4,365.5z"/>
<path class="st5" d="M343.5,365.5v2.5h-1.2v-0.6c-0.3,0.4-0.8,0.7-1.4,0.6c-1,0-1.7-0.6-1.7-1.3s0.6-1.3,1.9-1.3h1
	c0-0.5-0.3-0.9-1-0.9c-0.5,0-0.9,0.1-1.3,0.4l-0.5-0.9c0.6-0.4,1.2-0.6,1.9-0.5C342.8,363.5,343.5,364.1,343.5,365.5z M342.3,366.6
	v-0.5h-0.9c-0.6,0-0.8,0.2-0.8,0.5s0.3,0.5,0.7,0.5C341.7,367.2,342.1,367,342.3,366.6z"/>
<path class="st5" d="M347.6,367.8c-0.3,0.2-0.7,0.3-1,0.3c-0.8,0.1-1.5-0.4-1.7-1.2c0-0.1,0-0.2,0-0.4v-1.8h-0.7v-1h0.7v-1.1h1.3
	v1.1h1.1v1h-1.1v1.8c0,0.3,0.2,0.5,0.4,0.6c0,0,0.1,0,0.1,0c0.2,0,0.4-0.1,0.5-0.2L347.6,367.8z"/>
<path class="st5" d="M350.5,362.2c0-0.4,0.5-0.8,0.9-0.7c0.4,0,0.7,0.3,0.7,0.7c0,0.4-0.3,0.8-0.7,0.8c0,0,0,0-0.1,0
	C350.9,363,350.5,362.7,350.5,362.2C350.5,362.3,350.5,362.3,350.5,362.2z M350.6,363.6h1.3v4.4h-1.3V363.6z"/>
<path class="st5" d="M352.7,367.6l0.4-0.9c0.5,0.3,1,0.4,1.5,0.4c0.6,0,0.8-0.2,0.8-0.4c0-0.7-2.7,0-2.7-1.8c0-0.8,0.8-1.4,2.1-1.4
	c0.6,0,1.2,0.1,1.7,0.4l-0.4,0.9c-0.4-0.2-0.8-0.3-1.3-0.3c-0.6,0-0.8,0.2-0.8,0.4c0,0.8,2.7,0,2.7,1.8c0,0.8-0.8,1.4-2.1,1.4
	C353.9,368.1,353.3,367.9,352.7,367.6z"/>
<path class="st5" d="M364.4,361.9v6.1h-1.2v-0.5c-0.3,0.4-0.9,0.6-1.4,0.6c-1.3,0-2.3-1-2.3-2.3c0-1.3,1-2.3,2.3-2.3
	c0.5,0,1,0.2,1.3,0.5v-2.2L364.4,361.9z M363.1,365.8c0-0.6-0.6-1.1-1.2-1.1s-1.1,0.6-1.1,1.2c0,0.6,0.5,1.1,1.2,1.1
	C362.6,367,363.1,366.5,363.1,365.8C363.1,365.9,363.1,365.8,363.1,365.8L363.1,365.8z"/>
<path class="st5" d="M369.9,366.2h-3.4c0.1,0.6,0.7,0.9,1.3,0.9c0.4,0,0.8-0.1,1.1-0.4l0.7,0.7c-1,1-2.7,1-3.7-0.1
	c-0.4-0.4-0.6-0.9-0.7-1.5c0-1.3,1-2.3,2.2-2.3c0,0,0.1,0,0.1,0c1.2-0.1,2.2,0.9,2.3,2.1c0,0.1,0,0.2,0,0.2
	C369.9,365.9,369.9,366.1,369.9,366.2z M366.5,365.4h2.2c-0.1-0.6-0.7-1-1.3-0.9C367,364.6,366.6,364.9,366.5,365.4z"/>
<path class="st5" d="M370.4,367.6l0.4-0.9c0.5,0.3,1,0.4,1.5,0.4c0.6,0,0.8-0.2,0.8-0.4c0-0.7-2.7,0-2.7-1.8c0-0.8,0.8-1.4,2.1-1.4
	c0.6,0,1.2,0.1,1.7,0.4l-0.4,0.9c-0.4-0.2-0.8-0.3-1.3-0.3c-0.6,0-0.8,0.2-0.8,0.4c0,0.8,2.7,0,2.7,1.8c0,0.8-0.8,1.4-2.1,1.4
	C371.6,368.1,370.9,367.9,370.4,367.6z"/>
<path class="st5" d="M375,362.2c0-0.4,0.3-0.7,0.8-0.7c0,0,0,0,0.1,0c0.4,0,0.8,0.2,0.8,0.6c0,0,0,0,0,0.1c0,0.4-0.5,0.8-0.9,0.7
	C375.3,362.9,375,362.6,375,362.2L375,362.2z M375.2,363.6h1.3v4.4h-1.3V363.6z"/>
<path class="st5" d="M382.3,363.6v3.7c0.1,1.2-0.7,2.3-1.9,2.4c-0.2,0-0.4,0-0.6,0c-0.8,0-1.5-0.2-2.2-0.6l0.5-0.9
	c0.5,0.3,1,0.5,1.6,0.5c0.9,0,1.3-0.4,1.3-1.2v-0.2c-0.4,0.4-0.9,0.6-1.4,0.5c-1.2,0-2.2-1-2.2-2.1c0-1.2,1-2.2,2.1-2.2c0,0,0,0,0,0
	c0.6,0,1.1,0.2,1.5,0.6v-0.6L382.3,363.6z M381,365.7c0-0.6-0.4-1.2-1.1-1.2c-0.6,0-1.2,0.4-1.2,1.1c0,0.6,0.4,1.2,1.1,1.2
	c0,0,0.1,0,0.1,0c0.6,0,1.1-0.4,1.2-1C381,365.7,381,365.7,381,365.7z"/>
<path class="st5" d="M388,365.5v2.5h-1.3v-2.4c0-0.7-0.3-1-0.9-1s-1.1,0.4-1.1,1.2v2.2h-1.3v-4.5h1.2v0.5c0.4-0.4,0.9-0.6,1.5-0.6
	c1-0.1,1.8,0.7,1.9,1.6C388,365.2,388,365.4,388,365.5z"/>
<path class="st5" d="M391.3,363.9c0-0.4-0.4-0.7-0.9-0.7c-0.5,0-0.9,0.2-1.2,0.6l-1-0.6c0.5-0.8,1.4-1.2,2.3-1.1
	c1.2,0,2.1,0.5,2.1,1.5c0,1.3-1.4,1.5-1.4,2.4H390C390,364.9,391.3,364.6,391.3,363.9z M389.8,367.3c0-0.4,0.4-0.8,0.9-0.7
	c0.4,0,0.7,0.3,0.7,0.7c0,0.4-0.4,0.8-0.9,0.7C390.2,368,389.9,367.7,389.8,367.3z"/>
<path class="st7" d="M410.8,450.3h-88.3c-7,0-12.6-5.6-12.6-12.6l0,0c0-7,5.6-12.6,12.6-12.6h88.3c7,0,12.6,5.6,12.6,12.6l0,0
	C423.4,444.6,417.8,450.3,410.8,450.3z"/>
<path class="st3" d="M342,435.4v5.3h-1l-2.7-3.2v3.2h-1.2v-5.3h1l2.6,3.2v-3.2H342z"/>
<path class="st3" d="M347.4,439.7v1h-4.1v-5.3h4v1h-2.8v1.2h2.5v1h-2.5v1.2L347.4,439.7z"/>
<path class="st3" d="M351.7,440.7l-1.3-1.9l-1.3,1.9h-1.4l2-2.7l-1.9-2.6h1.4l1.2,1.7l1.2-1.7h1.3l-1.9,2.6l2,2.8L351.7,440.7z"/>
<path class="st3" d="M354.6,436.4h-1.7v-1h4.6v1h-1.7v4.3h-1.2V436.4z"/>
<path class="st3" d="M360,438.1c0.1-1.6,1.5-2.9,3.1-2.8c0.8,0,1.5,0.4,2,0.9l-0.8,0.7c-0.3-0.4-0.8-0.6-1.3-0.6
	c-0.9-0.1-1.8,0.6-1.8,1.6c-0.1,0.9,0.6,1.8,1.6,1.8c0.1,0,0.2,0,0.3,0c0.5,0,1-0.2,1.3-0.6l0.8,0.7c-1.1,1.2-2.9,1.3-4.1,0.2
	C360.4,439.5,360,438.8,360,438.1z"/>
<path class="st3" d="M370.9,435.4v5.3h-1.2v-2.2h-2.4v2.2H366v-5.3h1.2v2.1h2.4v-2.1H370.9z"/>
<path class="st3" d="M375.6,439.6h-2.5l-0.5,1.1h-1.3l2.4-5.3h1.2l2.4,5.3h-1.3L375.6,439.6z M375.2,438.6l-0.8-2l-0.9,2H375.2z"/>
<path class="st3" d="M382.6,437.3c0,1.2-0.9,1.9-2.3,1.9h-1.1v1.5h-1.2v-5.3h2.3C381.7,435.4,382.6,436.1,382.6,437.3z M381.3,437.3
	c0-0.6-0.4-0.9-1.1-0.9h-1v1.9h1C380.9,438.3,381.3,437.9,381.3,437.3z"/>
<path class="st3" d="M384.4,436.4h-1.7v-1h4.6v1h-1.7v4.3h-1.2V436.4z"/>
<path class="st3" d="M392.1,439.7v1H388v-5.3h4v1h-2.8v1.2h2.5v1h-2.5v1.2L392.1,439.7z"/>
<path class="st3" d="M396.5,440.7l-1-1.5h-1.1v1.5h-1.2v-5.3h2.3c1.4,0,2.3,0.7,2.3,1.9c0,0.7-0.4,1.4-1.1,1.7l1.2,1.7H396.5z
	 M395.4,436.4h-1v1.9h1c0.8,0,1.1-0.4,1.1-0.9S396.1,436.4,395.4,436.4z"/>
<path class="st5" d="M291.6,298.8c0-0.8,0.6-1.4,1.3-1.4c0,0,0.1,0,0.1,0c0.4,0,0.7,0.1,1,0.4l-0.3,0.3c-0.2-0.2-0.5-0.3-0.8-0.3
	c-0.6,0-1,0.5-1,1c0,0.6,0.5,1,1,1c0.3,0,0.6-0.1,0.8-0.3l0.3,0.3c-0.6,0.6-1.5,0.6-2.1,0C291.7,299.5,291.5,299.1,291.6,298.8
	L291.6,298.8z"/>
<path class="st5" d="M296.9,297.4v2.7h-0.4v-1.2H295v1.2h-0.4v-2.7h0.4v1.2h1.6v-1.2H296.9z"/>
<path class="st5" d="M299.5,299.5H298l-0.3,0.7h-0.4l1.2-2.7h0.5l1.2,2.7h-0.4L299.5,299.5z M299.4,299.1l-0.6-1.3l-0.6,1.3H299.4z"
	/>
<path class="st5" d="M302.8,298.4c0,0.6-0.4,1-1.1,1H301v0.8h-0.4v-2.7h1.1C302.4,297.4,302.8,297.8,302.8,298.4z M302.4,298.4
	c0-0.4-0.3-0.6-0.8-0.6H301v1.2h0.7C302.1,299,302.4,298.8,302.4,298.4z"/>
<path class="st5" d="M303.8,297.8h-0.9v-0.3h2.3v0.3h-0.9v2.4h-0.4V297.8z"/>
<path class="st5" d="M307.5,299.8v0.3h-2v-2.7h1.9v0.3H306v0.8h1.4v0.3H306v0.9L307.5,299.8z"/>
<path class="st5" d="M310,300.1l-0.6-0.8h-0.9v0.8h-0.4v-2.7h1.1c0.7,0,1.1,0.4,1.1,1c0,0.4-0.2,0.7-0.6,0.9l0.6,0.9H310z
	 M310,298.4c0-0.4-0.3-0.6-0.8-0.6h-0.7v1.2h0.7C309.7,299,310,298.8,310,298.4L310,298.4z"/>
<path class="st5" d="M312.7,297.4v2.7h-0.4v-2.4h-0.6v-0.3H312.7z"/>
<path class="st5" d="M292,305.7h1.2v5.2H292V305.7z"/>
<path class="st5" d="M299.1,305.7v5.2h-1l-2.6-3.1v3.1h-1.2v-5.2h1l2.6,3.1v-3.1H299.1z"/>
<path class="st5" d="M301.4,306.7h-1.6v-1h4.5v1h-1.6v4.2h-1.2V306.7z"/>
<path class="st5" d="M308.2,310.9l-1-1.4h-1.1v1.4h-1.2v-5.2h2.2c1.4,0,2.2,0.7,2.2,1.9c0,0.7-0.4,1.4-1.1,1.6l1.2,1.7H308.2z
	 M307.1,306.7h-1v1.8h1c0.7,0,1.1-0.3,1.1-0.9S307.8,306.7,307.1,306.7z"/>
<path class="st5" d="M310,308.3c-0.1-1.6,1.1-2.9,2.7-3c1.6-0.1,2.9,1.1,3,2.7s-1.1,2.9-2.7,3c0,0-0.1,0-0.1,0
	c-1.5,0.1-2.7-1-2.8-2.5C310,308.4,310,308.3,310,308.3z M314.4,308.3c0-0.9-0.8-1.6-1.6-1.6c-0.9,0-1.6,0.8-1.6,1.6
	c0,0.9,0.7,1.6,1.6,1.6c0.9,0,1.6-0.7,1.6-1.5C314.4,308.4,314.4,308.3,314.4,308.3z"/>
<path class="st5" d="M316.5,305.7h2.3c1.4-0.1,2.7,0.9,2.8,2.4c0.1,1.4-0.9,2.7-2.4,2.8c-0.2,0-0.3,0-0.5,0h-2.3V305.7z
	 M318.8,309.9c0.9,0,1.6-0.7,1.6-1.6s-0.7-1.6-1.6-1.6h-1.1v3.2H318.8z"/>
<path class="st5" d="M322.6,308.6v-2.9h1.2v2.9c0,1,0.4,1.4,1.1,1.4s1.1-0.4,1.1-1.4v-2.9h1.2v2.9c0.1,1.3-0.9,2.4-2.2,2.5
	s-2.4-0.9-2.5-2.2C322.6,308.8,322.6,308.7,322.6,308.6z"/>
<path class="st5" d="M328.1,308.3c0.1-1.6,1.4-2.8,3-2.7c0.7,0,1.4,0.4,1.9,0.9l-0.8,0.7c-0.3-0.4-0.8-0.6-1.3-0.6
	c-0.9,0-1.6,0.7-1.6,1.7c0,0.9,0.7,1.6,1.6,1.6c0.5,0,1-0.2,1.3-0.6l0.8,0.7c-1.1,1.2-2.8,1.2-4,0.2
	C328.5,309.7,328.2,309,328.1,308.3z"/>
<path class="st5" d="M334.9,306.7h-1.6v-1h4.5v1H336v4.2h-1.2L334.9,306.7z"/>
<path class="st5" d="M338.3,305.7h1.2v5.2h-1.2V305.7z"/>
<path class="st5" d="M340.4,308.3c-0.1-1.6,1.1-2.9,2.7-3c1.6-0.1,2.9,1.1,3,2.7s-1.1,2.9-2.7,3c0,0-0.1,0-0.1,0
	c-1.5,0.1-2.7-1-2.8-2.5C340.4,308.4,340.4,308.3,340.4,308.3z M344.9,308.3c0-0.9-0.8-1.6-1.6-1.6c-0.9,0-1.6,0.8-1.6,1.6
	c0,0.9,0.7,1.6,1.6,1.6c0.9,0,1.6-0.7,1.6-1.5C344.9,308.4,344.9,308.3,344.9,308.3z"/>
<path class="st5" d="M351.7,305.7v5.2h-1l-2.6-3.1v3.1H347v-5.2h1l2.6,3.1v-3.1H351.7z"/>
<path class="st0" d="M366.1,332.1h2.1c0.3,0,0.5,0.2,0.5,0.5c0,0.1,0,0.2-0.1,0.3l-1.1,1.5c-0.1,0.2-0.4,0.3-0.6,0.1
	c0,0-0.1-0.1-0.1-0.1l-1-1.5c-0.2-0.2-0.1-0.5,0.1-0.7C365.9,332.2,366,332.2,366.1,332.1z"/>
<path class="st5" d="M434.8,318.2c0,0,0.2,0,0.6,0h1.8v0.1c-7.8,0.1-36.8,0.2-71.5,0.2l-52.2-0.1l-15.8-0.1h-4.3h-1.1
	c-0.1,0-0.3,0-0.4,0h0.4h1.1l4.3,0l15.8-0.1l52.2-0.1c34.6,0,63.7,0.1,71.5,0.2v0.1h-1.8C435,318.2,434.8,318.2,434.8,318.2z"/>
<path class="st5" d="M437.3,326.3c0,0.1-32.4,0.3-72.3,0.3s-72.3-0.1-72.3-0.3s32.4-0.3,72.3-0.3S437.3,326.2,437.3,326.3z"/>
<path class="st0" d="M436.9,337.6c0,0.1-32.4,0.3-72.3,0.3s-72.3-0.1-72.3-0.3s32.4-0.3,72.3-0.3S436.9,337.5,436.9,337.6z"/>
<path class="st9" d="M437.4,199.2l4.3-5.8l4.8-7.9l3.1-7.1c0,0,0.1-0.8-1-0.9s-2.8,3.8-2.8,3.8l-1.7,2.7c0,0-1.8,1.7-1.9,1.4
	s1.9-4.1,1.9-4.1l3.7-8.5c0.1-0.6-0.3-1.2-0.9-1.4c-0.6-0.2-1.5,0.3-2.2,1.5s-1.5,3.4-1.9,4s-2.5,4.6-2.5,4.6l3.2-10.1
	c0,0,1.4-3,0-3.4s-2,2.1-2.5,3s-2.8,7.7-4,9.2s-0.9,0.5-0.9,0.5l2.1-5.5c0.9-2.4,1-4.2,0.1-4.9s-2.9,4.9-2.9,4.9l-3.1,7.8l-1.9,1.9
	l-0.2-3c0,0,1.7-2.6,0.8-4.7s-2.1-1.2-2.1-1.2l-3.8,11.8c-0.4,2.1,2.6,7.9,2.6,7.9l-6,10.4c0,0,9.9,6.5,10.4,6.4
	S437.4,199.2,437.4,199.2z"/>
<path class="st10" d="M436.4,193.3c-0.2-0.6-0.4-1.3-0.6-2c-0.3-1.6-1.3-3-2.6-4c-0.7-0.4-1.5-0.7-2.3-0.6h-0.3v-0.3
	c-0.1-1.3-0.2-2.5-0.3-3.3s0-1.3,0-1.3c0.1,0.4,0.2,0.9,0.3,1.3c0.2,1.1,0.4,2.2,0.5,3.4l-0.3-0.3c0.9-0.1,1.8,0.1,2.6,0.6
	c0.9,0.5,1.5,1.3,2,2.2c0.4,0.7,0.6,1.5,0.8,2.2C436.4,191.9,436.4,192.6,436.4,193.3z"/>
<path class="st5" d="M346.8,107c0.9-1.7,2.7-2.6,4.6-2.4c2.2-1.7,5.3-1.7,7.5,0c2.6-1.6,5.9-0.8,7.5,1.8c0.5,0.8,0.8,1.6,0.8,2.5
	c2.5-0.5,4.8,1.2,5.3,3.7c0.3,1.4-0.2,2.9-1.2,3.9c2.3,0.7,3.6,3.2,2.9,5.5c-0.6,2-2.5,3.3-4.6,3.1l-22-12.9
	C346.4,110.8,346,108.7,346.8,107z"/>
<path class="st9" d="M370.4,125.6c-1-9.6-9.2-16.9-18.9-16.7h-1c-10.4,0.8-15.5,10.1-14.3,20.4l2.2,34.5l1.5,4.3l17.8,22.4l4.5-20.1
	l0.1-9.4c0,0,9.9-1.8,9.9-11.7C372.2,144.5,371.3,134.6,370.4,125.6z"/>
<path class="st10" d="M362.4,161.1c-4.6,0.1-9.1-1.2-13-3.6c0,0,3.2,7.1,13,6.1L362.4,161.1z"/>
<path class="st5" d="M366.4,135.5c0,0.8-0.6,1.4-1.4,1.5c-0.7,0.1-1.4-0.5-1.5-1.2c0,0,0,0,0,0c0-0.8,0.6-1.4,1.3-1.5
	C365.7,134.1,366.3,134.7,366.4,135.5C366.4,135.5,366.4,135.5,366.4,135.5z"/>
<path class="st5" d="M368.5,131.1c-0.2,0.2-1.3-0.6-2.8-0.6s-2.6,0.8-2.8,0.6s0.1-0.4,0.6-0.8c0.7-0.5,1.4-0.7,2.2-0.7
	c0.8,0,1.6,0.2,2.2,0.7C368.4,130.6,368.5,131,368.5,131.1z"/>
<path class="st5" d="M353.1,135.9c0,0.8-0.6,1.4-1.3,1.5c-0.7,0.1-1.4-0.5-1.5-1.2c0,0,0,0,0,0c0-0.8,0.6-1.4,1.3-1.5
	C352.4,134.5,353.1,135.1,353.1,135.9C353.1,135.8,353.1,135.9,353.1,135.9z"/>
<path class="st5" d="M353.8,131.2c-0.2,0.2-1.3-0.6-2.8-0.6s-2.6,0.8-2.8,0.6s0.1-0.4,0.6-0.8c0.7-0.5,1.4-0.7,2.3-0.7
	c0.8,0,1.6,0.2,2.2,0.7C353.7,130.7,353.9,131.1,353.8,131.2z"/>
<path class="st5" d="M359.1,142.4c0.8-0.3,1.6-0.4,2.5-0.5c0.4,0,0.8-0.1,0.8-0.4c0-0.4-0.1-0.8-0.3-1.1c-0.4-0.9-0.8-1.9-1.2-3
	c-1.7-4.2-2.9-7.7-2.8-7.7s1.7,3.3,3.4,7.5l1.2,3c0.3,0.5,0.3,1,0.2,1.5c-0.1,0.3-0.3,0.5-0.6,0.6c-0.2,0.1-0.4,0.1-0.7,0.1
	C360.8,142.5,359.9,142.5,359.1,142.4z"/>
<path class="st5" d="M353.7,126.8c-0.2,0.4-1.5,0.1-3.1,0.1s-2.9,0.4-3.1,0c-0.1-0.2,0.2-0.6,0.7-0.9c0.7-0.4,1.5-0.7,2.4-0.7
	c0.8,0,1.6,0.2,2.4,0.6C353.5,126.2,353.8,126.6,353.7,126.8z"/>
<path class="st5" d="M368,126.9c-0.2,0.4-1.3,0.1-2.6,0.2s-2.3,0.5-2.6,0.1c-0.1-0.2,0-0.5,0.4-0.9c0.6-0.5,1.3-0.7,2-0.8
	c0.7-0.1,1.5,0.1,2.1,0.5C367.9,126.3,368.1,126.7,368,126.9z"/>
<path class="st5" d="M369.3,121.1c0,0-2.8-6.2-5.8-7.6c-3.7-1.7-5.2,2.3-8.7,1.4s-7-2.5-10.5,0.2c-3.8,3-2,5-2.1,9.5
	c-0.6,18-3.8,23.1-4.9,14.7c-0.1-0.9-2.7-1.6-3.2-5.5c-0.6-5.1-0.9-11.2,0.1-14.8c0.9-3,2.6-5.2,5.6-7.6c4.8-3.8,11.5-4,16.1-3.6
	S369.6,113.3,369.3,121.1z"/>
<path class="st9" d="M338,139c-0.1-1.5-1.4-2.6-2.9-2.6c-0.1,0-0.1,0-0.1,0c-1.9,0.2-3.9,1.3-3.7,5.1c0.4,6.8,7.1,5.1,7.1,4.9
	S338.2,141.9,338,139z"/>
<path class="st10" d="M336.8,144c0,0-0.1,0.1-0.3,0.2c-0.3,0.1-0.6,0.2-0.9,0.1c-0.9-0.5-1.5-1.5-1.5-2.6c-0.1-0.6,0-1.2,0.2-1.7
	c0.1-0.5,0.4-0.8,0.8-1c0.3-0.1,0.6,0,0.7,0.3c0.1,0.2,0.1,0.3,0.1,0.3s0.1-0.1,0.1-0.4c0-0.2-0.1-0.3-0.3-0.4
	c-0.2-0.1-0.4-0.2-0.7-0.1c-0.6,0.1-1,0.6-1.2,1.1c-0.3,0.6-0.4,1.3-0.3,1.9c0.1,1.4,0.9,2.6,1.9,2.9c0.4,0.1,0.8,0,1.1-0.2
	C336.8,144.2,336.9,144,336.8,144z"/>
<path class="st5" d="M337.9,125.8c0.8,0.7,1.8,1.1,2.9,1.3c1.1,0.2,2.1-0.5,2.4-1.6c0.1-0.5-0.1-1,0.2-1.4s1.1-0.3,1.6-0.3
	c2.1,0.1,3.9-1.2,4.5-3.2c0.6,0.7,1.7,0.8,2.5,0.2c0.7-0.6,1.3-1.3,1.8-2c0.5-0.8,1.4-1.2,2.3-1.2c0.5,0.2,1,0.3,1.5,0.3
	c0.9-0.1,1.3-1.2,1.4-2s0.2-1.9,1-2.4c0.8-0.3,1.6-0.4,2.4-0.1c0.8,0.1,1.9-0.1,2.1-0.9c0.1-0.4-0.1-0.9-0.3-1.2
	c-1.2-1.7-3.3-2.3-5.2-1.6c-1-3.1-4.4-4.9-7.6-3.8c-1.5,0.5-2.7,1.5-3.4,2.9c-2.5-2.2-6.4-1.9-8.6,0.6c-0.5,0.5-0.8,1.2-1.1,1.8
	c-2.4-0.6-4.7,0.9-5.3,3.2c-0.3,1.1-0.1,2.3,0.5,3.3c-1.3,0.7-2.1,1.9-2.2,3.4c0,1.4,1.4,2.8,2.8,2.4c-0.6,1.2-0.1,2.7,1.1,3.3
	c1.1,0.5,2.5,0.2,3.1-0.9"/>
<path class="st6" d="M333.5,123.3c0,0.5,0.1,1,0.5,1.3c0.3,0.4,0.8,0.7,1.4,0.8c0.7,0.1,1.4-0.1,1.9-0.6h-0.3
	c0.4,0.6,0.8,1.2,1.4,1.7c0.4,0.3,0.8,0.6,1.3,0.7c0.4,0.2,0.9,0.2,1.4,0.1c0.8-0.1,1.5-0.5,1.9-1.2c0.3-0.4,0.4-0.9,0.5-1.4
	c0.1-0.3,0.1-0.6,0-0.6c-0.1,0.2-0.1,0.3-0.2,0.5c-0.1,0.5-0.3,0.9-0.6,1.3c-1,1.2-2.7,1.3-3.9,0.3c-0.1-0.1-0.1-0.1-0.2-0.2
	c-0.5-0.5-1-1-1.3-1.6l-0.1-0.2l-0.2,0.2c-0.4,0.4-1,0.6-1.6,0.6c-0.5,0-0.9-0.3-1.3-0.6C333.8,124.1,333.6,123.7,333.5,123.3z"/>
<path class="st6" d="M346,107.4c0,0,0.2,0,0.5,0.2c0.4,0.2,0.8,0.5,1.1,0.9l0.1,0.1l0.1-0.1c0.8-1.2,1.9-2.1,3.2-2.7
	c0.8-0.4,1.7-0.6,2.7-0.6c1,0,2,0.2,2.9,0.8c0.7,0.4,1.3,0.9,1.8,1.6c0.4,0.6,0.7,1.3,0.8,2v0.2l0.2-0.1c1.7-0.5,3.6,0.3,4.4,1.9
	c0.3,0.6,0.4,1.3,0.5,2c0.1-0.2,0.1-0.4,0.1-0.6c0-0.5-0.1-1.1-0.3-1.5c-0.3-0.8-0.9-1.4-1.6-1.8c-0.9-0.5-2.1-0.7-3.1-0.4l0.2,0.2
	c-0.1-0.8-0.4-1.6-0.8-2.2c-0.5-0.7-1.1-1.3-1.9-1.7c-0.9-0.6-2-0.8-3.1-0.8c-1,0-1.9,0.3-2.8,0.7c-1.3,0.7-2.5,1.7-3.3,2.9h0.2
	c-0.3-0.4-0.7-0.7-1.2-0.9C346.3,107.4,346.2,107.4,346,107.4z"/>
<path class="st10" d="M355,144.8c0,0-2,4.1,2.2,5.1c0.4,0.1,0.8,0.1,1.1-0.1l0,0c0.7-0.2,1.2-0.8,1.3-1.4l0.6-2.2
	C360.1,146.2,355,144.8,355,144.8z"/>
<path class="st5" d="M358.7,149.7c0,0.1-0.1,0.2-0.5,0.4c-0.5,0.2-1.1,0.2-1.6,0c-0.8-0.2-1.5-0.6-2-1.3c-0.3-0.4-0.4-0.9-0.5-1.4
	c-0.1-0.5-0.1-1,0-1.6c0.1-0.5,0.3-1,0.5-1.4l0.2-0.4l0.4,0.1c3,0.9,5.2,1.8,5.1,2s-2.4-0.2-5.4-1.1l0.6-0.3
	c-0.2,0.4-0.3,0.8-0.4,1.2c-0.1,0.4-0.1,0.8,0,1.2c0,0.3,0.2,0.7,0.3,1c0.4,0.5,0.9,0.9,1.5,1.1c0.4,0.2,0.8,0.3,1.3,0.3
	C358.5,149.6,358.7,149.6,358.7,149.7z"/>
<polygon class="st3" points="383.7,273.5 373.9,184.2 365.7,166.7 362.5,163.5 360.5,171.3 357.7,181.2 350.2,171.6 338.3,162.3 
	338,166.9 332.3,183.8 337.1,227.8 337.1,273.4 "/>
<path class="st5" d="M362.3,273.4c0,0,0-0.1,0-0.2s0-0.4,0-0.7c0-0.6-0.1-1.5-0.1-2.7c-0.1-2.4-0.2-5.7-0.3-9.9
	c-0.3-8.3-0.8-19.8-1.4-32.5s-1.4-24.1-2-32.4c-0.3-4.1-0.5-7.5-0.7-9.8c-0.1-1.1-0.1-2-0.2-2.7c0-0.3,0-0.5,0-0.7
	c0-0.1,0-0.2,0-0.2v0.2c0,0.2,0,0.4,0.1,0.7c0.1,0.6,0.1,1.5,0.3,2.7c0.2,2.3,0.5,5.7,0.8,9.8c0.6,8.3,1.4,19.8,2.1,32.4
	s1.1,24.1,1.3,32.5c0.1,4.1,0.2,7.5,0.2,9.8c0,1.1,0,2,0,2.7v0.7C362.3,273.2,362.3,273.3,362.3,273.4z"/>
<path class="st6" d="M343.1,273.1c-0.1-3.4-0.1-6.9,0.2-10.3c0.4-7,0.8-19.5,0.1-27c-1.2-14-3.8-37-4-43.1s-1.2-29-1.2-29l-1.7,3
	l-2.8,3.8L309,182.4l13.7,42.8l4.5,16.9l-7.8,31.5"/>
<path class="st6" d="M379.5,273.8c-0.2-4.4-4.8-40.9-4.8-40.9l-6.1-57.2l-4.6-11.2l7.5,4.4l24.1,7.9l-1.9,17.1l-1.1,44.2l5.1,35.5"
	/>
<path class="st5" d="M372,168.8c0.1,0.1,0.2,0.2,0.3,0.3l0.8,1l3.1,3.9l0.1,0.1l-0.1,0.1l-2.6,2v-0.2l3.1,1h0.1v0.1
	c-0.1,5.5-0.1,12.4-0.2,19.9c-0.1,9.1-0.3,17.4-0.3,23.4c-0.1,3-0.1,5.4-0.1,7.1l0,1.9v0.5c0,0.1,0,0.2,0,0.2c0-0.1,0-0.1,0-0.2
	v-0.5c0-0.5,0-1.1,0-1.9c0-1.7,0-4.1,0-7.1c0.1-6,0.1-14.3,0.2-23.4c0.1-7.5,0.2-14.4,0.3-19.9l0.1,0.1l-3.1-1l-0.2-0.1l0.2-0.1
	l2.6-2v0.1l-3-3.9l-0.8-1C372.2,169.1,372.1,168.9,372,168.8z"/>
<path class="st5" d="M342,228.7l-0.1-0.2c0-0.1-0.1-0.3-0.2-0.5c-0.1-0.5-0.4-1.1-0.6-1.9c-0.5-1.6-1.3-4-2.4-6.9l-1.7-4.8
	c-0.7-1.8-1.2-3.7-1.7-5.5c-1-4.3-1.8-8.7-2.4-13.1c-0.8-6.1-1.4-11.8-1.7-16.8V179h0l2.7-2.6v0.2l-2.5-1.9l-0.1-0.1l0.1-0.1
	l4.5-6.2l1.3-1.7l0.3-0.4l0.1-0.1c0,0,0,0.1-0.1,0.2l-0.3,0.4l-1.2,1.7l-4.5,6.2v-0.2l2.5,1.9l0.1,0.1l-0.1,0.1l-2.6,2.6l0-0.1
	c0.4,4.9,0.9,10.7,1.8,16.7c0.6,4.4,1.4,8.7,2.4,13c0.5,1.9,1,3.7,1.7,5.5c0.6,1.7,1.1,3.3,1.7,4.8c1,2.9,1.8,5.3,2.3,7
	c0.3,0.8,0.4,1.5,0.6,1.9l0.1,0.5C342,228.6,342,228.7,342,228.7z"/>
<g class="st11">
	<polygon points="322.6,260.2 335.7,265.3 336.6,262.4 343.1,267.8 343.4,259.7 337.7,251.7 323.6,256.3 	"/>
</g>
<path class="st9" d="M367.1,260.1l-5.3-3.2l-4.7-4.2c1.1,0.9,2.3,1.6,3.6,2c1.3,0.4,2.7-0.1,3.4-1.3c0,0-1.9-1.2-2.6-1.6
	s-7.3-5.3-9-5.7s-12.8-2.6-12.8-2.6l-0.2,0.6l-5.5,11.7l4.9,1.3c0.9,1.3,1.8,2.7,2.5,4.1c1.1,2.2,6.4,4.4,8.5,5.4s4.4-0.8,4.4-0.8
	c2.4,0.5,2.9-2,2.9-2c2.7-0.4,2.9-3.3,2.9-3.3c2.1,0.8,4.2,1.6,6.4,2.2c0.5,0.1,1-0.1,1.1-0.6C368,261.3,367.8,260.5,367.1,260.1z"
	/>
<path class="st10" d="M360.3,260.4c-1.1-0.3-2.1-0.8-3.1-1.4c-1-0.5-2-1.2-2.8-2c0.1-0.1,1.3,0.8,2.9,1.7
	C358.3,259.2,359.3,259.8,360.3,260.4z"/>
<path class="st10" d="M351.6,260c1.1,0.5,2.1,1.1,3,1.8c1,0.6,2,1.3,2.9,2.1c-1.1-0.5-2.1-1.1-3.1-1.8
	C353.5,261.5,352.5,260.8,351.6,260z"/>
<path class="st10" d="M349.5,262.2c0.1-0.1,1.1,0.8,2.5,1.7c0.9,0.5,1.7,1.1,2.4,1.8c-0.9-0.4-1.8-0.9-2.6-1.5
	C350.9,263.7,350.1,263,349.5,262.2z"/>
<path class="st10" d="M350.9,248c0.4,0,0.8,0.1,1.2,0.3c0.9,0.3,1.8,0.8,2.5,1.4c0.8,0.6,1.5,1.3,2,2.1c0.3,0.3,0.5,0.6,0.6,1
	c-0.9-1-1.9-1.9-2.9-2.8C353.3,249.1,352.1,248.5,350.9,248z"/>
<path class="st6" d="M299.6,246.4c-1.4-0.9-2.3-2.4-2.3-4.1c0-2.3,0.1-4.6,0.4-6.9c0.9-7.8,11.3-53,11.3-53l15.2,35.3l-4.4,15.3
	l22.5,10.8l-6.2,17.6C336,261.4,306.2,250.5,299.6,246.4z"/>
<path class="st6" d="M425.6,193.1l-11.7,18.3l-18.2-34.6l-6.3,23.3l3.6,16.4l13.4,20c2.2,3.3,9.3,4.6,13.9-0.7l19.8-32.9
	L425.6,193.1z"/>
<path class="st5" d="M393.1,187.9c0,0.2,0,0.3,0,0.5c0,0.4,0,0.8,0,1.4c0,1.3,0.1,3,0.1,5.2c0,4.4,0.1,10.5,0,17.2
	s-0.2,12.8-0.3,17.2c-0.1,2.2-0.1,3.9-0.2,5.2c0,0.6,0,1.1-0.1,1.4c0,0.2,0,0.3,0,0.5c0-0.2,0-0.3,0-0.5c0-0.4,0-0.8,0-1.4
	c0-1.3,0-3,0.1-5.2c0.1-4.4,0.2-10.5,0.3-17.2s0.2-12.8,0.2-17.2c0-2.2,0-3.9,0-5.2c0-0.6,0-1.1,0-1.4
	C393,188.2,393,188.1,393.1,187.9z"/>
<path class="st5" d="M314.9,192.8c0.1,0.1,0.1,0.3,0.1,0.4l0.3,1.2c0.3,1,0.7,2.5,1.2,4.3c1,3.6,2.4,8.6,3.8,14.1s2.5,10.6,3.2,14.2
	c0.4,1.8,0.6,3.3,0.8,4.4c0.1,0.5,0.1,0.9,0.2,1.2c0,0.1,0,0.3,0,0.4c-0.1-0.1-0.1-0.3-0.1-0.4l-0.2-1.2c-0.2-1.1-0.5-2.5-0.9-4.3
	c-0.8-3.6-1.9-8.7-3.3-14.2s-2.7-10.5-3.7-14.1c-0.5-1.8-0.8-3.2-1.1-4.3c-0.1-0.5-0.2-0.9-0.3-1.2
	C314.9,193.1,314.9,192.9,314.9,192.8z"/>
<path class="st5" d="M307.1,250l0.1,0.1l0.4,0.1l1.6,0.6l6,2.3l20.8,8.1l-0.2,0.1c1.3-3.7,2.7-7.7,4.2-11.8l2.1-5.8l0.1,0.2
	L320,233.2l0,0c-1.7-0.5-3.5-0.8-5.2-0.6c-1.3,0.1-2.6,0.5-3.9,1c-0.8,0.3-1.5,0.7-2.3,1.2l-0.5,0.4c-0.1,0.1-0.2,0.1-0.2,0.1
	l0.2-0.1l0.5-0.4c0.7-0.5,1.5-0.9,2.2-1.3c2.9-1.3,6.2-1.5,9.3-0.5l0,0l22.2,10.6l0.1,0.1l0,0.1l-2.1,5.8l-4.2,11.8l0,0.2l-0.2-0.1
	l-20.7-8.2l-6-2.4l-1.6-0.7l-0.4-0.2C307.1,250,307,250,307.1,250z"/>
<path class="st5" d="M357.5,180.8c-0.2-0.2-0.4-0.4-0.6-0.6l-1.7-1.7l-5.6-5.8h0.3c-0.7,0.9-1.2,2-1.5,3.1c-0.1,0.6-0.2,1.2-0.1,1.8
	v0.4l-0.3-0.3c-2.9-2.3-5.2-4.6-6.9-6.1l-2-1.8c-0.3-0.2-0.5-0.4-0.7-0.7c0.3,0.2,0.6,0.4,0.8,0.6c0.5,0.4,1.2,1,2.1,1.8
	c1.8,1.5,4.1,3.8,7,6l-0.3,0.1c0-0.6,0-1.3,0.1-1.9c0.2-1.2,0.8-2.3,1.5-3.3l0.1-0.1l0.1,0.1l5.6,5.9l1.6,1.7
	C357.2,180.4,357.3,180.6,357.5,180.8z"/>
<path class="st5" d="M365,168.2c0,0.2,0,0.4,0,0.5c0,0.4,0,0.9-0.1,1.5c-0.1,1.7-0.4,3.4-0.8,5.1l-0.1,0.4l-0.2-0.4
	c-0.6-1.1-1.3-2.1-2.2-3c-0.3-0.3-0.5-0.5-0.8-0.7l0.3-0.1c-0.5,2.3-1.2,4.6-2,6.8c-0.3,0.8-0.6,1.5-0.8,1.9
	c-0.1,0.2-0.2,0.5-0.4,0.7c0.1-0.3,0.1-0.5,0.2-0.7l0.7-2c0.8-2.2,1.4-4.5,1.9-6.8l0.1-0.3l0.2,0.2c0.3,0.2,0.5,0.5,0.8,0.7
	c0.9,0.9,1.7,2,2.2,3.1h-0.3c0.4-1.6,0.7-3.3,1-5C364.9,169,365,168.2,365,168.2z"/>
<polygon class="st6" points="385.5,257 387.5,263.3 398.9,262.2 395.4,256.2 "/>
<path class="st5" d="M385.5,257c0.2,0,0.4-0.1,0.7-0.1l2-0.2c1.7-0.2,4.2-0.4,7.2-0.6h0.1l0,0.1l3.6,6l0.1,0.2h-0.3l-0.6,0.1
	l-10.8,1h-0.1v-0.1c-0.6-2-1.1-3.5-1.4-4.6l-0.4-1.3C385.6,257.2,385.5,257,385.5,257c0.1,0,0.1,0.2,0.2,0.5s0.3,0.8,0.4,1.3
	l1.5,4.5l-0.1-0.1l10.8-1h0.6l-0.1,0.3l-3.5-6l0.1,0.1c-2.9,0.2-5.3,0.4-7.1,0.5l-2,0.1C385.8,257,385.5,257,385.5,257z"/>
<rect x="378.4" y="207.4" class="st6" width="12.2" height="3.9"/>
<path class="st5" d="M390.7,211.4c0,0,0-0.1,0-0.3s0-0.5,0-0.8c0-0.7,0-1.7-0.1-2.9l0.1,0.1c-2.9,0-7.3,0.1-12.2,0.1
	c0.1-0.1-0.2,0.2,0.2-0.2l0,0v3.9l-0.2-0.2c3.5,0,6.5,0.1,8.7,0.1h2.6c0.6,0,1,0,1,0c-0.3,0-0.6,0-0.9,0h-2.5
	c-2.2,0-5.3,0.1-8.8,0.1h-0.2v-4.1l0,0l0.2-0.2c4.9,0,9.3,0,12.2,0.1h0.1v0.1c0,1.2,0,2.2-0.1,2.9
	C390.8,210.6,390.7,211,390.7,211.4z"/>
<g class="st11">
	<path d="M376.5,177.1l1.9,2.6c0,0-0.5,39.3-2.5,49L376.5,177.1z"/>
</g>
<path class="st3" d="M384.5,147.9l3.6-6.1c-4-11.8,2.3-24.7,14.2-28.7c11.8-4,24.7,2.3,28.7,14.2c4,11.8-2.3,24.7-14.2,28.7
	c-8.9,3-18.8,0.2-24.8-7.1l0,0L384.5,147.9z"/>
<path class="st5" d="M384.5,147.9l0.5,0.1l1.5,0.2l5.6,0.7l-0.1,0.1l0,0c0,0,0-0.1,0-0.1c0,0,0.1,0,0.1,0c2.4,2.9,5.5,5.1,9,6.5
	c2.2,0.9,4.6,1.4,7,1.6c5.8,0.4,11.4-1.5,15.8-5.2c8.2-6.8,10.4-18.5,5.3-27.8c-1.7-3.2-4.2-6-7.2-8c-2.9-1.9-6.2-3.2-9.6-3.6
	c-3.2-0.4-6.5-0.1-9.6,0.9c-11.8,3.8-18.4,16.5-14.6,28.3c0,0.1,0.1,0.2,0.1,0.3c0,0,0,0,0,0.1l-2.7,4.5c-0.3,0.5-0.5,0.9-0.7,1.2
	S384.4,147.8,384.5,147.9l0.2-0.4l0.7-1.2l2.6-4.6v0.1c-1.2-3.6-1.5-7.4-0.9-11.1c2.1-12,13.2-20.3,25.3-18.8
	c3.5,0.5,6.9,1.7,9.8,3.7c3.1,2.1,5.6,4.8,7.4,8.1c6,11.1,1.8,24.9-9.2,30.9c-1.3,0.7-2.7,1.3-4.1,1.7c-2.6,0.8-5.4,1.1-8.2,0.9
	c-2.4-0.1-4.8-0.7-7.1-1.6c-3.5-1.4-6.6-3.7-9-6.7l0.1-0.1l0,0c0,0,0,0.1,0,0.1c0,0,0,0,0,0h0l-5.6-0.8L385,148L384.5,147.9z"/>
<path class="st5" d="M403.5,134.5c0,1.2-1,2.2-2.1,2.2s-2.1-1-2.1-2.1c0-1.2,1-2.2,2.1-2.2l0,0C402.5,132.3,403.5,133.3,403.5,134.5
	z"/>
<path class="st5" d="M412.1,134.5c0,1.2-1,2.2-2.1,2.2s-2.1-1-2.1-2.1c0-1.2,1-2.2,2.1-2.2l0,0C411.1,132.3,412.1,133.3,412.1,134.5
	z"/>
<path class="st5" d="M420.7,133.4c0.6,1,0.3,2.3-0.8,2.9c-1,0.6-2.3,0.3-2.9-0.8c-0.6-1-0.3-2.3,0.8-2.9c0,0,0,0,0,0
	C418.8,132.1,420.1,132.4,420.7,133.4z"/>
<circle class="st7" cx="367.8" cy="203.6" r="14.9"/>
<path class="st3" d="M364.2,208v-8.8c0-0.3,0.3-0.6,0.6-0.5c0.1,0,0.2,0,0.3,0.1l7.8,4.4c0.3,0.1,0.4,0.5,0.2,0.8
	c-0.1,0.1-0.1,0.2-0.2,0.2l-7.8,4.3c-0.3,0.2-0.6,0.1-0.8-0.2C364.3,208.2,364.2,208.1,364.2,208z"/>
<rect x="274.7" y="274.4" class="st0" width="180.3" height="15.1"/>
<path class="st3" d="M438.1,282.3H293.7v-0.7h144.4c0.2,0,0.3,0.2,0.3,0.4l0,0C438.5,282.2,438.3,282.3,438.1,282.3
	C438.1,282.3,438.1,282.3,438.1,282.3z"/>
<path class="st7" d="M317.7,282.8h-23.1c-0.5,0-0.9-0.4-0.9-1l0,0c0-0.5,0.4-0.9,0.9-0.9l0,0h23.1V282.8z"/>
<path class="st7" d="M319.4,281.9c0,1.3-1.1,2.4-2.4,2.4s-2.4-1.1-2.4-2.4s1.1-2.4,2.4-2.4h0C318.3,279.5,319.4,280.6,319.4,281.9z"
	/>
<polygon class="st5" points="446,281.6 445.4,281.6 445.4,279.9 447.1,279.9 447.1,280.5 446,280.5 "/>
<polygon class="st5" points="447.1,283.9 445.4,283.9 445.4,282.1 446,282.1 446,283.3 447.1,283.3 "/>
<polygon class="st5" points="449.9,283.9 448.1,283.9 448.1,283.3 449.3,283.3 449.3,282.1 449.9,282.1 "/>
<polygon class="st5" points="449.9,281.6 449.3,281.6 449.3,280.5 448.1,280.5 448.1,279.9 449.9,279.9 "/>
<path class="st5" d="M283.3,284.9v-5.8c0-0.2,0.2-0.4,0.4-0.4c0.1,0,0.1,0,0.2,0l5.2,2.9c0.2,0.1,0.2,0.3,0.1,0.5
	c0,0.1-0.1,0.1-0.1,0.1l-5.2,2.9c-0.2,0.1-0.4,0-0.5-0.1C283.3,285,283.3,284.9,283.3,284.9z"/>
<path class="st7" d="M298.8,350.2h11.4c4.1,0,7.4,3.3,7.4,7.4v11.4c0,4.1-3.3,7.4-7.4,7.4h-11.4c-4.1,0-7.4-3.3-7.4-7.4v-11.4
	C291.4,353.6,294.7,350.2,298.8,350.2z"/>
<path class="st3" d="M301,368.1v-9.5c0-0.3,0.3-0.6,0.6-0.6c0.1,0,0.2,0,0.3,0.1l8.5,4.8c0.3,0.2,0.4,0.5,0.2,0.8
	c-0.1,0.1-0.1,0.2-0.2,0.2l-8.5,4.7c-0.3,0.2-0.7,0-0.8-0.2C301,368.3,301,368.2,301,368.1z"/>
<path class="st5" d="M323.9,391.9c0-0.8,0.6-1.4,1.3-1.4c0,0,0.1,0,0.1,0c0.4,0,0.7,0.1,1,0.4l-0.3,0.3c-0.2-0.2-0.5-0.3-0.8-0.3
	c-0.6,0-1,0.5-1,1c0,0.6,0.5,1,1,1c0.3,0,0.6-0.1,0.8-0.3l0.3,0.3c-0.6,0.6-1.5,0.6-2.1,0C324,392.6,323.8,392.2,323.9,391.9
	L323.9,391.9z"/>
<path class="st5" d="M329.2,390.5v2.7h-0.4v-1.2h-1.6v1.2h-0.4v-2.7h0.4v1.2h1.6v-1.2H329.2z"/>
<path class="st5" d="M331.8,392.6h-1.5l-0.3,0.7h-0.4l1.2-2.7h0.4l1.2,2.7h-0.4L331.8,392.6z M331.7,392.3l-0.6-1.3l-0.6,1.3H331.7z
	"/>
<path class="st5" d="M335.1,391.5c0,0.6-0.4,1-1.1,1h-0.7v0.8h-0.4v-2.7h1.1C334.7,390.5,335.1,390.9,335.1,391.5z M334.7,391.5
	c0-0.4-0.3-0.6-0.8-0.6h-0.7v1.2h0.7C334.5,392.1,334.7,391.9,334.7,391.5z"/>
<path class="st5" d="M336.1,390.9h-0.9v-0.3h2.3v0.3h-0.9v2.4h-0.4V390.9z"/>
<path class="st5" d="M339.8,392.9v0.3h-2v-2.7h1.9v0.3h-1.5v0.8h1.4v0.3h-1.4v0.9L339.8,392.9z"/>
<path class="st5" d="M342.3,393.3l-0.6-0.8h-0.9v0.8h-0.4v-2.7h1.1c0.7,0,1.1,0.4,1.1,1c0,0.4-0.2,0.7-0.6,0.9l0.6,0.9L342.3,393.3z
	 M342.3,391.5c0-0.4-0.3-0.6-0.8-0.6h-0.7v1.2h0.7C342,392.1,342.3,391.9,342.3,391.5L342.3,391.5z"/>
<path class="st5" d="M346,392.5c0,0.5-0.3,0.8-1,0.8c-0.4,0-0.7-0.1-1-0.3l0.2-0.3c0.2,0.2,0.5,0.3,0.8,0.3c0.4,0,0.6-0.2,0.6-0.5
	s-0.2-0.5-0.7-0.5h-0.2v-0.3l0.7-0.8h-1.3v-0.3h1.8v0.3l-0.7,0.9C345.7,391.7,346,392,346,392.5z"/>
<path class="st5" d="M324,399.7c0.1-1.8,1.6-3.1,3.3-3c0.8,0,1.6,0.4,2.2,1l-0.9,0.8c-0.4-0.4-0.9-0.7-1.5-0.7c-1,0-1.9,0.8-1.9,1.9
	s0.8,1.9,1.9,1.9c0.6,0,1.1-0.2,1.5-0.7l0.9,0.8c-1.2,1.3-3.2,1.4-4.5,0.2C324.4,401.3,324,400.5,324,399.7L324,399.7z"/>
<path class="st5" d="M329.9,400.4c-0.1-1.3,0.9-2.5,2.3-2.6c1.3-0.1,2.5,0.9,2.6,2.3c0.1,1.3-0.9,2.5-2.3,2.6c0,0-0.1,0-0.1,0
	c-1.3,0.1-2.4-0.9-2.4-2.1C329.9,400.5,329.8,400.4,329.9,400.4z M333.4,400.4c0-0.6-0.6-1.1-1.2-1c-0.6,0-1.1,0.6-1,1.2
	c0,0.6,0.5,1.1,1.1,1c0.6,0,1.1-0.5,1.1-1.1C333.4,400.5,333.4,400.4,333.4,400.4z"/>
<path class="st5" d="M343.1,400.1v2.5h-1.3v-2.4c0-0.7-0.3-1-0.8-1s-1,0.4-1,1.2v2.2h-1.3v-2.4c0-0.7-0.3-1-0.8-1s-1,0.4-1,1.2v2.2
	h-1.3v-4.5h1.2v0.5c0.4-0.4,0.9-0.6,1.4-0.6c0.6,0,1.1,0.2,1.5,0.7c0.4-0.5,1-0.7,1.6-0.7c0.9-0.1,1.8,0.6,1.9,1.6
	C343.1,399.8,343.1,399.9,343.1,400.1z"/>
<path class="st5" d="M349.1,400.4c0.1,1.2-0.8,2.2-2,2.3c-0.1,0-0.1,0-0.2,0c-0.5,0-1-0.2-1.3-0.5v2.1h-1.3v-6.1h1.2v0.5
	c0.3-0.4,0.9-0.6,1.4-0.6c1.2,0,2.2,0.9,2.2,2.1C349.1,400.3,349.1,400.3,349.1,400.4z M347.8,400.4c-0.1-0.6-0.6-1.1-1.2-1
	s-1.1,0.6-1,1.2c0.1,0.6,0.5,1,1.1,1c0.6,0,1.1-0.5,1.1-1.1C347.8,400.5,347.8,400.4,347.8,400.4z"/>
<path class="st5" d="M349.6,400.4c-0.1-1.4,0.9-2.5,2.3-2.6c1.4-0.1,2.5,0.9,2.6,2.3c0.1,1.4-0.9,2.5-2.3,2.6c-0.1,0-0.1,0-0.2,0
	c-1.3,0.1-2.4-0.9-2.4-2.1C349.6,400.5,349.6,400.4,349.6,400.4z M353.2,400.4c0-0.6-0.6-1.1-1.2-1c-0.6,0-1.1,0.6-1,1.2
	c0,0.6,0.5,1.1,1.1,1c0.6,0,1.1-0.5,1.1-1.1C353.2,400.5,353.2,400.4,353.2,400.4z"/>
<path class="st5" d="M355,402.2l0.4-0.9c0.5,0.3,1,0.4,1.5,0.4c0.6,0,0.8-0.1,0.8-0.4c0-0.7-2.7,0-2.7-1.8c0-0.9,0.8-1.4,2.1-1.4
	c0.6,0,1.2,0.1,1.7,0.4l-0.4,0.9c-0.4-0.2-0.8-0.3-1.3-0.3c-0.6,0-0.8,0.2-0.8,0.4c0,0.8,2.7,0,2.7,1.8c0,0.8-0.8,1.4-2.1,1.4
	C356.3,402.7,355.6,402.5,355,402.2z"/>
<path class="st5" d="M359.6,396.8c0-0.4,0.4-0.7,0.8-0.7c0,0,0,0,0,0c0.4,0,0.8,0.2,0.8,0.6c0,0,0,0,0,0.1c0,0.4-0.5,0.8-0.9,0.7
	C359.9,397.5,359.7,397.2,359.6,396.8L359.6,396.8z M359.8,398.2h1.3v4.5h-1.3V398.2z"/>
<path class="st5" d="M365.1,402.4c-0.3,0.2-0.7,0.3-1,0.3c-0.8,0.1-1.5-0.5-1.7-1.3c0-0.1,0-0.2,0-0.3v-1.8h-0.7v-1h0.7v-1.1h1.3
	v1.1h1.1v1h-1.1v1.8c0,0.3,0.2,0.5,0.4,0.6c0,0,0.1,0,0.1,0c0.2,0,0.4-0.1,0.5-0.2L365.1,402.4z"/>
<path class="st5" d="M365.7,396.8c0-0.4,0.3-0.7,0.8-0.7c0,0,0,0,0,0c0.4,0,0.8,0.2,0.8,0.6c0,0,0,0,0,0.1c0,0.4-0.4,0.8-0.8,0.8
	C366.1,397.6,365.7,397.2,365.7,396.8L365.7,396.8z M365.9,398.2h1.3v4.5h-1.3V398.2z"/>
<path class="st5" d="M368,400.4c-0.1-1.4,0.9-2.5,2.3-2.6c1.4-0.1,2.5,0.9,2.6,2.3c0.1,1.4-0.9,2.5-2.3,2.6c-0.1,0-0.1,0-0.2,0
	c-1.3,0.1-2.4-0.9-2.4-2.1C368,400.5,368,400.4,368,400.4z M371.6,400.4c0-0.6-0.6-1.1-1.2-1c-0.6,0-1.1,0.6-1,1.2
	c0,0.6,0.5,1,1.1,1c0.6,0,1.1-0.5,1.2-1.1C371.6,400.5,371.6,400.4,371.6,400.4L371.6,400.4z"/>
<path class="st5" d="M378.3,400.1v2.5H377v-2.4c0-0.7-0.3-1-0.9-1s-1.1,0.4-1.1,1.2v2.2h-1.3v-4.5h1.3v0.5c0.4-0.4,0.9-0.6,1.5-0.6
	c1-0.1,1.8,0.7,1.9,1.6C378.3,399.9,378.3,400,378.3,400.1z"/>
<path class="st0" d="M298.8,386.8h11.4c4.1,0,7.4,3.3,7.4,7.4v11.4c0,4.1-3.3,7.4-7.4,7.4h-11.4c-4.1,0-7.4-3.3-7.4-7.4v-11.4
	C291.4,390.1,294.7,386.8,298.8,386.8z"/>
<path class="st3" d="M301,404.6v-9.5c0-0.3,0.3-0.6,0.6-0.6c0.1,0,0.2,0,0.3,0.1l8.5,4.8c0.3,0.2,0.4,0.6,0.2,0.8
	c0,0.1-0.1,0.1-0.2,0.2l-8.5,4.7c-0.3,0.2-0.7,0.1-0.8-0.2C301,404.8,301,404.7,301,404.6z"/>
<path class="st5" d="M424.4,373.6c0,0.1-21.9,0.3-48.8,0.3s-48.8-0.1-48.8-0.3s21.8-0.3,48.8-0.3S424.4,373.5,424.4,373.6z"/>
<path class="st5" d="M409,408.8c0,0.1-19,0.3-42.3,0.3s-42.3-0.1-42.3-0.3s18.9-0.3,42.3-0.3S409,408.6,409,408.8z"/>
<path class="st5" d="M435.5,467.6l0.7,0c0.7,0,1.4-0.1,2.1-0.2c2.7-0.4,5.4-1.4,7.7-2.9c3.8-2.4,6.7-6.1,8.1-10.4
	c0.2-0.6,0.4-1.3,0.5-2s0.2-1.4,0.3-2.1s0.1-1.4,0.1-2.2s0-1.5,0-2.3c0-3.1,0-6.3,0-9.8c0-27.7,0-67.7-0.1-117.1S455,210.4,455,145
	v-37.5c0.1-2.1,0-4.2-0.3-6.3c-0.3-2.1-1-4.1-2-6c-2-3.8-5.2-6.8-9.1-8.6c-2-0.9-4-1.4-6.2-1.6c-2.1-0.2-4.3-0.1-6.5-0.1H294.4
	c-4.7,0-9.2,1.7-12.8,4.8c-3.5,3-5.8,7.3-6.5,11.9c-0.2,2.3-0.3,4.6-0.2,6.9v20.8c0,18.4,0,36.5,0,54.3c0,35.6,0,69.9,0,102.6
	s0,63.8,0,92.9c0,14.5,0,28.6,0,42.1c0,6.8,0,13.4,0,19.8v4.8c-0.1,1.6,0,3.2,0.2,4.7c0.4,3.1,1.5,6,3.3,8.6c1.8,2.5,4,4.5,6.7,6
	c2.6,1.4,5.5,2.2,8.5,2.3c5.9,0.1,11.6,0,17.2,0h31.5h50.4h31.8h8.3h2.8h-2.8h-8.3l-31.8,0h-50.4h-31.5c-5.6,0-11.3,0-17.2,0
	c-3-0.1-6-0.9-8.6-2.4c-2.7-1.5-5-3.6-6.8-6.1c-1.8-2.6-3-5.6-3.4-8.7c-0.2-1.6-0.2-3.2-0.2-4.8v-24.4c0-13.5,0-27.5,0-42.1
	c0-29.1,0-60.1,0-92.9s0-67,0-102.6v-75.1c-0.1-2.3,0-4.7,0.2-7c1.4-9.8,9.8-17.1,19.8-17.1H431c2.2,0,4.4-0.1,6.6,0.1
	c2.2,0.2,4.3,0.8,6.3,1.7c4,1.8,7.2,4.9,9.3,8.8c1,1.9,1.7,4,2,6.1c0.3,2.1,0.4,4.3,0.3,6.4v12.6c0,8.4,0,16.7,0,24.8
	c0,65.4,0,124.3,0,173.7s-0.1,89.5-0.1,117.1c0,3.5,0,6.7,0,9.8v2.3c0,0.7-0.1,1.5-0.1,2.2s-0.2,1.4-0.4,2.1c-0.1,0.7-0.3,1.3-0.5,2
	c-0.8,2.3-2,4.5-3.6,6.4c-1.3,1.6-2.9,2.9-4.6,4c-2.3,1.5-5,2.5-7.7,2.8c-0.7,0.1-1.4,0.2-2.1,0.2L435.5,467.6z"/>
<g id="freepik--speech-bubble--inject-4">
	<circle class="st3" cx="78.6" cy="173.8" r="25.7"/>
	<path class="st5" d="M104.3,173.8c0-0.1,0-0.3,0-0.4c0-0.3-0.1-0.7-0.1-1.2c0-0.3,0-0.6-0.1-0.9s-0.1-0.7-0.2-1.1
		c-0.1-0.9-0.3-1.8-0.6-2.6c-0.6-2.4-1.6-4.7-2.8-6.8c-6.3-10.5-19.2-15.1-30.7-10.9c-1.1,0.4-2.2,0.9-3.3,1.5
		c-1.1,0.6-2.1,1.3-3.1,2c-1,0.8-2,1.6-2.9,2.5c-0.9,0.9-1.7,1.9-2.5,2.9c-1.6,2.1-2.8,4.5-3.6,7c-1.7,5.2-1.7,10.9,0,16.1
		c0.8,2.5,2.1,4.9,3.6,7c0.8,1,1.6,2,2.5,2.9c0.9,0.9,1.9,1.7,2.9,2.5c1,0.7,2,1.4,3.1,2c1.1,0.6,2.2,1,3.3,1.5
		c11.5,4.2,24.4-0.4,30.7-10.9c1.3-2.1,2.2-4.4,2.8-6.8c0.2-0.9,0.4-1.8,0.6-2.6c0.1-0.4,0.1-0.7,0.2-1.1s0-0.6,0.1-0.9
		c0-0.5,0.1-0.9,0.1-1.2C104.2,174,104.2,173.9,104.3,173.8c0,0.1,0,0.3,0,0.4v1.2c0,0.3,0,0.6,0,0.9s-0.1,0.7-0.1,1.1
		c-0.1,0.9-0.3,1.8-0.5,2.7c-0.6,2.4-1.5,4.8-2.8,6.9c-6.3,10.7-19.4,15.4-31.1,11.2c-1.2-0.4-2.3-0.9-3.4-1.5
		c-1.1-0.6-2.2-1.3-3.2-2c-1-0.8-2-1.6-3-2.5c-0.9-0.9-1.8-1.9-2.5-3c-1.6-2.2-2.9-4.6-3.7-7.1c-1.8-5.3-1.8-11.1,0-16.4
		c0.8-2.6,2.1-5,3.7-7.1c0.8-1.1,1.6-2.1,2.5-3c0.9-0.9,1.9-1.7,3-2.5c1-0.7,2.1-1.4,3.2-2c1.1-0.6,2.2-1.1,3.4-1.5
		c4.4-1.6,9.1-2,13.6-1.1c7.3,1.4,13.7,5.9,17.4,12.3c1.3,2.1,2.2,4.5,2.8,6.9c0.2,0.9,0.4,1.8,0.5,2.7c0.1,0.4,0.1,0.8,0.1,1.1
		s0,0.6,0,0.9c0,0.5,0,0.9,0,1.2C104.3,173.5,104.3,173.7,104.3,173.8z"/>
	<circle class="st5" cx="88" cy="173.6" r="2.4"/>
	<path class="st5" d="M76.2,173.6c0,1.3,1,2.4,2.4,2.4s2.4-1,2.4-2.4s-1-2.4-2.4-2.4c0,0,0,0,0,0C77.3,171.3,76.2,172.3,76.2,173.6
		L76.2,173.6z"/>
	<path class="st5" d="M66.8,172.5c-0.7,1.1-0.3,2.6,0.8,3.2s2.6,0.3,3.2-0.8c0.7-1.1,0.3-2.6-0.8-3.2c0,0,0,0,0,0
		C68.9,171,67.5,171.3,66.8,172.5z"/>
	<path class="st3" d="M118.3,183.9c0,2.1-1.7,3.9-3.9,3.9c-2.1,0-3.9-1.7-3.9-3.9c0-2.1,1.7-3.9,3.9-3.9l0,0
		C116.5,180,118.3,181.7,118.3,183.9z"/>
	<path class="st5" d="M118.3,183.9c0,0,0-0.3-0.2-0.9c-0.2-0.8-0.7-1.5-1.4-2c-1-0.7-2.3-0.9-3.5-0.5c-1.9,0.7-2.8,2.8-2.1,4.7
		c0.7,1.9,2.8,2.8,4.7,2.1c0.3-0.1,0.6-0.3,0.9-0.5c0.7-0.5,1.2-1.2,1.4-2C118.2,184.2,118.2,183.9,118.3,183.9c0.1,0.3,0.1,0.7,0,1
		c-0.2,0.9-0.7,1.7-1.4,2.3c-1.1,0.9-2.6,1.1-3.9,0.6c-2.1-0.7-3.3-3.1-2.5-5.2c0.4-1.2,1.3-2.1,2.5-2.5c1.3-0.5,2.8-0.2,3.9,0.6
		c0.7,0.6,1.2,1.4,1.4,2.3C118.3,183.3,118.3,183.6,118.3,183.9z"/>
</g>
<path class="st5" d="M187.9,180.9c0.2,10.2-3.9,20-11.4,27l-5.1-14.8"/>
<path class="st5" d="M149.5,151.5c4.4-2.4,9.7-2.7,14.6-1.8c4.9,1.1,9.5,3.1,13.8,5.7c2.5,1.3,4.7,3,6.6,5.1
	c3.2,4,6.3,10.6,6.6,15.7c0.3,4.1-1.3,14.4-3.1,18.2c-1.6,3.4-9.1,6.1-12.8,6.9l-33.9-39.4C142.5,157.5,145.5,153.7,149.5,151.5z"/>
<path class="st5" d="M143.6,156.8l8.1-1.4c-4.4,10.6-5.6,34.8-8.2,46c-3-4.4-9.9-17.6-9.6-22.9S134,155.9,143.6,156.8z"/>
<path class="st9" d="M139,174.1c0.5-8.1,5.9-18.1,14-17.2l18.7,4.8c5.9,1.5,10.1,6.7,10.4,12.8c0,0.3,0.1-0.1,0.1,0.2l-4.2,48.5
	L164,251l0,0l-12.4-26.4c0-4,0-9.9,0-9.9s-10.4-1.7-12.5-15.3C138,192.6,138.4,183.1,139,174.1z"/>
<path class="st5" d="M144.8,185.2c0,0.9,0.7,1.7,1.7,1.8c0.9,0.1,1.7-0.6,1.8-1.5c0,0,0,0,0,0c0-0.9-0.7-1.7-1.7-1.8
	C145.7,183.6,144.9,184.2,144.8,185.2C144.8,185.2,144.8,185.2,144.8,185.2z"/>
<path class="st5" d="M141,179.4c0.2,0.2,1.5-0.7,3.4-0.7s3.2,0.9,3.4,0.7s-0.1-0.5-0.7-0.9c-0.8-0.6-1.8-0.9-2.8-0.9
	c-1,0-1.9,0.3-2.7,0.9C141.1,178.9,140.9,179.3,141,179.4z"/>
<path class="st5" d="M160.4,185.2c0,0.9,0.7,1.7,1.7,1.8c0.9,0.1,1.7-0.6,1.8-1.5c0,0,0,0,0,0c0-0.9-0.7-1.7-1.7-1.8
	C161.3,183.6,160.5,184.2,160.4,185.2C160.4,185.2,160.4,185.2,160.4,185.2z"/>
<path class="st5" d="M158.8,179.4c0.2,0.2,1.5-0.7,3.4-0.7s3.2,0.9,3.4,0.7s-0.1-0.5-0.7-0.9c-0.8-0.6-1.8-0.9-2.8-0.9
	c-1,0-1.9,0.3-2.7,0.9C158.9,178.9,158.6,179.3,158.8,179.4z"/>
<path class="st5" d="M152.9,194.1c-1-0.3-2-0.5-3-0.6c-0.5-0.1-0.9-0.1-1-0.5c0-0.5,0.1-1,0.3-1.4l1.4-3.6c2-5.2,3.4-9.4,3.2-9.5
	s-2,4.1-3.9,9.2l-1.4,3.6c-0.3,0.6-0.4,1.2-0.3,1.9c0.1,0.3,0.4,0.6,0.8,0.7c0.3,0.1,0.5,0.1,0.8,0.1
	C150.9,194.2,151.9,194.2,152.9,194.1z"/>
<path class="st10" d="M169.5,209.8c0,0-4.4,9.3-17.9,8v-3.2C157.9,214.7,164.1,213.1,169.5,209.8z"/>
<path class="st5" d="M159.3,172.6c0.2,0.5,2,0.3,4.2,0.5s4,0.9,4.3,0.4c0.1-0.2-0.2-0.7-0.9-1.2c-1.9-1.2-4.3-1.5-6.5-0.7
	C159.7,172,159.3,172.4,159.3,172.6z"/>
<path class="st5" d="M141.6,173.7c0.3,0.4,1.6,0,3.2,0s2.9,0.3,3.2-0.1c0.1-0.2-0.1-0.6-0.6-1.1c-1.6-1-3.6-0.9-5.1,0.1
	C141.7,173,141.5,173.5,141.6,173.7z"/>
<path class="st5" d="M142.7,161.7c1-2,3-3.3,5.3-3.4c2.2,0,4.4,0.6,6.2,1.8c8.1,4.7,12.2,15.9,20.2,20.7c2,1.2,4.5,0.1,6.2,1.7
	s2.8,4.1,1.8,6.2c1.1-1.4,2.1-3,2.8-4.7c0.7-1.7,0.6-3.6-0.2-5.3c-0.7-1.2-1.9-2.1-2.2-3.4c-0.3-1.2,0.2-2.4,0.1-3.6
	c-0.1-1.2-0.6-2.4-1.2-3.4c-3.1-5.5-7.4-10.5-12.9-13.6c-3.6-2.1-7.7-3.1-11.9-3.1c-4.2,0.1-8.2,1.7-11.3,4.5
	C143.6,157.8,141.7,159.5,142.7,161.7"/>
<path class="st9" d="M180.3,184.3c0.1-0.4,7.2-2.9,7.3,4.6c0.1,7.3-7.3,5.9-7.3,5.6S180.3,184.3,180.3,184.3z"/>
<path class="st10" d="M182.6,191.7c0,0,0.1,0.1,0.3,0.2c0.3,0.1,0.7,0.1,1,0c1-0.6,1.5-1.7,1.4-2.8c0-0.6-0.1-1.2-0.4-1.8
	c-0.1-0.5-0.5-0.9-1-1c-0.3-0.1-0.6,0.1-0.8,0.4c-0.1,0.2,0,0.4-0.1,0.4s-0.2-0.1-0.1-0.4c0-0.2,0.1-0.3,0.3-0.5
	c0.2-0.1,0.5-0.2,0.7-0.2c0.6,0.1,1.1,0.5,1.3,1.1c0.3,0.6,0.5,1.3,0.5,2c0,1.5-0.8,2.9-1.8,3.2c-0.4,0.1-0.8,0.1-1.2-0.2
	C182.6,191.9,182.5,191.7,182.6,191.7z"/>
<path class="st6" d="M183.2,180.5c-0.2-0.1-0.3-0.1-0.4-0.3c-0.3-0.2-0.7-0.4-1.2-0.8c-1.4-1.1-2.8-2.3-3.9-3.6
	c-1.7-2-3.3-4.1-4.8-6.3c-1.8-2.7-3.8-5.2-6-7.5c-1.2-1.2-2.5-2.2-3.9-3.1c-1.3-0.8-2.7-1.4-4.2-1.9c-2.5-0.8-5.1-1.1-7.7-0.9
	c-1.8,0.1-3.5,0.4-5.2,1c-0.6,0.2-1,0.4-1.4,0.5c-0.2,0.1-0.3,0.1-0.5,0.2c0.1-0.1,0.3-0.2,0.4-0.2c0.4-0.2,0.9-0.4,1.3-0.6
	c1.7-0.6,3.4-1,5.2-1.1c2.6-0.2,5.3,0.1,7.8,0.9c1.5,0.5,2.9,1.1,4.3,1.9c1.4,0.9,2.7,1.9,3.9,3.1c2.2,2.3,4.2,4.9,6,7.6
	c1.5,2.2,3.1,4.3,4.7,6.3c1.2,1.3,2.4,2.6,3.8,3.6c0.5,0.4,0.9,0.6,1.2,0.8L183.2,180.5z"/>
<path class="st5" d="M181.4,182.6c0.1,2,0.2,4.1-0.7,5.9s-3.2,3-5,2c-1.4-0.8-1.8-2.6-2.1-4.2c-0.7-4.6-1-9.3-1.7-14L181.4,182.6z"
	/>
<path class="st10" d="M157.5,197.6c1.2,1.6,0.9,3.9-0.7,5.1c-0.3,0.3-0.7,0.5-1.1,0.6c-0.4,0.1-0.9,0.1-1.4,0
	c-0.7-0.4-1.2-1.1-1.4-1.9l-0.8-1.9c-0.1-0.2-0.1-0.4-0.1-0.7c0.1-0.2,0.4-0.3,0.6-0.4l4.7-1.1"/>
<path class="st5" d="M154.4,203c0.7,0.1,1.4,0,2.1-0.3c0.8-0.3,1.4-0.8,1.9-1.5c0.2-0.4,0.3-0.9,0.3-1.4c0-0.5-0.2-1-0.4-1.5
	c-0.2-0.5-0.5-0.9-0.9-1.2l-0.1-0.1l-0.2,0.1c-3.1,1.1-5.5,1.6-5.5,1.8c1.9-0.1,3.9-0.6,5.7-1.3l-0.3-0.1c0.3,0.3,0.6,0.7,0.8,1.1
	c0.4,0.8,0.5,1.7,0.2,2.5c-0.3,0.6-0.9,1.1-1.6,1.4C155.3,202.9,154.4,202.9,154.4,203z"/>
<path class="st6" d="M144.5,158.3c0,0,0.6-0.1,1.8-0.2c1.6,0,3.3,0.3,4.8,0.9c1.1,0.4,2.1,0.9,3,1.6c1.1,0.7,2.1,1.5,3.1,2.4
	c2.3,1.9,4.3,4.2,6.1,6.6c0.9,1.3,1.7,2.6,2.6,3.9c0.8,1.2,1.8,2.3,2.9,3.3c1.9,1.6,4,3,6.2,4.1c1.9,1,3.4,1.7,4.5,2.2l1.3,0.5
	c0.1,0.1,0.3,0.1,0.4,0.2c-0.1-0.1-0.3-0.2-0.4-0.2l-1.2-0.6c-1.1-0.5-2.6-1.3-4.4-2.3c-2.2-1.2-4.2-2.6-6.1-4.1
	c-1.1-1-2-2.1-2.8-3.2c-0.9-1.2-1.7-2.6-2.6-3.9c-1.8-2.5-3.9-4.7-6.2-6.6c-1-0.9-2.1-1.7-3.2-2.4c-1-0.6-2-1.1-3.1-1.5
	c-1.6-0.6-3.3-0.9-4.9-0.8c-0.5,0-0.9,0.1-1.4,0.2C144.7,158.2,144.6,158.2,144.5,158.3z"/>
<path class="st6" d="M181.6,178.1c0.2,0.2,0.4,0.3,0.6,0.4l1.9,1.1l0.6,0.4c0.2,0.1,0.5,0.2,0.8,0.3c0.2,0,0.3,0,0.5-0.1
	c0.2-0.1,0.3-0.3,0.3-0.5c0-0.3-0.1-0.7-0.3-0.9l-2.1-3.4l-0.3,0.3c1.4,1.1,3.2,1.6,5,1.5c0.2,0,0.4,0,0.7-0.1
	c0.3-0.1,0.5-0.3,0.6-0.5c0.1-0.3,0-0.5-0.1-0.7c-0.1-0.2-0.3-0.3-0.4-0.5c-1-0.9-1.8-2-2.5-3.1c-0.6-1.1-1.1-2.2-1.6-3.4
	c0,0.3,0.1,0.7,0.2,1c0.3,0.9,0.6,1.7,1.1,2.5c0.7,1.2,1.5,2.3,2.5,3.3c0.3,0.3,0.5,0.6,0.4,0.8s-0.5,0.3-0.9,0.3
	c-0.8,0-1.7-0.1-2.5-0.3c-0.8-0.2-1.6-0.6-2.2-1.1l-0.9-0.6l0.6,0.9l2.2,3.4c0.2,0.2,0.3,0.4,0.3,0.7c0,0.2-0.2,0.3-0.4,0.3
	c-0.5-0.1-0.9-0.3-1.3-0.5l-1.9-1C182.1,178.2,181.8,178.1,181.6,178.1z"/>
<polygon class="st5" points="91.9,429 85.9,468.2 92.8,468.2 104.4,429 "/>
<polygon class="st5" points="241.5,429 247.5,468.2 240.6,468.2 229,429 "/>
<path class="st6" d="M60.6,325.1c0.6,18.4,1.8,95.7,17.8,110.5h13c5.2,0,4.9-2.5,4.7-7.6l-3.8-101.2c-0.1-2-0.8-3.8-2-5.3
	c-2.6-3.2-7.8-8.2-15-7.7c-3.9,0.2-7.6,1.4-10.9,3.6C61.9,319.1,60.5,322,60.6,325.1z"/>
<polygon class="st6" points="240.6,436.7 91.4,435.6 91.4,389.5 240.6,389.5 "/>
<polygon class="st6" points="240,389.5 90.6,390.7 90.6,363.1 240.6,360.3 "/>
<path class="st6" d="M63.5,319.9c0,0,1.1-38.4,43.4-40.4s104.9,0,104.9,0s53.1-2,54.3,31.4l-10.6,64.1H91.6L63.5,319.9z"/>
<path class="st6" d="M272.3,329.2c-1.1,26.5-3.6,104.1-22,107.6h-13.6l4.2-113.4c0,0,6.4-11.1,16.9-10.4h0.3
	C266.4,313.7,272.7,320.9,272.3,329.2z"/>
<path class="st5" d="M264.8,314.6l-0.5-0.1l-1.4-0.4l-1-0.3l-1.3-0.2c-0.5-0.1-1-0.1-1.5-0.2h-1.7c-3,0-5.9,0.8-8.5,2.1l-0.6,0.3
	l-0.6,0.3l-1.1,0.7c-0.8,0.5-1.5,1.1-2.2,1.8c-1.5,1.3-2.9,2.9-4,4.6v-0.1c-0.6,11.7-1.2,26.5-2,42.6c-0.9,19.5-1.5,37.2-1.9,50
	l-0.4,15.2c0,1.8-0.1,3.2-0.1,4.1c0,0.5,0,0.8,0,1.1s0,0.4,0,0.4s0-0.1,0-0.4v-1.1c0-1,0-2.4,0-4.1c0-3.6,0.1-8.8,0.3-15.2
	c0.3-12.8,0.9-30.5,1.7-50.1c0.7-16.1,1.5-30.9,2.1-42.5l0,0c0,0,0,0,0-0.1c1.1-1.7,2.5-3.3,4.1-4.7c0.7-0.6,1.5-1.2,2.2-1.8
	l1.2-0.7l0.6-0.4l0.6-0.3c2.7-1.4,5.6-2.1,8.6-2.1l1.7,0.1c0.5,0.1,1,0.2,1.5,0.2l1.3,0.2l1,0.3l1.4,0.4
	C264.6,314.6,264.8,314.6,264.8,314.6z"/>
<path class="st5" d="M63.5,318.7c0.1-0.1,0.3-0.1,0.5-0.2l1.3-0.4l1-0.3c0.4-0.1,0.8-0.2,1.2-0.3l1.4-0.3c0.5-0.1,1-0.1,1.6-0.2
	c2.8-0.3,5.6-0.2,8.3,0.5c3.6,0.9,6.8,2.8,9.4,5.5c0,0,0,0.1,0,0.1l0,0c0.6,11.5,1.3,26.3,1.8,42.3c0.7,19,1,36.2,1.2,48.7
	c0.1,6.2,0.1,11.3,0.2,14.8c0,1.7,0,3.1,0,4c0,0.4,0,0.8,0,1s0,0.4,0,0.4c0-0.1,0-0.2,0-0.4c0-0.3,0-0.6,0-1c0-0.9-0.1-2.3-0.1-4
	c-0.1-3.5-0.2-8.5-0.3-14.8c-0.3-12.5-0.7-29.7-1.3-48.7c-0.6-16.1-1.2-30.8-1.7-42.3v0.1c-2.5-2.6-5.7-4.5-9.3-5.4
	c-2.7-0.7-5.5-0.9-8.2-0.6c-0.6,0.1-1.1,0.1-1.6,0.2l-1.4,0.3c-0.4,0.1-0.8,0.1-1.2,0.3l-1,0.3l-1.3,0.4
	C63.6,318.6,63.5,318.7,63.5,318.7z"/>
<path class="st5" d="M91.6,390.6h0.7h2.2h8.4l30.9,0.1c26.1,0.1,62.2,0.4,102-0.2h1.6l-0.2,0.2c0.1-4.7,0.3-9.4,0.4-14
	c0.1-2.3,0.1-4.6,0.2-6.9c0-1.1,0.1-2.3,0.1-3.4c0-0.5,0-1.1,0-1.7c0-0.5-0.2-1-0.4-1.5c-0.5-1-1.5-1.6-2.5-1.9
	c-0.5-0.1-1.1-0.1-1.7-0.1h-1.7h-6.8l-13.1,0.1l-45.3,0.5c-12.9,0.1-23.3,0.2-30.5,0.2h-8.3h-2.2c-0.5,0-0.7,0-0.7,0h0.7h2.2
	l8.3-0.1l30.5-0.3l45.3-0.6l13.1-0.1h6.8h1.7c0.6,0,1.2,0,1.8,0.1c1.2,0.2,2.2,0.9,2.8,1.9c0.3,0.5,0.5,1.1,0.5,1.7
	c0,0.6,0,1.1,0,1.7c0,1.1-0.1,2.3-0.1,3.4c-0.1,2.3-0.1,4.5-0.2,6.9c-0.1,4.6-0.3,9.3-0.4,14c0,0.1-0.1,0.2-0.2,0.2c0,0,0,0,0,0
	h-1.6c-39.8,0.6-75.9,0.2-102,0.1l-30.9-0.2l-8.4-0.1h-2.2C91.9,390.6,91.6,390.6,91.6,390.6z"/>
<g class="st12">
	<path d="M90.6,390.7c34.3,7.4,50.6,6.9,82.4,7.4c28.6,0.5,60-4.7,64.6-7.7L90.6,390.7z"/>
</g>
<path class="st7" d="M109.1,268.5c-0.1-0.7,2.6-17.6,7.6-29.3c1.8-4.3,3.2-7.3,5-9.1c1.8-1.8,3.9-3.2,6.2-4.3l23.5-5.3
	c0,0-1.6,8.3,13.7,7.3c11.4-0.7,13.4-9.1,13.4-9.1s22.7,2.6,28.2,7.6s10.8,34.4,10.8,34.4l-21.3,6.2l-2.5,31.1l7.1,15.5
	c0,0-21.3,16.1-36,15.3s-40.2-9.3-40.2-9.3l9.4-19.7l-6-29.3L109.1,268.5z"/>
<path class="st5" d="M122,245.1c0.1,0.3,0.2,0.7,0.3,1l0.6,2.9c0.5,2.4,1.2,5.8,2,9.4s1.7,7,2.4,9.3l0.8,2.8c0.1,0.3,0.2,0.7,0.2,1
	c-0.2-0.3-0.3-0.7-0.4-1c-0.2-0.6-0.5-1.6-0.9-2.8c-0.7-2.4-1.6-5.7-2.5-9.3c-0.9-3.7-1.5-7-1.9-9.5c-0.2-1.2-0.3-2.2-0.4-2.9
	C122,245.8,122,245.5,122,245.1z"/>
<path class="st5" d="M197.8,239.9c0.4-0.1,0.2,6.3-0.3,14c-0.3,3.9-0.5,7.4-0.7,9.9c-0.1,1.2-0.2,2.2-0.3,3c0,0.4-0.1,0.7-0.2,1.1
	c0-0.4,0-0.7,0-1.1c0-0.8,0.1-1.8,0.1-3c0.2-2.6,0.4-6.1,0.6-9.9c0.2-3.8,0.4-7.3,0.6-9.9C197.9,242.6,197.9,241.2,197.8,239.9z"/>
<path class="st5" d="M180.4,297c-0.4,0.2-0.8,0.4-1.2,0.6c-0.4,0.2-0.9,0.4-1.5,0.6s-1.3,0.5-2,0.7c-1.7,0.6-3.5,1.1-5.3,1.5
	c-2.2,0.5-4.4,0.9-6.7,1.1c-2.3,0.2-4.5,0.3-6.8,0.2c-1.8-0.1-3.7-0.2-5.5-0.5c-0.8-0.1-1.5-0.2-2.1-0.3s-1.1-0.2-1.6-0.3
	c-0.4-0.1-0.9-0.2-1.3-0.4c0.5,0,0.9,0.1,1.4,0.2c0.4,0.1,1,0.2,1.6,0.3s1.3,0.2,2.1,0.3c1.6,0.2,3.4,0.3,5.5,0.4
	c2.2,0,4.5-0.1,6.7-0.3c2.2-0.2,4.5-0.6,6.6-1c2-0.5,3.8-0.9,5.3-1.4c0.8-0.2,1.4-0.5,2-0.7s1.1-0.4,1.5-0.5
	C179.5,297.3,180,297.1,180.4,297z"/>
<path class="st5" d="M170.7,226.4l2.6,32.3c0.1,1.1-0.7,2.1-1.8,2.2c0,0,0,0,0,0l-19.9,2.1c-1.1,0.1-2.1-0.7-2.2-1.8c0,0,0,0,0,0
	l-3.9-33.8c-0.1-1.1,0.6-2.1,1.7-2.2c0.1,0,0.1,0,0.2,0l21.2-0.7C169.7,224.5,170.6,225.3,170.7,226.4z"/>
<path class="st9" d="M161.6,243.6c0.5,0,12.3,2.1,12.3,2.1l15.4,8.8l8.3,12.5l-8.1,15.1l-4.1-12.2c-2.4,0.1-4.8,0.1-7.2-0.1
	c-3.6-0.4-15-1.2-15-1.2l-5.9-3.3c0,0-1.9-3.1-1.9-3.9c0-0.7,0.5-1.4,1.3-1.4c0.3,0,0.6,0.1,0.8,0.2c1.2,0.7,9.4,0.9,11.5,0
	c0,0-12-0.9-13.5-2.8c-1.5-2-1-3.5,0.9-3.5s8.7,1,10.8,0.9s4.6-0.2,5.1-1.2s-1-1.9-1-1.9l-2.2-1.7c0,0-8.7-1.5-9.3-3.4
	c-0.4-1.1,0.2-2.4,1.3-2.8C161.2,243.7,161.4,243.6,161.6,243.6z"/>
<path class="st9" d="M157.6,243c0,0-10,1.6-10.6,2.3s-13.3,16.1-13.3,16.1l6.4,12.6l11.3-6.1c1.2-0.5,2.4-0.9,3.6-1.2
	c0,0,11.4-1.8,12.1-3.2s0.3-1.7-0.5-1.9s-7.7,0.6-9.2,0.8c-1.5,0.1-3,0.1-4.5,0c0,0,4.7-1.1,5.8-1.5s11.7-2.7,11.5-4.6
	c-0.2-1.9-1.5-2.6-8.1-0.8c-3.6,1-7.4,1.6-11.2,1.8l14.7-5.1c0,0,5.9-1.9,4-3.6s-14.6,1.8-14.6,1.8l-5.6,2.1l1.6-3.4
	c0,0,7.9-2.4,9-3.1c1.3-1,1.4-1.9,0.5-2.7S157.6,243,157.6,243z"/>
<path class="st9" d="M110.2,268.6l17.1,1.8l2.4-3.1l4-5.9l6.4,12.6c0,0-2.3,7.5-3.6,11.7c-3.4,11.1-8.8,23.6-15.6,23
	c-8.1-0.8-14-10.3-13.8-16.5C107.3,286.5,110.2,268.6,110.2,268.6z"/>
<path class="st9" d="M215.6,261.5l-14.2,3.6L197,266l-4-5.9l-6.4,12.7c0,0,2.3,7.5,3.6,11.7c3.4,11.1,8.8,23.6,15.6,23
	c8.1-0.8,14-10.3,13.8-16.5C219.5,285.3,215.6,261.5,215.6,261.5z"/>
<path class="st10" d="M133.7,261.4c0,0,0.1-0.2,0.3-0.5l1-1.3l4-4.9l6.3-7.7l0.9-1.1l0.5-0.6c0.2-0.2,0.5-0.3,0.8-0.4
	c1-0.3,2-0.5,3.1-0.7c2.2-0.4,4.5-0.9,6.9-1.3l0,0c0.6-0.1,1.2-0.2,1.9-0.1c0.3,0,0.6,0.2,0.9,0.3c0.3,0.2,0.5,0.4,0.7,0.7
	c0.2,0.3,0.2,0.7,0.1,1c-0.1,0.3-0.3,0.6-0.6,0.9c-0.2,0.3-0.5,0.5-0.8,0.6c-0.3,0.2-0.6,0.3-0.9,0.4c-2.5,1-5.1,1.8-7.9,2.6
	l0.1-0.1l-1.6,3.4l-0.2-0.3l5.6-2.1l0,0c2.4-0.6,4.9-1.2,7.4-1.7c1.3-0.2,2.6-0.4,3.9-0.5c0.7-0.1,1.3-0.1,2,0c0.3,0,0.7,0.1,1,0.2
	c0.4,0.2,0.6,0.5,0.8,0.8c0.1,0.4,0,0.8-0.3,1.1c-0.2,0.3-0.5,0.5-0.8,0.7c-0.6,0.4-1.2,0.7-1.8,1c-1.3,0.5-2.6,0.9-3.9,1.4
	l-7.9,2.8l-4.3,1.5l-0.1-0.4c3.5-0.2,7-0.7,10.4-1.6c1.6-0.5,3.3-0.8,5-1.1c0.9-0.2,1.7-0.2,2.6,0c0.5,0.1,0.9,0.3,1.2,0.7
	c0.3,0.4,0.4,0.8,0.4,1.3c0,0.3-0.1,0.5-0.3,0.7c-0.2,0.2-0.3,0.3-0.5,0.4c-0.3,0.2-0.7,0.4-1.1,0.6c-0.8,0.4-1.5,0.6-2.3,0.9
	c-1.5,0.5-3,1-4.5,1.4l-2.2,0.6c-0.7,0.2-1.4,0.5-2.2,0.6c-1.5,0.4-2.9,0.7-4.3,1v-0.4c1.7,0.2,3.3,0.2,5-0.1
	c1.6-0.2,3.2-0.4,4.8-0.6c0.8-0.1,1.5-0.1,2.3-0.2h1.1c0.2,0,0.4,0,0.6,0c0.2,0,0.4,0.1,0.6,0.2c0.2,0.1,0.4,0.3,0.4,0.5
	c0.1,0.2,0.1,0.4,0,0.6c-0.1,0.2-0.1,0.4-0.2,0.5l-0.1,0.2c-0.1,0.1-0.1,0.2-0.2,0.3c-0.6,0.4-1.3,0.7-2,0.9c-2.5,0.7-5,1.3-7.6,1.7
	l-1.7,0.3c-0.6,0.1-1.1,0.2-1.6,0.3c-1,0.2-2,0.6-2.9,1.1l-8.2,4.3l-2.1,1.1l-0.6,0.3l-0.2,0.1c0,0,0,0,0.2-0.1s0.3-0.2,0.6-0.3
	l2.2-1.2l8.1-4.5c2-0.9,4.2-1.5,6.4-1.8c2.5-0.4,5.1-1,7.6-1.7c0.7-0.2,1.3-0.5,1.9-0.8c0.1,0,0.1-0.1,0.1-0.2l0.1-0.2
	c0.1-0.2,0.1-0.3,0.2-0.5c0.1-0.3,0-0.6-0.3-0.8c-0.2-0.1-0.3-0.1-0.5-0.2c-0.2,0-0.3,0-0.5,0c-0.4,0-0.7,0-1.1,0
	c-0.8,0-1.5,0.1-2.3,0.2c-1.5,0.2-3.1,0.3-4.7,0.6c-1.7,0.2-3.3,0.3-5,0.1c-0.1,0-0.2-0.1-0.1-0.2c0-0.1,0.1-0.1,0.1-0.1l0,0
	c1.4-0.3,2.8-0.7,4.3-1.1c0.7-0.2,1.4-0.4,2.2-0.6l2.2-0.6c1.5-0.4,3-0.8,4.5-1.4c0.8-0.3,1.5-0.5,2.2-0.9c0.3-0.2,0.7-0.4,1-0.6
	c0.3-0.2,0.6-0.5,0.6-0.8c0-0.4-0.1-0.7-0.3-1c-0.2-0.3-0.6-0.5-0.9-0.6c-0.8-0.1-1.6-0.1-2.4,0c-1.7,0.3-3.4,0.7-5,1.1
	c-3.4,0.9-6.9,1.5-10.5,1.6c-0.1,0-0.2-0.1-0.2-0.2c0-0.1,0.1-0.2,0.1-0.2l0,0l4.3-1.5l7.9-2.8c1.3-0.5,2.6-0.9,3.9-1.4
	c0.6-0.3,1.2-0.6,1.8-0.9c0.3-0.2,0.5-0.4,0.7-0.6c0.2-0.2,0.3-0.5,0.3-0.7c-0.2-0.5-0.8-0.7-1.5-0.8c-0.6-0.1-1.3-0.1-1.9,0
	c-1.3,0.1-2.6,0.3-3.9,0.5c-2.5,0.5-5,1-7.4,1.7l0,0l-5.6,2.1c-0.1,0-0.2,0-0.2-0.1c0,0,0,0,0,0c0,0,0-0.1,0-0.1
	c0.6-1.2,1.1-2.3,1.6-3.4c0,0,0.1-0.1,0.1-0.1c2.7-0.8,5.4-1.6,7.8-2.6c0.3-0.1,0.6-0.3,0.9-0.4c0.3-0.2,0.5-0.4,0.7-0.6
	c0.5-0.3,0.6-1,0.4-1.5c-0.3-0.5-0.8-0.8-1.4-0.9c-0.6-0.1-1.2-0.1-1.7,0.1l0,0c-2.4,0.4-4.7,0.8-6.9,1.2c-1.1,0.2-2.1,0.4-3.1,0.7
	c-0.2,0.1-0.5,0.1-0.6,0.3l-0.5,0.6l-1,1.1l-6.4,7.7l-4,4.9l-1.1,1.3L133.7,261.4z"/>
<path class="st10" d="M134.7,260.9c0.1,0.1-4.6,6.4-10.5,14.1s-10.8,13.9-10.9,13.8s4.6-6.4,10.5-14.1S134.6,260.9,134.7,260.9z"/>
<path class="st10" d="M212.2,288.8c-0.1,0-0.7-1.4-1.9-3.6c-1.6-2.9-3.5-5.6-5.5-8.3c-2.3-3.1-4.5-5.9-6.1-7.9
	c-0.8-1-1.4-1.9-1.8-2.5c-0.2-0.3-0.4-0.6-0.6-1c0.3,0.2,0.5,0.5,0.7,0.8l1.9,2.3c1.6,2,3.9,4.7,6.2,7.8c2,2.7,3.8,5.5,5.4,8.5
	c0.5,0.9,0.9,1.8,1.3,2.8C212,288.1,212.1,288.4,212.2,288.8z"/>
<polygon class="st9" points="111.4,424.8 106.6,409.3 131.6,402 135.7,419.3 "/>
<path class="st0" d="M134.5,417.6l5.4,25.5l5.1,7.7c1.9,2.9-0.8,4-3.8,5.9l-35.8,23.6c0,0-4.1-2.5-2.2-5.4s14.6-27.1,14.6-27.1
	l-6.4-23.1L134.5,417.6z"/>
<path class="st0" d="M135.8,415l1,6.4c0.1,1-0.5,1.9-1.4,2.2l-21.8,5.6c-1,0.2-2-0.3-2.3-1.2l-2.2-5.9c-0.4-1,0.1-2.1,1.1-2.5
	c0.1,0,0.1,0,0.2-0.1l23-6.1c1-0.3,2.1,0.3,2.4,1.4C135.8,414.9,135.8,414.9,135.8,415z"/>
<path class="st5" d="M112.7,429.5c1.2-0.1,2.3-0.2,3.5-0.5c2.1-0.4,5-0.9,8.2-1.7s6-1.7,8.1-2.5c1-0.4,1.8-0.7,2.4-0.9
	c0.3-0.1,0.6-0.2,0.8-0.4c-1.1,0.3-2.2,0.6-3.3,1c-2,0.6-4.9,1.5-8.1,2.3s-6.1,1.4-8.2,1.9C115,428.9,113.8,429.1,112.7,429.5z"/>
<path class="st5" d="M132.4,423.9c0.8-3.4-0.4-7-3-9.4c0.9,1.4,1.7,2.9,2.3,4.5C132.1,420.6,132.3,422.3,132.4,423.9z"/>
<path class="st5" d="M124.6,427c-0.3-3.6-1.2-7.2-2.5-10.5c0.3,1.8,0.6,3.6,1.2,5.3C123.6,423.5,124,425.3,124.6,427z"/>
<path class="st5" d="M115.7,428.4c-1.6-3.1-1.8-6.7-0.7-10.1c-0.3,0.4-0.6,0.9-0.7,1.4c-0.4,1.2-0.6,2.5-0.5,3.8
	c0.1,1.3,0.4,2.5,1,3.6C115,427.6,115.3,428,115.7,428.4z"/>
<path class="st5" d="M138.4,458.2c0.1,0-0.3-0.8-0.6-2c-0.9-3.3-0.3-6.9,1.7-9.7c0.7-1.1,1.3-1.6,1.3-1.7c-0.6,0.4-1.2,0.9-1.6,1.5
	c-2.2,2.8-2.9,6.6-1.7,10.1C137.6,457,138,457.7,138.4,458.2z"/>
<path class="st5" d="M115.9,473.4c-0.1-0.5-0.2-1.1-0.5-1.5c-0.6-1.2-1.6-2.1-2.8-2.8c-1.2-0.6-2.5-1-3.8-1.1
	c-0.5-0.1-1.1-0.1-1.6,0.1c0.5,0.2,1,0.3,1.6,0.3c1.2,0.2,2.4,0.6,3.6,1.2c1.1,0.6,2,1.5,2.7,2.5
	C115.6,472.8,115.8,473.4,115.9,473.4z"/>
<path class="st5" d="M159.7,334c0,0-43.1-18.9-51.9-19.6c-13.6-1-21.9,4.7-21.4,23.6s17.8,83,17.8,83l33.5-5.2
	c0,0-2.5-22.9-6.3-40.4c-3.3-15.2-1.8-12.8-1.8-12.8l0,0l41.4-0.8L159.7,334z"/>
<path class="st6" d="M121.3,330c0.3,0.4,0.5,0.7,0.8,1.1c0.3,0.5,0.6,0.9,0.8,1.4l0.5,0.9c0.2,0.3,0.3,0.7,0.5,1
	c1.6,3.8,2.7,7.8,3.4,11.9c0.9,4.8,1.4,9.1,1.8,12.2c0.2,1.5,0.4,2.8,0.5,3.7c0.1,0.5,0.1,0.9,0.1,1.4c-0.1-0.4-0.2-0.9-0.3-1.4
	c-0.2-0.9-0.4-2.1-0.6-3.7c-0.5-3.1-1-7.5-1.9-12.2c-0.7-4.1-1.8-8-3.2-11.9l-0.4-1l-0.4-0.9c-0.3-0.6-0.5-1-0.7-1.4
	C121.7,330.8,121.5,330.4,121.3,330z"/>
<path class="st5" d="M250.3,302.3c-11.8-8.4-32.1-2.7-35.7,0s-27.3,19.9-27.9,20.4s-66.6-1.9-66.6-1.9l55.4,45.9
	c17.6-0.2,22-2.6,29.2-6.5c0,0,14.4-8,16.3-8.8c1.5-0.6,28.7-14.1,31.5-19S262.1,310.7,250.3,302.3z"/>
<path class="st0" d="M179.3,344l-20.2,16l-8.8,2.7c-3.3,1-1.9,3.5-0.9,6.9l12.3,40.6c0,0,4.7,0.7,5-2.7s6-29.9,6-29.9l19.6-13.5
	L179.3,344z"/>
<path class="st5" d="M179.3,344c0,0,0.1,0.1,0.2,0.3l0.7,1l2.6,3.9c2.3,3.5,5.6,8.5,9.7,14.7l0.1,0.1l-0.1,0.1l-19.5,13.6l0.1-0.1
	l-3.6,17.2c-0.6,3-1.3,6.1-1.8,9.3c-0.1,0.8-0.3,1.6-0.4,2.4c-0.1,0.4-0.1,0.8-0.2,1.2c0,0.2-0.1,0.4-0.2,0.6l-0.1,0.3l-0.2,0.3
	c-0.5,0.7-1.3,1.2-2.2,1.3c-0.8,0.2-1.7,0.2-2.6,0.1h-0.1v-0.1c0-0.1-0.1-0.3-0.1-0.4c-3.3-11-6.5-21.6-9.4-31.2
	c-0.7-2.4-1.4-4.7-2.1-7c-0.4-1.1-0.7-2.3-1-3.4c-0.4-1.1-0.7-2.2-0.8-3.4c0-0.6,0.3-1.2,0.7-1.6c0.4-0.4,1-0.6,1.5-0.8l3-0.9
	l5.7-1.7H159l14.9-11.7l4-3.1l1-0.8L179.3,344l-0.4,0.3l-1.1,0.9l-4,3.2l-14.7,11.7l0,0l0,0l-5.7,1.8l-3,0.9c-0.5,0.1-1,0.4-1.4,0.7
	c-0.4,0.4-0.6,0.8-0.6,1.4c0.1,1.1,0.3,2.2,0.8,3.2c0.4,1.1,0.7,2.2,1.1,3.4c0.7,2.3,1.4,4.6,2.1,7c2.9,9.6,6.1,20.1,9.5,31.2
	c0,0.1,0.1,0.3,0.1,0.4l-0.2-0.1c0.8,0.1,1.6,0.1,2.4-0.1c0.8-0.1,1.5-0.5,1.9-1.2c0.4-0.7,0.6-1.5,0.6-2.2c0.1-0.8,0.3-1.6,0.4-2.4
	c0.6-3.2,1.2-6.3,1.8-9.3c1.3-6,2.5-11.8,3.6-17.2v-0.1h0.1l19.6-13.5v0.2l-9.5-14.7c-1.1-1.7-2-3.1-2.6-4l-0.7-1
	C179.3,344.1,179.3,344,179.3,344z"/>
<path class="st0" d="M179.9,341.1l-4.8,4.3c-0.7,0.7-0.8,1.8-0.3,2.6l13.1,18c0.6,0.8,1.7,1,2.5,0.5l5.4-3.1
	c0.9-0.5,1.2-1.7,0.7-2.6c0-0.1-0.1-0.1-0.1-0.2l-13.7-19.2c-0.6-0.9-1.8-1-2.7-0.4C180,341,179.9,341.1,179.9,341.1z"/>
<path class="st5" d="M188.3,366.7c-0.8-0.8-1.6-1.6-2.3-2.5c-1.4-1.6-3.3-3.9-5.2-6.5s-3.5-5.1-4.6-7c-0.5-0.9-1-1.7-1.2-2.2
	c-0.2-0.3-0.3-0.5-0.4-0.9c0.7,0.9,1.4,1.9,1.9,2.9c1.1,1.8,2.8,4.2,4.7,6.8s3.7,4.9,5,6.6C187,364.8,187.7,365.7,188.3,366.7z"/>
<path class="st5" d="M176.9,350.1c0.7-1.6,1.9-2.9,3.4-3.7c1.4-1,3.1-1.5,4.8-1.5C181.8,345.6,178.9,347.5,176.9,350.1z"/>
<path class="st5" d="M180.8,357.3c1.2-1.3,2.6-2.5,4.1-3.5c1.4-1.1,2.9-2.1,4.5-2.9c-1.3,1.2-2.7,2.3-4.2,3.3
	C183.8,355.3,182.3,356.4,180.8,357.3z"/>
<path class="st5" d="M186.8,364c1.5-0.8,2.9-1.7,4.2-2.9c1.1-1.3,2-2.7,2.7-4.3c0,0.5-0.1,1-0.3,1.5c-0.5,1.2-1.1,2.2-2,3.1
	c-0.9,0.9-1.9,1.6-3.1,2.1C187.8,363.9,187.3,364,186.8,364z"/>
<path class="st5" d="M150.6,372.3c0-0.1,0.7-0.4,1.8-1.1c2.8-2,4.6-5.1,4.9-8.5c0.1-1.3,0-2.1,0.1-2.1c0.2,0.7,0.3,1.4,0.3,2.1
	c-0.1,3.6-2,6.9-5.1,8.8C151.9,371.9,151.3,372.2,150.6,372.3z"/>
<path class="st5" d="M158.1,398.1c0.4-0.4,0.9-0.7,1.4-0.8c1.2-0.5,2.6-0.6,3.9-0.4c1.3,0.3,2.5,0.8,3.5,1.6c0.8,0.6,1.2,1,1.2,1.1
	c-0.5-0.2-1-0.5-1.4-0.8c-1.1-0.6-2.2-1.1-3.4-1.4c-1.2-0.2-2.5-0.2-3.6,0.2C159.1,397.8,158.6,398,158.1,398.1z"/>
<path class="st6" d="M225.7,304.3c0,0-0.2,0-0.6,0c-0.5,0.1-1,0.2-1.6,0.4c-1.4,0.4-3.3,1-5.6,1.9c-1.2,0.4-2.5,0.9-3.9,1.3
	c-1.3,0.8-2.6,1.8-3.6,2.9c-2.4,2.3-5,4.8-7.7,7.5c-5.4,5.4-10.2,10.4-13.6,14.2c-1.7,1.9-3,3.4-3.9,4.5c-0.4,0.5-0.8,0.9-1.1,1.2
	c-0.1,0.2-0.2,0.3-0.4,0.4c0.1-0.2,0.2-0.3,0.3-0.5l1-1.3c0.9-1.1,2.2-2.7,3.8-4.5c3.3-3.8,8.1-8.9,13.5-14.3
	c2.7-2.7,5.4-5.3,7.8-7.5c1.1-1.2,2.3-2.2,3.7-3c1.4-0.4,2.7-0.9,3.9-1.3c2.4-0.8,4.3-1.4,5.7-1.8c0.5-0.1,1.1-0.2,1.6-0.3
	c0.1,0,0.3,0,0.4,0C225.7,304.3,225.7,304.3,225.7,304.3z"/>
<path class="st6" d="M160.4,349.5c-0.2-0.4-0.4-0.8-0.6-1.3c-0.2-0.4-0.4-0.9-0.6-1.5s-0.5-1.2-0.9-1.9s-0.8-1.5-1.3-2.3
	s-1-1.6-1.6-2.5c-1.3-1.9-2.8-3.6-4.4-5.2c-1.6-1.6-3.4-3-5.3-4.4c-0.9-0.6-1.7-1.1-2.5-1.6s-1.6-0.9-2.3-1.2s-1.4-0.6-2-0.9
	c-0.5-0.2-1-0.4-1.5-0.6c-0.4-0.1-0.9-0.3-1.3-0.5c0.5,0.1,0.9,0.2,1.4,0.4c0.5,0.1,1,0.3,1.5,0.5c0.7,0.2,1.3,0.5,2,0.8
	c0.7,0.3,1.5,0.7,2.3,1.2s1.7,1,2.6,1.6c1.9,1.3,3.7,2.8,5.4,4.4c1.6,1.6,3.1,3.4,4.5,5.3c0.6,0.9,1.2,1.7,1.6,2.6s0.9,1.6,1.2,2.3
	s0.6,1.4,0.9,2c0.2,0.5,0.4,1,0.6,1.5C160.1,348.6,160.3,349.1,160.4,349.5z"/>
</svg>
