<?xml version="1.0" encoding="utf-8"?>
<!-- Generator: Adobe Illustrator 23.0.1, SVG Export Plug-In . SVG Version: 6.00 Build 0)  -->
<svg version="1.1" id="Calque_1" xmlns="http://www.w3.org/2000/svg" xmlns:xlink="http://www.w3.org/1999/xlink" x="0px" y="0px"
	 viewBox="0 0 500 500" style="enable-background:new 0 0 500 500;" xml:space="preserve">
<style type="text/css">
	.st0{fill:#E0E0E0;}
	.st1{fill:#EBEBEB;}
	.st2{fill:#FAFAFA;}
	.st3{fill:#F5F5F5;}
	.st4{fill:#263238;}
	.st5{fill:#455A64;}
	.st6{fill:#FFFFFF;}
	.st7{fill:#FF0000;}
	.st8{fill:#FFBE9D;}
	.st9{opacity:0.6;}
	.st10{fill:#EB996E;}
	.st11{opacity:0.3;}
</style>
<g id="freepik--background-complete--inject-6">
	<rect x="65.1" y="40.1" class="st0" width="84.9" height="88.5"/>
	<rect x="59.4" y="40.1" class="st1" width="84.9" height="88.5"/>
	<rect x="70.8" y="52" class="st2" width="62.1" height="64.7"/>
	<path class="st0" d="M70.8,117.2c-0.5,0.7-1,1.3-1.5,1.8c-1,1-2.4,2.4-4,4s-3,2.9-4,3.9c-0.5,0.6-1.1,1.1-1.8,1.5
		c0.4-0.7,0.9-1.3,1.5-1.8c1-1,2.4-2.5,4-4s3-2.9,4.1-3.9C69.6,118.1,70.2,117.6,70.8,117.2z"/>
	<path class="st0" d="M132.9,117c0.6,0.5,1.2,1,1.8,1.6c1,1,2.4,2.4,4,4s2.9,3,3.9,4c0.6,0.5,1.1,1.1,1.5,1.8
		c-0.6-0.4-1.2-1-1.8-1.5c-1-1-2.4-2.4-4-4s-2.9-3-3.9-4C133.8,118.2,133.3,117.6,132.9,117z"/>
	<path class="st0" d="M132.7,52.2c0.5-0.6,1-1.2,1.6-1.8c1-1,2.4-2.5,3.9-4s3-2.9,4.1-3.9c0.5-0.6,1.1-1.1,1.8-1.5
		c-0.5,0.6-1,1.2-1.6,1.8c-1,1-2.4,2.5-4,4s-3,2.9-4.1,3.9C133.9,51.3,133.3,51.8,132.7,52.2z"/>
	<path class="st0" d="M70.6,52.4c-0.6-0.5-1.2-1-1.8-1.5c-1-1-2.5-2.4-4-4s-2.9-3-3.9-4c-0.6-0.5-1.1-1.1-1.5-1.8
		c0.6,0.5,1.2,1,1.8,1.5c1,1,2.5,2.4,4,4c1.5,1.6,2.9,3,3.9,4C69.7,51.1,70.2,51.7,70.6,52.4z"/>
	<path class="st0" d="M132.7,116.8c0,0,0-0.1,0-0.3s0-0.5,0-0.9c0-0.8,0-2,0-3.5c0-3.1,0-7.5,0-13.2c0-11.3-0.1-27.5-0.1-46.8
		l0.2,0.2H70.9l0,0l0.2-0.2c0,23.8,0,46,0,64.7l-0.2-0.2l44.8,0.1l12.6,0.1h3.3l0,0h-3.3h-12.6l-45,0.1h-0.2v-0.2
		c0-18.7,0-41,0-64.7v-0.2h0.2h61.9h0.2v0.2c0,19.4-0.1,35.6-0.1,47c0,5.7,0,10.1-0.1,13.1c0,1.5,0,2.7,0,3.4c0,0.4,0,0.7,0,0.9
		S132.7,116.8,132.7,116.8z"/>
	<path class="st1" d="M87.2,79.1c0,0-1.3,16,16,16C103.2,86.5,96.2,79.8,87.2,79.1z"/>
	<path class="st1" d="M118.9,79.1c0,0-16-1.3-16,16C111.5,95.1,118.2,88.1,118.9,79.1z"/>
	<path class="st0" d="M102.4,70.3c0,0-13.1,11.8,0.7,24.8C109.6,88.3,109,77.6,102.4,70.3z"/>
	<path class="st0" d="M368.7,364.3c-5.3-3.3-11.3-5.4-17.5-6c-2.9-0.3-6-0.2-8.3,1.5c-0.5,0.3-0.9,0.9-0.9,1.5
		c0.1,0.4,0.4,0.8,0.8,1C350,367.7,360.7,368.4,368.7,364.3"/>
	<path class="st0" d="M368.2,363.8c-4-3-7.8-6.3-11.3-9.9c-3.5-3.7-5.9-8.2-7.1-13.1c-0.3-1.5-0.4-3.2,0.6-4.4
		C359.4,343.4,366.4,352.5,368.2,363.8"/>
	<path class="st0" d="M368.6,364.2c-0.8-4.9-0.8-9.9,0.2-14.8c1.1-4.8,3.8-9.5,7.9-12.2c1.5,3.6,0.9,7.8-0.2,11.6
		c-1.7,5.9-4.3,11.4-7.8,16.5"/>
	<path class="st0" d="M377.4,380c-5.3,0.6-10,3.5-14,7.1c-4,3.7-6.8,8.5-8,13.7c5.3-0.3,9.7-4,12.9-8.2S373.8,384,377.4,380"/>
	<path class="st0" d="M379.3,382.5c-4.3-10.9-2.8-23.1,4-32.6C386.3,360.7,385.2,372.9,379.3,382.5"/>
	<path class="st0" d="M390.9,396.4c-10-0.6-19.4,4.8-23.9,13.7c-0.3,0.6-0.6,1.3-0.2,1.9c0.4,0.4,1,0.6,1.6,0.5
		c4.7-0.3,8.9-3.1,12.3-6.4s6.4-7,10.2-9.7"/>
	<path class="st0" d="M390.5,395.6c-2.5-8.1-2.7-16.7-0.4-24.8c0.9-3.2,2.3-6.6,5.3-8.1c0.2-0.2,0.5-0.2,0.8-0.1
		c0.2,0.1,0.4,0.3,0.5,0.6c1,2.2,1.4,4.7,1.3,7.1c-0.2,2.4-0.6,4.8-1.1,7.2c-0.9,4.4-1.4,9.1-3.8,13c-0.6,0.9-1.1,1.9-1.5,2.8
		c-0.5,1-0.5,1.3-0.9,2.1"/>
	<path class="st0" d="M421.4,400.2c-2.3-8.7,0.1-19.2,5.6-26.3c0.4-0.5,0.9-1.1,1.6-1c1,0.1,1.3,1.4,1.2,2.5
		C429.4,384.2,426.4,392.9,421.4,400.2"/>
	<path class="st0" d="M424.1,402.1c10.5,2.8,22.6,0.1,31.4-6.4c-5.3-2.6-11.3-3.4-17-2.1C432.9,394.9,427.7,397.4,424.1,402.1"/>
	<path class="st0" d="M426.5,396.3c5.9-9.6,17.2-15.9,28.5-16.5c-1.3,4.6-5.1,8.1-9.3,10.3s-9,3.1-13.7,4
		C430.1,394.5,427.6,394.9,426.5,396.3"/>
	<path class="st0" d="M421.9,368.3c1.6-5.5,3.2-11,3.6-16.7s-0.4-11.6-3.3-16.5c-5.5,10.7-6.1,23.1-0.5,33.8"/>
	<path class="st0" d="M440.5,358.9c6.5-11.7,19.6-21.1,32.9-22.4C468.3,349.3,454.3,359.1,440.5,358.9"/>
	<path class="st0" d="M436.5,361.2c9.6,1.5,17.8,7.6,26.8,11.3c1.9,0.9,4,1.3,6.1,1.2c2.6,0,4.7-2.1,4.7-4.8c0-1.4-0.6-2.7-1.7-3.6
		c-1.3-1.2-2.8-2.1-4.4-2.7c-9.8-4.1-20.3-4.2-30.6-1.7"/>
	<path class="st0" d="M430.9,367.9c2.2,0.6,2.9,1.8,4.6,3.2c5.9,5,12.8,8.6,20.3,10.4c0.8,0.2,1.8,0.3,2.2-0.4s-0.1-1.4-0.5-1.9
		c-3.3-3.8-7.5-6.7-12.3-8.3c-4.7-1.7-8.8-3.9-14.4-3.4"/>
	<path class="st0" d="M424.6,327.1c8,7.3,18.7,11,29.5,10c0.5,0,1-0.2,1.3-0.5c0.7-0.8-0.1-2.1-1-2.7
		C445.8,327.2,435.3,324.4,424.6,327.1"/>
	<path class="st0" d="M432,324.4c10.6-7.8,24.3-10.1,36.8-6.1c-4.6,4.6-11.1,7-17.5,7.7C444.9,326.6,438.3,326.1,432,324.4"/>
	<path class="st0" d="M429.1,305.7c-0.9-8.7-0.3-15.5-0.9-24.2c0-0.7-0.2-1.5-0.8-1.8c-0.9-0.4-1.7,0.8-2,1.7
		c-2.6,8.2-1.2,17.1,3.7,24.1"/>
	<path class="st0" d="M428.5,306.6c5.9-3.6,10.3-8.4,14.3-13.9c2.8-3.9,5.2-8.5,4.6-13.3c-4-0.1-7.8,2.1-10.4,5.1
		c-2.5,3.1-4.3,6.7-5.3,10.6C430.6,299,429.8,302.9,428.5,306.6"/>
	<path class="st0" d="M442.6,302.7c12.9-4.8,24.9-11.8,35.3-20.8c-4.2-1.7-9-0.7-13.3,1c-9.6,3.9-17.5,10.5-22.2,19.7"/>
	<path class="st0" d="M432.4,311.4c6.5,0.7,13.1,1.2,19.6,0.1s12.4-3.6,18.3-6.1c0.5-0.2,1-0.5,1.3-1c0.2-0.6,0-1.2-0.5-1.6
		c-0.5-0.4-1-0.6-1.6-0.7c-6.5-1.8-13.4-1-19.8,1.2C443.7,305.4,437.9,308,432.4,311.4"/>
	<path class="st0" d="M395.2,327.5c-4.4-9-4.1-19.4-0.3-28.7c2.7,4.1,3,9.4,2.5,14.3s-2,9.9-2.1,14.9"/>
	<path class="st0" d="M377.5,318.5c-11.3-0.1-22,4.5-29.7,12.7c5.5,0.9,11.2-0.6,16.3-3s9.5-5.9,14-9.3"/>
	<path class="st0" d="M365.5,314.5c-5.4-0.4-10.7-1.1-15.9,0.5s-10,5.2-12.1,10.3c5.1,0.4,10.3-0.6,14.9-2.8
		C357,320.2,361.4,317.5,365.5,314.5"/>
	<path class="st0" d="M383.2,314.7c-4.9-3.2-9.9-6.5-15.6-7.8s-12.3-0.4-16.3,3.9c4.6,2.7,10.2,3,15.5,3s11.9-0.1,16.9,1.7"/>
	<path class="st0" d="M383.2,314.9c-8.4-8.2-11.5-22.9-8.1-34.1C381.7,290.9,384.6,303,383.2,314.9"/>
	<path class="st0" d="M406.2,291.7c1.6-3.7,2.7-7.5,4.1-11.2c1.3-3.8,3.3-7.3,5.8-10.4c2.6-3.1,6.3-5,10.4-5.4
		c-2.6,11.4-9.9,21.2-20.1,27"/>
	<path class="st0" d="M402,296.5c-2.6-3.6-5.6-8.5-9.1-11.1s-8.1-4.3-12.5-3.3C385,290.1,393,295.4,402,296.5"/>
	<path class="st0" d="M402.9,292c-1.7-4.3-3.4-8.7-4.1-13.3s-0.3-9.5,2.1-13.6c4.6,8.7,6.1,18,2.3,27"/>
	<path class="st0" d="M406.2,265.1c2.6-8.6,10.5-14.9,19-17.8c1.1-0.4,2.2-0.6,3.3-0.5c1.2,0.1,2.1,0.9,2.5,2.1
		c0.3,1.5-0.9,2.8-2,3.7C422.3,258.2,414.6,262.5,406.2,265.1"/>
	<path class="st0" d="M406.3,258.1c0.3-5.5,0.7-11.2,2.5-16.4s5.3-10.2,10.3-12.5c0.9,5.6-1.6,11.1-4.6,16s-6.6,9.4-8.4,14.7"/>
	<path class="st0" d="M406.2,261.9c-2.1-6.3-2.4-14.2-6.1-19.7c-2.6-3.8-6.8-6.4-9.1-10.4c-1.4,3.9-1.2,8.1,0.5,11.9
		c1.7,3.7,4,7.1,6.9,9.9C401.3,256.6,403.6,258.8,406.2,261.9"/>
	<path class="st0" d="M406.2,446.2c-0.2,0-0.3-41.8-0.3-93.3s0.1-93.3,0.3-93.3s0.3,41.8,0.3,93.3S406.4,446.2,406.2,446.2z"/>
	<path class="st0" d="M442.7,321.1c-0.5,0.2-1,0.4-1.6,0.6l-4.3,1.5c-3.6,1.2-8.6,3-14.1,5.3s-10.5,4.2-13.3,6.7
		c-1.2,1-2.1,2.2-2.7,3.5c-0.4,1-0.5,1.6-0.5,1.6c0-0.1,0-0.3,0-0.4c0.1-0.4,0.2-0.8,0.3-1.2c0.5-1.5,1.4-2.8,2.6-3.8
		c1.7-1.5,3.7-2.7,5.8-3.6c2.3-1.1,4.9-2.2,7.6-3.3c5.5-2.2,10.5-4,14.2-5.1c1.8-0.6,3.3-1,4.4-1.3
		C441.6,321.3,442.2,321.2,442.7,321.1z"/>
	<path class="st0" d="M454.7,291.8c0,0-0.1,0.2-0.4,0.5l-1.3,1.3l-5,4.5l-16.6,14.8c-6.5,5.8-12.1,11.3-16,15.5
		c-2,2.1-3.5,3.8-4.5,5c-0.5,0.6-0.9,1-1.2,1.4s-0.4,0.5-0.5,0.5c0.1-0.2,0.2-0.4,0.4-0.5c0.3-0.3,0.6-0.8,1.1-1.5
		c1-1.3,2.5-3,4.4-5.1c5-5.5,10.3-10.7,15.9-15.6c6.5-5.8,12.5-11,16.8-14.7l5.1-4.4l1.4-1.2C454.3,292,454.5,291.9,454.7,291.8z"/>
	<path class="st0" d="M424.3,318.8c-0.2-0.1,1.2-3.2,2.5-7.2s2-7.3,2.2-7.3s-0.2,3.5-1.6,7.5c-0.6,1.7-1.2,3.4-2,5
		C425.1,317.5,424.7,318.1,424.3,318.8z"/>
	<path class="st0" d="M406.3,344c-0.4-0.4-0.7-0.7-1-1.2l-2.6-3.3c-2.1-2.8-5.1-6.6-8.5-10.8s-6.4-8-8.6-10.7l-2.6-3.2
		c-0.3-0.4-0.6-0.8-0.9-1.2c0.4,0.3,0.8,0.7,1.1,1.1c0.7,0.7,1.6,1.8,2.8,3.1c2.3,2.7,5.4,6.4,8.8,10.6s6.3,8.1,8.4,11
		c1,1.4,1.9,2.6,2.4,3.4C405.8,343.1,406.1,343.6,406.3,344z"/>
	<path class="st0" d="M398.3,333.8c-0.1,0.1-2.2-2.4-3.4-6.3c-0.6-2-0.9-4.2-0.8-6.3h0.3c-0.1,0.5-0.2,0.7-0.3,0.7s0-0.3,0-0.8h0.3
		c0.1,2.1,0.5,4.1,1.1,6.1C396.6,331,398.4,333.6,398.3,333.8z"/>
	<path class="st0" d="M388,320.8c-0.7-0.6-1.5-1-2.3-1.4c-2.1-0.6-4.3-0.8-6.5-0.5c-2.2,0.2-4.4,0.5-6.5,1.1
		c-0.9,0.3-1.8,0.5-2.7,0.6c0.8-0.5,1.7-0.8,2.6-1c2.1-0.7,4.4-1.1,6.6-1.3c2.3-0.3,4.6-0.1,6.7,0.7
		C386.7,319.3,387.5,319.9,388,320.8z"/>
	<path class="st0" d="M385.5,317.6c0,0.1-1.4-0.5-3.6-1.3c-5.8-2-12-2.5-18.1-1.4c-2.3,0.4-3.7,0.8-3.7,0.7c0.3-0.2,0.6-0.3,1-0.4
		c0.9-0.3,1.8-0.6,2.7-0.8c6.1-1.3,12.5-0.9,18.3,1.4c0.9,0.3,1.7,0.7,2.6,1.2C385.2,317.4,385.5,317.6,385.5,317.6z"/>
	<path class="st0" d="M406.2,304.3c-0.2,0-1.3-4-2.6-9.1s-2.2-9.2-2-9.2s1.3,4,2.6,9.1S406.4,304.3,406.2,304.3z"/>
	<path class="st0" d="M406.4,304.3c-0.2,0.1-0.9-2.7-2.9-5.4c-1.2-1.6-2.7-3.1-4.3-4.4c0.6,0.2,1.2,0.4,1.6,0.9
		c1.2,0.9,2.3,2,3.1,3.2C405.3,300.2,406.1,302.2,406.4,304.3z"/>
	<path class="st0" d="M406.2,424c-0.1,0-0.2-1-0.7-2.8c-0.7-2.5-1.6-4.9-2.8-7.2c-2.9-5.9-8.1-13.4-14.8-20.9
		c-3.3-3.8-6.5-7.3-9.2-10.8c-2.4-3-4.7-6.2-6.6-9.5c-1.3-2.3-2.4-4.6-3.3-7.1c-0.3-0.9-0.5-1.5-0.7-2c-0.1-0.3-0.1-0.5-0.2-0.8
		c0.1,0,0.4,1,1,2.7c1,2.4,2.2,4.7,3.5,6.9c2,3.3,4.2,6.4,6.7,9.4c2.7,3.4,5.9,6.9,9.3,10.7c6.7,7.5,11.9,15.1,14.7,21.1
		c1.1,2.4,2,4.8,2.6,7.4c0.2,0.7,0.3,1.4,0.4,2.1C406.2,423.5,406.3,423.7,406.2,424z"/>
	<path class="st0" d="M439.2,386.7c-0.6,0.4-1.1,0.7-1.7,1c-1.6,0.9-3.1,1.9-4.5,3c-2.1,1.6-4.1,3.4-5.9,5.4
		c-2.1,2.2-4.2,4.7-6.4,7.4c-4.3,5.5-8.4,10.3-10.8,14.1c-1.2,1.9-2.1,3.5-2.7,4.6c-0.3,0.6-0.6,1.2-1,1.7c0-0.2,0.1-0.3,0.2-0.5
		c0.1-0.3,0.3-0.8,0.6-1.4c0.8-1.6,1.6-3.2,2.6-4.8c2.4-3.9,6.4-8.8,10.7-14.3c2.2-2.7,4.3-5.3,6.4-7.4c1.8-1.9,3.9-3.7,6-5.3
		c1.5-1.1,3-2,4.6-2.8c0.6-0.3,1-0.5,1.4-0.6C438.9,386.8,439,386.8,439.2,386.7z"/>
	<path class="st0" d="M439.9,398.8c-1.2,0.3-2.4,0.4-3.6,0.5c-2.9,0.3-5.8,0.9-8.7,1.7c-2.8,0.9-5.4,2.3-7.8,4.1
		c-1.8,1.4-2.6,2.5-2.7,2.5c0.1-0.3,0.3-0.6,0.5-0.8c0.6-0.7,1.2-1.4,1.9-2c2.3-1.9,5-3.4,7.8-4.3c2.9-0.9,5.8-1.4,8.8-1.6
		C437.4,398.7,438.6,398.7,439.9,398.8z"/>
	<path class="st0" d="M418.1,406.3c-0.2-0.1,1.5-2.6,2.7-6s1.5-6.4,1.7-6.4c0.1,0.7,0.1,1.3-0.1,2c-0.2,1.6-0.5,3.1-1.1,4.6
		c-0.6,1.5-1.3,2.9-2.1,4.2C419,405.3,418.6,405.8,418.1,406.3z"/>
	<path class="st0" d="M449.9,354.3c-0.2,0.1-0.4,0.2-0.6,0.3l-1.7,0.8c-0.8,0.3-1.7,0.7-2.7,1.3s-2.2,1.1-3.5,1.8l-2,1.1
		c-0.7,0.4-1.4,0.9-2.1,1.3c-1.5,0.9-2.9,2-4.5,3.1c-6.7,5-12.6,11.1-17.4,18c-1.1,1.6-2.1,3.1-3,4.6c-0.4,0.7-0.9,1.4-1.3,2.1
		l-1.1,2c-0.7,1.3-1.2,2.5-1.7,3.5s-0.9,2-1.2,2.7l-0.7,1.7c-0.1,0.2-0.2,0.4-0.3,0.6c0-0.2,0.1-0.4,0.2-0.6
		c0.2-0.5,0.4-1.1,0.6-1.8c0.3-0.9,0.7-1.9,1.1-2.8c0.5-1.1,1-2.3,1.6-3.6l1-2.1c0.4-0.7,0.8-1.4,1.2-2.2c0.8-1.5,1.9-3,2.9-4.7
		c4.8-7,10.7-13.1,17.5-18.1c1.6-1.1,3.1-2.2,4.6-3.1c0.7-0.5,1.4-0.9,2.1-1.3l2-1.1c1.3-0.7,2.5-1.3,3.5-1.8
		c0.9-0.4,1.8-0.8,2.7-1.2l1.8-0.7C449.4,354.4,449.7,354.3,449.9,354.3z"/>
	<path class="st0" d="M423.8,371.8c0.2-0.8,0.7-1.6,1.4-2.1c1.6-1.4,3.7-2.2,5.8-2.2c2.1,0,4.2,0.4,6.1,1.2c0.8,0.3,1.6,0.6,2.3,1.1
		c-0.8-0.2-1.6-0.4-2.4-0.7c-1.9-0.7-3.9-1-5.9-1c-2,0-3.9,0.7-5.5,1.9C424.9,370.5,424.3,371.1,423.8,371.8z"/>
	<path class="st0" d="M419.9,375.8c-0.2-0.1,1.3-2.3,1.6-5.3s-0.5-5.5-0.4-5.6s0.4,0.5,0.7,1.6c0.7,2.7,0.4,5.5-0.9,8
		C420.4,375.4,420,375.8,419.9,375.8z"/>
	<path class="st0" d="M377.4,430c0.9,16,5.7,32.2,13.1,48.6h32.2c7.1-16.3,11.5-32.5,12.3-48.6H377.4z"/>
	<path class="st2" d="M429.8,455.8c0,0.2-10.6,0.3-23.7,0.3s-23.6-0.1-23.6-0.3s10.6-0.3,23.6-0.3S429.8,455.6,429.8,455.8z"/>
	<path class="st2" d="M429.1,461.5c0,0.2-9.9,0.3-22.2,0.3s-22.2-0.1-22.2-0.3s9.9-0.3,22.2-0.3S429.1,461.4,429.1,461.5z"/>
	<path class="st2" d="M391,440.4c0.4,4.9,0.4,9.9,0,14.8c-0.2,0-0.3-3.3-0.3-7.4S390.9,440.4,391,440.4z"/>
	<path class="st2" d="M408.3,440.4c0.2,0,0.3,3.4,0.3,7.7s-0.1,7.7-0.3,7.7s-0.3-3.4-0.3-7.7S408.1,440.4,408.3,440.4z"/>
	<path class="st2" d="M424.4,440.3c0.2,0,0.3,3.5,0.3,7.8s-0.1,7.8-0.3,7.8s-0.3-3.5-0.3-7.8S424.3,440.3,424.4,440.3z"/>
	<path class="st2" d="M434,440.4c0,0.2-12.4,0.3-27.7,0.3s-27.7-0.1-27.7-0.3s12.4-0.3,27.7-0.3S434,440.3,434,440.4z"/>
	<rect x="52.2" y="281.2" class="st1" width="364.5" height="11.2"/>
	<polygon class="st1" points="83.8,291.1 56.5,478.5 62.3,478.5 96,292.5 	"/>
	<polygon class="st1" points="391,289.9 419.8,478.5 413.9,478.5 378.7,291.6 	"/>
	<path class="st3" d="M66.1,236v25.3h-4.2v2.7h4.2v16.9H145v-15.4h-5.8v-3.4h5.8v-5h2.6v-2.3h-3.1V236H66.1z"/>
	<polygon class="st0" points="124,236 124,280.6 145,280.6 145,265.2 139.1,265.2 139.1,262.2 145,262.3 145,257.2 147.6,257.2 
		147.6,254.6 144.5,254.6 144.5,236 	"/>
	<path class="st0" d="M125.5,263.6c0,0.2-14.3,0.3-31.9,0.3s-31.9-0.1-31.9-0.3s14.3-0.3,31.9-0.3S125.5,263.5,125.5,263.6z"/>
	<path class="st0" d="M125.5,261.1c0,0.2-14.3,0.3-31.9,0.3s-31.9-0.1-31.9-0.3s14.3-0.3,31.9-0.3S125.5,260.9,125.5,261.1z"/>
	<path class="st0" d="M129.6,254.1c0,0.2-14.3,0.3-31.9,0.3s-31.9-0.1-31.9-0.3s14.3-0.3,31.9-0.3S129.6,254,129.6,254.1z"/>
	<path class="st0" d="M130,273c0,0.2-14.3,0.3-31.9,0.3s-31.9-0.1-31.9-0.3s14.3-0.3,31.9-0.3S130,272.8,130,273z"/>
	<rect x="137.1" y="219" class="st3" width="13.8" height="16.4"/>
	<rect x="75.4" y="218" class="st0" width="62.2" height="18.4"/>
	<path class="st0" d="M151.2,219.5h-15.4V218h15.4c0.4,0,0.8,0.3,0.8,0.8l0,0C152,219.2,151.7,219.5,151.2,219.5z"/>
	<path class="st0" d="M151.2,236.4h-15.4v-1.6h15.4c0.4,0,0.8,0.3,0.8,0.8l0,0C152,236.1,151.7,236.4,151.2,236.4z"/>
	<rect x="125.3" y="218" class="st1" width="7.4" height="18.4"/>
	<rect x="81.3" y="218.2" class="st1" width="7.3" height="18.4"/>
	<path class="st0" d="M150.8,221.7c0,0-3,0.1-6.6,0.1s-6.7,0-6.7-0.1s3-0.1,6.7-0.1S150.8,221.7,150.8,221.7z"/>
	<path class="st0" d="M150.8,224.2c0,0-3,0.1-6.6,0.1s-6.7,0-6.7-0.1s3-0.1,6.7-0.1S150.8,224.1,150.8,224.2z"/>
	<path class="st0" d="M150.8,227.2c0,0-3,0.1-6.6,0.1s-6.7,0-6.7-0.1s3-0.1,6.7-0.1S150.8,227.2,150.8,227.2z"/>
	<path class="st0" d="M150.8,230.2c0,0-3,0.1-6.6,0.1s-6.7,0-6.7-0.1s3-0.1,6.7-0.1S150.8,230.2,150.8,230.2z"/>
	<path class="st0" d="M150.8,233.3c0,0-3,0.1-6.6,0.1s-6.7,0-6.7-0.1s3-0.1,6.7-0.1S150.8,233.2,150.8,233.3z"/>
	<rect x="93.4" y="225.6" class="st1" width="28" height="3.3"/>
	<polygon class="st0" points="124.5,200.1 132.2,218.2 127.2,218.2 123.8,208.5 	"/>
	<polygon class="st1" points="100.7,183.6 97.7,218.2 123,218.2 125.8,183.6 	"/>
	<polygon class="st2" points="103.2,186.4 100.6,215.4 119.6,215.6 122.1,186.2 	"/>
	<polygon class="st0" points="107.2,190.4 105.7,210.3 115.9,210.3 117.6,190.4 	"/>
	
		<rect x="388.6" y="55" transform="matrix(1 -5.410494e-03 5.410494e-03 1 -0.4175 2.1291)" class="st0" width="9.4" height="46.5"/>
	
		<rect x="307.5" y="55.1" transform="matrix(1 -5.410494e-03 5.410494e-03 1 -0.363 1.7305)" class="st1" width="24.2" height="25.7"/>
	
		<rect x="331.6" y="55" transform="matrix(1 -5.410494e-03 5.410494e-03 1 -0.362 1.8609)" class="st3" width="24.2" height="25.7"/>
	<path class="st0" d="M307.5,62.3c16.1,0.1,32.2,0,48.3-0.2c0.1,0,0.2-0.2,0.2-0.3c0-0.1-0.1-0.2-0.2-0.2c-16.1-0.1-32.2,0-48.3,0.3
		c-0.1,0-0.2,0.1-0.2,0.2C307.3,62.2,307.4,62.3,307.5,62.3L307.5,62.3z"/>
	
		<rect x="292.4" y="80.4" transform="matrix(1 -5.410494e-03 5.410494e-03 1 -0.4873 1.7026)" class="st1" width="44" height="20.9"/>
	
		<rect x="336.2" y="80.2" transform="matrix(1 -5.410494e-03 5.410494e-03 1 -0.4853 1.9395)" class="st3" width="44" height="20.9"/>
	<path class="st0" d="M292.4,86.4c29.2,0.3,58.6,0,87.8-0.4c0.1,0,0.3-0.1,0.3-0.3c0-0.1-0.1-0.3-0.3-0.3
		c-29.2-0.2-58.6-0.1-87.8,0.5c-0.1,0-0.2,0.1-0.2,0.2S292.3,86.4,292.4,86.4z"/>
	<rect x="276" y="101.5" class="st0" width="170.5" height="7.5"/>
	<rect x="303.9" y="105.1" class="st0" width="6.9" height="25.6"/>
	<rect x="407.2" y="105.1" class="st0" width="6.9" height="25.6"/>
	
		<rect x="397.8" y="37.6" transform="matrix(1 -5.410494e-03 5.410494e-03 1 -0.3707 2.1785)" class="st1" width="9.4" height="64"/>
	
		<rect x="407.2" y="49.5" transform="matrix(1 -5.410494e-03 5.410494e-03 1 -0.4023 2.2435)" class="st3" width="14.5" height="51.9"/>
	<path class="st0" d="M421.5,59.5c-2.4,0.3-4.8,0.3-7.3,0.3c-2.4,0.1-4.8,0-7.3-0.3C411.8,59.2,416.6,59.2,421.5,59.5z"/>
	<path class="st0" d="M421.5,57.3c-2.4,0.3-4.8,0.3-7.3,0.3c-2.4,0.1-4.8,0-7.3-0.3C411.8,57,416.6,57,421.5,57.3z"/>
	<path class="st0" d="M421.5,93.6c-4.8,0.3-9.7,0.3-14.5,0C411.8,93.2,416.6,93.2,421.5,93.6z"/>
	<path class="st0" d="M421.5,91.4c-4.8,0.3-9.7,0.3-14.5,0C411.8,91.1,416.6,91.1,421.5,91.4z"/>
	<path class="st0" d="M414.5,86.6c-0.1,0-0.3-5.2-0.3-11.7s0.1-11.7,0.3-11.7s0.3,5.2,0.3,11.7S414.6,86.6,414.5,86.6z"/>
	<rect x="421.6" y="62.3" class="st1" width="15.8" height="39.2"/>
	<path class="st0" d="M404.8,48.5c0,1.5-1.2,2.7-2.7,2.7c-1.5,0-2.7-1.2-2.7-2.7c0-1.5,1.2-2.7,2.7-2.7c0,0,0,0,0,0
		C403.6,45.8,404.8,47,404.8,48.5z"/>
	<rect x="401.3" y="55.9" class="st0" width="1.7" height="38.1"/>
</g>
<g id="freepik--Floor--inject-6">
	<path class="st4" d="M459.9,478.5c0,0.1-94,0.3-209.8,0.3s-209.9-0.1-209.9-0.3s93.9-0.3,209.9-0.3S459.9,478.4,459.9,478.5z"/>
</g>
<g id="freepik--Chair--inject-6">
	<polygon class="st0" points="248.3,351.9 289.5,478.5 282,478.5 233.7,351.9 	"/>
	<path class="st4" d="M248.3,351.9h-1h-2.8l-10.8,0.1l0.1-0.1c8.3,21.6,26.1,68.2,46.8,122.2c0.6,1.5,1.1,3,1.7,4.4l-0.2-0.2h7.5
		l-0.3,0.3c-11.5-35.5-21.8-67.2-29.2-89.9c-3.7-11.4-6.6-20.6-8.7-26.9c-1-3.2-1.8-5.6-2.3-7.3l-0.6-1.9
		C248.3,352.1,248.3,351.8,248.3,351.9c0,0,0.1,0.2,0.2,0.6l0.6,1.9c0.6,1.7,1.4,4.1,2.4,7.2c2.1,6.3,5.1,15.5,8.8,26.8
		c7.5,22.8,17.8,54.5,29.4,90l0.1,0.3h-8l-0.1-0.2c-0.5-1.5-1.1-2.9-1.7-4.4c-20.5-54.1-38.3-100.8-46.5-122.3v-0.1h0.2l10.9,0.1
		h2.8C248,351.9,248.3,351.9,248.3,351.9z"/>
	<polygon class="st0" points="167.1,351.9 125.9,478.5 133.4,478.5 181.7,351.9 	"/>
	<path class="st4" d="M167.1,351.9c0,0,0.3,0,0.9,0h2.8l10.9-0.1h0.2l-0.1,0.1c-8.2,21.5-25.9,68.2-46.5,122.3l-1.7,4.4l-0.1,0.2h-8
		l0.1-0.3l29.4-90l8.8-26.8c1-3.1,1.9-5.6,2.4-7.2l0.6-1.9C167.1,352.2,167.2,352,167.1,351.9c0,0.1,0,0.3-0.1,0.7l-0.6,1.9
		c-0.5,1.7-1.3,4.1-2.3,7.3c-2.1,6.4-5,15.5-8.7,26.9c-7.4,22.8-17.7,54.4-29.2,89.9l-0.3-0.3h7.5l-0.2,0.2l1.7-4.4
		c20.7-54,38.5-100.7,46.8-122.2l0.1,0.1l-10.8-0.1h-2.8L167.1,351.9z"/>
	<path class="st4" d="M234.8,354.6c-0.2,0.2-0.5,0.4-0.7,0.5l-2.1,1.4l-7.8,5.1c-6.6,4.3-15.7,10.4-25.7,17.1L172.9,396l-7.8,5.2
		l-2.1,1.3c-0.2,0.2-0.5,0.3-0.8,0.5c0.2-0.2,0.5-0.4,0.7-0.5l2.1-1.5l7.7-5.3c6.5-4.5,15.5-10.6,25.5-17.3s19.1-12.7,25.8-16.9
		c3.3-2.1,6-3.8,7.9-5l2.2-1.3C234.2,354.9,234.5,354.8,234.8,354.6z"/>
	<path class="st4" d="M155.7,216.8c0,0-12.9,1.3-14.8,9.1s-8,104,0,117.6s111,11.7,118.1,9.9s10.5-6.5,9.8-12.2
		s-70.9-12.7-70.9-12.7l4.3-100.4C202.2,228.1,177,215.4,155.7,216.8z"/>
	<path class="st5" d="M268.9,343.7h-0.3h-0.9l-3.5,0.1c-3.1,0.1-7.5,0.1-13,0.1c-11,0-26.1-0.4-42.9-1.6c-8.4-0.6-16.3-1.4-23.5-2.2
		s-13.7-1.7-19.1-2.6c-2.7-0.4-5.2-0.8-7.3-1.2s-4-0.7-5.5-1l-3.5-0.7l-0.9-0.2l-0.3-0.1c0.1,0,0.2,0,0.3,0l0.9,0.1l3.5,0.6
		c1.5,0.3,3.4,0.6,5.5,0.9s4.6,0.7,7.3,1.1c5.4,0.8,11.9,1.6,19.1,2.5s15.1,1.5,23.5,2.2c16.7,1.2,31.9,1.6,42.8,1.7
		c5.5,0.1,9.9,0.1,13,0.1h4.5L268.9,343.7z"/>
	<path class="st4" d="M253.8,404.4c-0.1,0.1-16.4-11.4-36.4-25.6s-36.2-25.9-36.1-26s16.4,11.4,36.4,25.6S253.8,404.3,253.8,404.4z"
		/>
</g>
<path class="st6" d="M164.8,130.4l-8.3-14.5c11.3-18.3,5.6-42.3-12.7-53.5s-42.3-5.6-53.5,12.7s-5.6,42.3,12.7,53.5
	c13.8,8.5,31.4,7.6,44.2-2.4l0,0L164.8,130.4z"/>
<path class="st4" d="M164.8,130.4l-17.6-4h-0.2l0.1-0.2l0,0l0.2,0.2c-5.4,4.2-11.9,7-18.7,7.9c-2,0.3-4.1,0.4-6.2,0.3
	c-1.1-0.1-2.1-0.1-3.2-0.2L116,134c-9.8-1.9-18.5-7.5-24.3-15.6c-3.2-4.5-5.5-9.6-6.6-15c-1.1-5.7-1-11.7,0.5-17.3
	c1.5-5.9,4.3-11.4,8.3-16c4.1-4.7,9.2-8.4,15-10.7c5.5-2.2,11.5-3.1,17.5-2.7c5.6,0.4,11.1,2,16,4.7c8.8,4.9,15.5,13,18.5,22.6
	c1.2,4.1,1.8,8.4,1.7,12.7c-0.2,6.8-2.2,13.5-5.8,19.3v-0.2L164.8,130.4c-0.5-0.9-3.1-5.3-8.4-14.5v-0.1v-0.1
	c3.5-5.8,5.5-12.4,5.6-19.2c0.1-4.2-0.5-8.4-1.7-12.5c-3-9.5-9.6-17.5-18.3-22.4c-4.9-2.7-10.2-4.3-15.8-4.6
	c-5.9-0.4-11.7,0.5-17.2,2.7c-5.7,2.3-10.7,5.9-14.8,10.6c-4,4.5-6.8,9.9-8.2,15.8c-1.4,5.6-1.6,11.4-0.5,17.1
	c1.1,5.4,3.3,10.4,6.5,14.8c5.7,8,14.3,13.6,24,15.5l3.3,0.5c1.1,0.1,2.1,0.1,3.2,0.2c2,0.1,4.1,0,6.1-0.3
	c6.7-0.9,13.1-3.5,18.5-7.7l1-0.8l-0.8,1l0,0l-0.1-0.2L164.8,130.4z"/>
<path class="st7" d="M116.8,90.3h2.5l5.4-7.5v-4.9c0,0,3.8-0.2,3.4,6.2s0,4.8,0,4.8s8.1,0,8.7,0.7c0.5,0.5,0.7,8.5,0.8,12.9
	c0.1,2.2-1.3,4.1-3.3,4.7c-0.3,0.1-0.6,0.1-0.9,0.1c-2,0-12.3-1.6-12.3-1.6h-4.3L116.8,90.3z"/>
<polygon class="st7" points="109.7,89 111.3,105.8 115.5,105.8 115.5,89.3 "/>
<path class="st8" d="M320.4,302c0,0,23.1,0,24.1,21.6s-67.4,135.3-67.4,135.3l-21.6-10.3l46.4-110.4l-100.6-9.9l2.8-25.3L320.4,302z
	"/>
<path class="st5" d="M281.7,452.3l-0.7,1.5c0,0,21.2,21.8,19.3,26.8l-51.1-23l8.3-16.7C263.5,447.9,271.3,451.9,281.7,452.3z"/>
<g class="st9">
	<path class="st6" d="M260.3,448.7c-1.2-0.1-2.2,0.6-2.5,1.7c-0.2,1.2,0.6,2.3,1.7,2.5c1.2,0.1,2.4-0.6,2.6-1.9
		c0.1-1.2-0.8-2.3-2-2.4"/>
</g>
<g class="st9">
	<path class="st6" d="M249.2,457.7l2-4l48.3,23.5c0,0,1.8,2,0.9,3.5L249.2,457.7z"/>
</g>
<path class="st4" d="M281.1,454c-0.1,0.2-1.4-0.2-3,0s-2.7,1-2.9,0.8s0.8-1.5,2.8-1.8S281.3,453.8,281.1,454z"/>
<path class="st4" d="M285.5,458.7c0,0.3-1.3,0.2-2.6,0.9s-2.1,1.7-2.3,1.6s0.2-1.6,1.9-2.4S285.6,458.4,285.5,458.7z"/>
<path class="st4" d="M285.6,466.5c-0.3,0,0-1.5,1.2-2.5s2.7-1.1,2.7-0.8s-1,0.7-2,1.6S285.9,466.5,285.6,466.5z"/>
<polygon class="st8" points="276.6,220.7 280.7,233.3 258.3,235 255.7,228.3 "/>
<path class="st8" d="M340.2,237.2c0.4,0.9,1.5,1,2.4,1.4c1.6,0.9,2.6,2.7,2.5,4.6c-0.1,1.8-0.8,3.6-1.8,5.2
	c-0.3,0.6-0.8,1.2-1.3,1.6c-0.6,0.4-1.4,0.4-1.9,0c-0.7-0.6-0.6-1.6-0.4-2.4C340.1,244.4,339.5,240.4,340.2,237.2"/>
<path class="st8" d="M191.2,79.6c-0.4-2.9,1.5-5.6,4.4-6.3l24.7-15.7c9.4-2.1,21.3,13.6,23,23.1c1.7,10.4,2.4,21,2,31.6
	c-0.7,16.3-11.3,18-11.3,18l8,54.1l-38.6-23.8L191.2,79.6z"/>
<path class="st4" d="M238.1,94.2c0.1,1.1-0.6,2.1-1.7,2.3c-1.1,0.2-2.1-0.5-2.3-1.6c-0.1-1.1,0.6-2.1,1.7-2.3
	C236.9,92.4,237.9,93.1,238.1,94.2z"/>
<path class="st4" d="M241.3,88.3c-0.2,0.2-1.8,0.2-3.9,1s-3.4,1.9-3.7,1.8s0-0.3,0.6-0.8c0.9-0.7,1.9-1.3,2.9-1.6
	c1-0.4,2.1-0.6,3.2-0.6C241.1,88.1,241.4,88.2,241.3,88.3z"/>
<path class="st4" d="M217.7,95.2c0.1,1.1-0.6,2.1-1.7,2.3c-1.1,0.2-2.1-0.5-2.3-1.6c-0.1-1.1,0.6-2.1,1.7-2.3
	C216.4,93.4,217.5,94.1,217.7,95.2z"/>
<path class="st4" d="M219.8,92.5c-0.3,0.1-1.8-0.8-4.2-1.2s-4.3,0-4.5-0.2s0.2-0.3,1-0.5c1.2-0.2,2.4-0.3,3.6-0.1
	c1.2,0.2,2.3,0.5,3.3,1.1C219.8,92.2,220,92.5,219.8,92.5z"/>
<path class="st4" d="M229.6,106.1c1.1-0.5,2.3-0.9,3.5-1.1c0.6-0.1,1.1-0.3,1.1-0.7c0-0.6-0.2-1.2-0.6-1.6c-0.7-1.3-1.4-2.7-2.2-4.1
	c-3-5.8-5.3-10.7-5-10.8s2.9,4.5,5.9,10.3l2.1,4.1c0.4,0.6,0.6,1.4,0.6,2.2c-0.1,0.4-0.4,0.8-0.8,0.9c-0.3,0.1-0.6,0.2-0.9,0.2
	C232,106,230.8,106.1,229.6,106.1z"/>
<path class="st10" d="M233.9,130.3c-7.5,1.1-15.1,0.1-22-3c0,0,6.6,11.2,22.4,7.9L233.9,130.3z"/>
<path class="st10" d="M229.8,111.5c-1.1-1.4-2.8-2.3-4.6-2.3c-1,0-2,0.7-2.3,1.7c-0.4,1.3-0.1,2.6,0.8,3.6c0.8,1.1,2.2,1.6,3.5,1.2
	c1-0.4,1.9-1.2,2.6-2.1c0.2-0.2,0.4-0.5,0.5-0.8c0.1-0.4,0-0.8-0.3-1.1"/>
<path class="st4" d="M223.3,108.4c0.4-0.1,0.6,2.3,2.9,3.8s4.8,0.9,4.8,1.2c0,0.2-0.5,0.5-1.6,0.7c-1.4,0.2-2.8-0.1-4-0.9
	c-1.1-0.7-2-1.9-2.3-3.2C222.9,109,223.1,108.4,223.3,108.4z"/>
<path class="st4" d="M220.5,82.7c-0.2,0.6-2.4,0.3-5,0.7s-4.7,1.1-5.1,0.6c-0.2-0.3,0.2-0.8,1-1.4c2.3-1.5,5.1-1.9,7.7-1
	C220.1,82,220.6,82.4,220.5,82.7z"/>
<path class="st4" d="M241.4,83.4c-0.4,0.6-2.4,0.3-4.6,0.5s-4.1,0.8-4.6,0.3c-0.2-0.2,0-0.8,0.8-1.3c2.2-1.4,5-1.7,7.5-0.7
	C241.3,82.7,241.6,83.1,241.4,83.4z"/>
<path class="st4" d="M180.3,121.1c0.4-7.3,1.6-30.5,6.2-43.1s11.3-18.3,18.1-21c5.2-2.2,11.2-1.6,15.8,1.7
	c3.5,2.5,5.5,10.6,5.5,10.6s-16.4,5.7-21,16c-5.3,11.8-6.2,17.5-6.2,17.5l-1.4,6.3c0,0,3.1,27.3,4.5,33l-22.3,21.6
	C180.2,156.6,179.9,128.4,180.3,121.1z"/>
<path class="st4" d="M226.4,69.4c0,0,9.5-2.2,14.3,8.3c2.2,4.8,4.3,19.1,4.3,19.1s0.8-11.8-0.4-18.1s-5.4-14.2-10.9-18.1
	s-9.6-5.4-18.1-3.9c2.6,0.6,4.9,2,6.7,3.9C223.6,62.1,224.3,63.4,226.4,69.4z"/>
<path class="st8" d="M198.9,103.6c-0.6-3.5-4.7-5.4-7.6-3.3c-1.6,1.2-2.6,3.3-2.1,7c1.6,10,11.2,6.3,11.2,6.1
	S199.6,107.8,198.9,103.6z"/>
<path class="st10" d="M196.9,110.1c0,0-0.1,0.2-0.4,0.3c-0.4,0.2-0.9,0.3-1.3,0.2c-1.1-0.2-2.3-1.8-2.6-3.5
	c-0.2-0.8-0.1-1.7,0.1-2.6c0.1-0.7,0.5-1.2,1.1-1.5c0.4-0.2,0.9,0,1.1,0.3c0.2,0.3,0.1,0.5,0.2,0.5s0.2-0.2,0-0.6
	c-0.1-0.2-0.3-0.4-0.5-0.6c-0.3-0.2-0.7-0.2-1-0.1c-0.8,0.3-1.4,1-1.6,1.8c-0.3,0.9-0.3,1.9-0.2,2.9c0.4,2,1.7,3.7,3.2,3.9
	c0.6,0.1,1.1-0.1,1.5-0.5C196.9,110.3,196.9,110.1,196.9,110.1z"/>
<path class="st5" d="M208.6,55.9c0,0.1,1.4-0.1,3.6-0.1c1.3,0,2.6,0.3,3.8,0.7c1.5,0.5,2.8,1.4,4,2.4c2.2,1.9,3.8,4.3,4.9,7
	c0.8,2,1,3.4,1.1,3.4c0-0.3-0.1-0.6-0.1-0.9c-0.8-3.7-2.8-7.1-5.6-9.7c-1.2-1.1-2.6-2-4.1-2.5c-1.3-0.4-2.6-0.6-3.9-0.6
	c-0.9,0-1.8,0.1-2.6,0.2C209.2,55.8,208.9,55.9,208.6,55.9z"/>
<path class="st5" d="M190.5,111.9c0-0.1,0-0.1,0-0.2l-0.1-0.4c-0.1-0.2-0.1-0.5-0.2-0.7l-0.3-1c-0.5-2.2-0.8-4.4-0.7-6.7
	c0.1-3.3,0.9-6.6,2.4-9.6c1.9-3.6,4.5-6.8,7.8-9.3c1.7-1.3,3.4-2.5,5.3-3.6c1.8-1.1,3.5-1.9,5.2-2.9c2.9-1.7,5.6-3.7,8.2-5.9
	c2.2-1.8,3.9-3.4,5-4.6c0.6-0.6,1-1,1.3-1.3l0.3-0.3c0.1-0.1,0.1-0.1,0.1-0.1l-0.1,0.1l-0.4,0.3l-1.3,1.3c-1.2,1.1-2.9,2.7-5.1,4.5
	c-2.6,2.1-5.3,4.1-8.2,5.8c-1.6,1-3.4,1.8-5.2,2.9c-1.8,1.1-3.6,2.3-5.3,3.6c-3.3,2.5-6,5.7-7.9,9.4c-1.5,3-2.3,6.4-2.4,9.8
	c-0.1,2.3,0.2,4.5,0.8,6.7l0.3,1c0.1,0.3,0.2,0.5,0.3,0.7l0.2,0.4C190.4,111.9,190.4,111.9,190.5,111.9z"/>
<path class="st5" d="M187.7,108.4c0,0,0-0.1,0-0.2l-0.1-0.5c0-0.4-0.2-1-0.2-1.8c-0.2-2.3-0.3-4.5-0.1-6.8c0.2-3.3,0.9-6.6,2-9.8
	c1.4-3.9,3.3-7.5,5.9-10.8c2.6-3.2,5.6-6,9-8.4c3-2.2,6-4,8.4-5.6s4.4-2.8,5.7-3.7c0.7-0.4,1.2-0.8,1.5-1.1l0.4-0.3l0.1-0.1
	c0,0-0.1,0-0.1,0.1l-0.4,0.3l-1.6,1c-1.3,0.9-3.3,2.1-5.8,3.6c-2.4,1.5-5.4,3.3-8.4,5.5c-3.4,2.4-6.4,5.2-9,8.4
	c-2.6,3.3-4.6,6.9-6,10.9c-1.1,3.2-1.8,6.5-2,9.9c-0.1,2.3-0.1,4.5,0.2,6.8c0.1,0.8,0.2,1.4,0.3,1.8c0,0.2,0.1,0.3,0.1,0.5
	S187.7,108.4,187.7,108.4z"/>
<path class="st5" d="M241.1,146.9c0,0,12.9,5.2,15.4,11.9c2.5,6.7,21.2,62.1,21.2,62.1l-21.8,8.3l-9.9-45.6L241.1,146.9z"/>
<path class="st8" d="M174.5,304.3c0,0,133-6.1,141.3-3.9s13.3,6.4,15,16.4s27.3,142.6,27.3,142.6l-23.3,6.9c0,0-32.7-74.7-34.1-87.2
	s-6-38.1-6-38.1s-50.6,0.8-87.8,0s-32.2-35.3-32.2-35.3L174.5,304.3z"/>
<path class="st10" d="M334.5,466.9l-0.2-0.4c-1.3-3.1-32.8-74.9-34.1-87.4c-1.3-11.5-5.3-34.3-5.9-37.7c-5,0.1-52.4,0.8-87.4,0
	c-11.6-0.3-20.3-3.8-25.9-10.4c-8.5-10.1-7-24.2-6.8-25.4l-0.3-1.9h0.6c5.4-0.3,133.2-6.1,141.5-3.9c9.3,2.5,13.8,7.3,15.4,16.8
	c1.6,9.9,27,141.3,27.3,142.6l0.1,0.4L334.5,466.9z M295.1,340.5l0.1,0.4c0,0.3,4.6,25.8,6,38.1c1.3,11.8,31.3,80.7,33.9,86.6
	l22.5-6.6c-1.6-8.5-25.6-132.6-27.2-142.2c-1.5-9-5.7-13.7-14.6-16c-7.9-2.1-131.2,3.5-140.6,3.9l0.1,0.9v0.1c0,0.1-2,14.5,6.6,24.7
	c5.4,6.4,13.9,9.8,25.2,10.1c36.8,0.8,87.3,0,87.8,0L295.1,340.5z"/>
<path class="st5" d="M183.4,232.5l3.4,20.7c0,0-14.6,27.6-16.2,51.3c-0.8,11.3,5.7,34.3,5.7,34.3s51.2,5.6,78.9,4.9l29.5-1.3
	l5.2-46.1l-33.1-4.8l0.5-62.8c0,0,6-16.5,6.5-21.4c1.1-10.3,0.6-20.8-9.7-34.1l-12.9-26.4l-4.3-2l2.1,31.9l-37.1-35.3l-18.8,6.8
	l-5.3,25.1L183.4,232.5z"/>
<g class="st11">
	<path d="M247.8,299.3c-2.4,0.4-19.8,0.7-22.2,1.1c-0.8,0.3-1.7,0.2-2.5-0.3c-0.6-0.6-0.8-1.5-0.5-2.3c0.3-0.8,0.8-1.5,1.5-2
		c4.2-4,9.7-6.3,15-8.6c1.7-0.7,3.5-1.4,5.3-1c1.8,0.6,3.1,2,3.7,3.8c0.5,1.8,0.7,3.6,0.6,5.4"/>
</g>
<g class="st11">
	<path d="M184.8,247c6.2-1.4,10.1-7.6,12.6-13.4s4.6-12.3,9.5-16.4c3.6-3,8.5-4.3,11.6-7.8c3-3.5,3.9-8.4,2.1-12.6
		c-0.9-2.1-2.7-4.2-5-4.3c-2.7-0.1-4.8,2.2-6.4,4.4c-7.5,9.9-14.7,20.1-21.4,30.6c-3.6,5.6-7.2,12.5-4.7,18.7"/>
</g>
<path class="st8" d="M184.9,151.6c0,0-10.5,3.3-14.3,9.9s-10.1,38.6-11.6,47.2s-8.9,44.1,0,49.7c8.9,5.6,20.5-3,23.6-8.1
	s15.4-31.7,15.4-31.7l-11.1-9.4c0,0,2-25.3,1.3-30.7S184.9,151.6,184.9,151.6z"/>
<path class="st5" d="M151.9,217.4l24.4,1.6l11.1-13.1l3.1-20.6l-0.8-39.4c0,0-21.8,5.3-26.5,21.9C159.7,180,151.9,217.4,151.9,217.4
	z"/>
<path class="st8" d="M195.1,170.8c-1.4-0.2-3.2,1.5-2,5.4c1,3.3,2.9,6.6,2.7,8.4s-0.9,5.7-0.9,7.7c-0.1,2-0.3,3.9-0.6,5.8l-16.6,20
	l14.4,12.7l11.4-17.9c0,0,3.4,0.6,5.4-1.7l3-3.4c0,0,7.7-2.9,6.1-7c0,0,2.3-2.2,0.2-5.6c0,0,1.1-3.6-0.5-5.8c0,0-0.1-4.9-1.4-5.7
	s-14.6-1-14.6-1c-0.7-2.2-1.6-4.4-2.5-6.5C197.7,173.8,197,171.1,195.1,170.8z"/>
<path class="st10" d="M200.7,190.5c0,0.1-0.4-0.1-0.7-0.6c-0.8-1.3-0.6-3,0.4-4.1c0.4-0.4,0.7-0.5,0.8-0.5c-0.6,0.7-1,1.6-1.2,2.5
	C200.1,188.7,200.3,189.6,200.7,190.5z"/>
<path class="st10" d="M217.2,189.1c-2,0.6-4.1,1-6.2,1.1c-2.1,0.3-4.2,0.4-6.3,0.2c2.1-0.4,4.1-0.6,6.2-0.7
	C213.1,189.4,215.1,189.2,217.2,189.1z"/>
<path class="st10" d="M218.4,194.8c-1.7,0.7-3.4,1.1-5.2,1.2c-1.8,0.3-3.6,0.4-5.3,0.2c0-0.1,2.4-0.3,5.3-0.7
	S218.4,194.7,218.4,194.8z"/>
<path class="st10" d="M218.1,200.7c-2.6,0.8-5.3,1.1-8,0.8c1.3-0.3,2.7-0.5,4-0.5C215.4,200.8,216.8,200.7,218.1,200.7z"/>
<path class="st10" d="M205.5,202.5c0,0.1-0.3,0-0.6-0.2c-0.4-0.3-0.8-0.8-0.9-1.3c-0.1-0.5-0.1-1.1,0.2-1.6c0.2-0.4,0.4-0.5,0.5-0.4
	s-0.4,0.9-0.2,1.9S205.6,202.4,205.5,202.5z"/>
<path class="st10" d="M202.2,197.7c0,0.1-0.3-0.1-0.6-0.6c-0.4-0.6-0.6-1.2-0.7-1.9c0-0.7,0.1-1.4,0.4-2c0.3-0.5,0.5-0.7,0.6-0.6
	c-0.3,0.8-0.5,1.7-0.5,2.6C201.6,196.1,201.8,196.9,202.2,197.7z"/>
<path class="st10" d="M214,207c-0.7,0.4-1.5,0.6-2.3,0.7c-0.8,0.2-1.6,0.3-2.4,0.2c0.7-0.4,1.5-0.6,2.3-0.7
	C212.4,206.9,213.2,206.9,214,207z"/>
<path class="st10" d="M207.6,182.8c0,0.1-2,0.1-4.5,0.4s-4.5,0.6-4.5,0.5c1.4-0.6,2.9-0.9,4.5-1
	C204.5,182.5,206.1,182.5,207.6,182.8z"/>
<path class="st0" d="M251.5,230.9h82.7c3,0,5.5,2.5,5.5,5.5l0,0V295l0,0H246l0,0v-58.6C246,233.4,248.5,230.9,251.5,230.9z"/>
<path class="st0" d="M339.6,299.3h-110c0-2.3,1.9-4.2,4.2-4.2l0,0h105.8V299.3z"/>
<rect x="248.8" y="235" class="st6" width="87.3" height="60"/>
<path class="st4" d="M336.2,295c0,0,0-0.4,0-1.1s0-1.8,0-3.2c0-2.8,0-6.9-0.1-12.1c0-10.4-0.1-25.4-0.1-43.6l0.2,0.2h-87.3l0,0
	l0.3-0.3c0,21.4,0,41.8,0,60l-0.2-0.2l62.9,0.1l18,0.1h4.8h1.2h0.4h-0.4h-1.2h-4.7L312,295l-63.1,0.1h-0.2V295c0-18.2,0-38.6,0-60
	v-0.3h0.3h87.3h0.2v0.3c0,18.3-0.1,33.3-0.1,43.8c0,5.2,0,9.3,0,12c0,1.4,0,2.4,0,3.1S336.2,295,336.2,295z"/>
<path class="st4" d="M339.2,295c0,0.1-23.6,0.3-52.7,0.3s-52.7-0.1-52.7-0.3s23.6-0.3,52.7-0.3S339.2,294.9,339.2,295z"/>
<circle class="st7" cx="292.5" cy="265" r="23"/>
<polygon class="st6" points="278.2,265.6 283.1,261 289.8,267.2 303,254.7 307.8,259.3 289.7,276.5 "/>
<path class="st10" d="M194.4,198.2c0.1,0.1-6.8,8.4-15.4,18.6s-15.7,18.3-15.8,18.3s6.8-8.4,15.4-18.6S194.3,198.1,194.4,198.2z"/>
<path class="st4" d="M193.2,185.3c-0.2,2.9-0.6,5.8-1.2,8.6c-0.4,2.9-1,5.7-1.7,8.6c0.2-2.9,0.6-5.8,1.2-8.6
	C191.9,191,192.5,188.1,193.2,185.3z"/>
<path class="st4" d="M257.3,228.8c0-0.2,0.1-0.4,0.2-0.6l0.5-1.7c0.5-1.4,1.2-3.6,2-6.2c1-3,1.8-6.1,2.4-9.3
	c0.8-3.8,1.2-7.7,1.1-11.6c-0.4-7.1-2.4-14.1-5.8-20.3c-1-1.9-2.2-3.7-3.4-5.5c-0.4-0.6-0.8-1.1-1-1.4c-0.1-0.2-0.2-0.3-0.3-0.5
	c0.2,0.1,0.3,0.3,0.4,0.5c0.3,0.3,0.6,0.8,1.1,1.4c1.3,1.7,2.5,3.5,3.6,5.4c1.6,2.8,2.9,5.8,3.9,8.8c1.3,3.8,2,7.7,2.1,11.6
	c0.1,4-0.3,7.9-1.1,11.8c-0.7,3.1-1.5,6.2-2.5,9.3c-0.9,2.6-1.6,4.7-2.2,6.1c-0.3,0.7-0.5,1.2-0.6,1.6
	C257.5,228.5,257.4,228.7,257.3,228.8z"/>
<path class="st4" d="M236,197.7c0,0.5,0,0.9,0,1.4c0,0.5,0,1.1-0.1,1.6c-0.1,0.7-0.2,1.4-0.3,2.2c-0.2,0.9-0.4,1.7-0.6,2.6
	c-0.3,1-0.6,1.9-1,2.9c-0.9,2.1-2.1,4.1-3.4,6c-1.4,1.9-3,3.6-4.7,5.1c-0.8,0.7-1.6,1.3-2.4,1.8c-0.7,0.5-1.5,1-2.3,1.4
	c-0.6,0.4-1.3,0.7-2,1c-0.5,0.2-1,0.4-1.5,0.6c-0.4,0.2-0.9,0.3-1.3,0.4c-0.1-0.1,1.9-0.7,4.6-2.3c0.8-0.4,1.5-0.9,2.2-1.4
	c0.8-0.5,1.5-1.2,2.4-1.9c3.4-3,6.2-6.8,8-11c0.4-0.9,0.7-1.9,1-2.8c0.3-0.8,0.5-1.7,0.7-2.5C235.9,199.7,235.9,197.7,236,197.7z"/>
<path class="st4" d="M263.5,206.8c-0.1-0.1-0.1-0.1-0.1-0.2L263,206c-0.3-0.6-0.8-1.3-1.4-2.2s-1.5-2.1-2.4-3.4s-2.1-2.7-3.4-4.3
	c-5.1-6.3-12.7-14.5-21.4-23.3s-16.9-16.5-22.9-22l-4.1-3.6c-1.2-1.1-2.2-2-3.1-2.7l-2-1.7l-0.5-0.4c-0.1,0-0.1-0.1-0.2-0.2
	c0.1,0,0.1,0.1,0.2,0.1c0.1,0.1,0.3,0.2,0.5,0.4l2.1,1.6l3.2,2.7c1.2,1.1,2.6,2.3,4.1,3.6c6.1,5.4,14.3,13.1,23,21.9
	s16.3,17.1,21.3,23.5c1.2,1.6,2.4,3.1,3.3,4.4l2.3,3.4c0.5,1,1,1.7,1.3,2.3l0.3,0.6C263.5,206.7,263.5,206.8,263.5,206.8z"/>
<path class="st4" d="M244.1,253.1c-0.2,0.1-0.4,0.1-0.6,0.1l-1.6,0.2c-1.4,0.2-3.5,0.4-6,0.6c-5.1,0.5-12.2,0.8-20,0.7
	s-14.9-0.7-20-1.2c-2.6-0.3-4.6-0.6-6-0.8l-1.6-0.3c-0.2,0-0.4-0.1-0.6-0.1c0.2,0,0.4,0,0.6,0l1.6,0.2c1.4,0.2,3.5,0.4,6,0.6
	c5.1,0.5,12.2,1,20,1.1s14.9-0.2,20-0.6c2.6-0.2,4.6-0.3,6-0.5l1.6-0.1C243.7,253,243.9,253,244.1,253.1z"/>
<path class="st8" d="M287.4,230.8c0,0,16.4-6.4,17.9-6.9s15.9-1.6,15.9-1.6l18.5,6.6c0,0,0.2,3.8-4.1,3.3c-3.8-0.6-7.5-1.6-11.2-2.8
	l-2.6,1.5L287.4,230.8z"/>
<path class="st8" d="M338.8,233.3c0.4,0.9,1.5,1,2.4,1.5c1.6,0.9,2.6,2.7,2.5,4.6c-0.1,1.8-0.8,3.6-1.8,5.1
	c-0.3,0.6-0.8,1.2-1.3,1.6c-0.6,0.4-1.4,0.4-1.9,0c-0.6-0.7-0.7-1.6-0.4-2.4C338.7,240.4,338,236.4,338.8,233.3"/>
<path class="st5" d="M357.3,454.5l0.6,1.6c0,0,30.4,1.2,32.5,6.1l-52.9,18.6l-5.5-17.8C341.1,463.8,349.5,461.3,357.3,454.5z"/>
<g class="st9">
	<path class="st6" d="M339.3,466.6c-0.9,0.7-1.2,2-0.6,3c0.7,1,2,1.3,3,0.6c1-0.7,1.3-2.1,0.6-3.2c-0.8-0.9-2.2-1.1-3.1-0.3"/>
</g>
<g class="st9">
	<path class="st6" d="M337.5,480.7l-1.3-4.3l51.2-16.2c0,0,2.7,0.2,3,2L337.5,480.7z"/>
</g>
<path class="st4" d="M358.1,456.1c0.1,0.3-1.2,0.8-2.1,2.1s-1.3,2.6-1.5,2.6s-0.4-1.6,0.8-3.2S358.1,455.9,358.1,456.1z"/>
<path class="st4" d="M364.5,456.5c0.1,0.2-0.8,1.1-1.3,2.5s-0.3,2.6-0.6,2.7s-0.9-1.3-0.3-3.1S364.4,456.2,364.5,456.5z"/>
<path class="st4" d="M369.9,462c-0.2,0.1-1-1-0.9-2.7s1.2-2.6,1.4-2.5s-0.3,1.2-0.4,2.5S370.2,461.9,369.9,462z"/>
</svg>
